{
.appVersion = "3151";
.formatVersion = 3;
DisplayStrings = (
"/a_d_d"
);
customParameters = (
{
name = vendorID;
value = NONE;
},
{
name = panose;
value = (
2,
11,
0,
9,
2,
0,
0,
0,
0,
4
);
},
{
name = unicodeRanges;
value = (
0,
1,
2,
3,
4,
5,
6,
9,
29,
31,
32,
33,
35,
37,
38
);
},
{
name = codePageRanges;
value = (
"1252",
"1250",
"1251",
"1254",
"1257"
);
},
{
name = fsType;
value = (
);
},
{
name = glyphOrder;
value = (
.notdef,
A,
Aacute,
Abreve,
uni01CD,
Acircumflex,
Adieresis,
Agrave,
Amacron,
Aogonek,
Aring,
Aringacute,
Atilde,
AE,
AEacute,
B,
C,
Cacute,
Ccaron,
Ccedilla,
Cdotaccent,
D,
Eth,
Dcaron,
Dcroat,
uni1E0C,
E,
Eacute,
Ecaron,
Ecircumflex,
Edieresis,
Edotaccent,
Egrave,
Emacron,
Eogonek,
uni1EBC,
uni018F,
F,
G,
Gbreve,
Gcaron,
uni0122,
Gdotaccent,
H,
Hbar,
uni1E24,
I,
IJ,
Iacute,
Icircumflex,
Idieresis,
Idotaccent,
uni1ECA,
Igrave,
Imacron,
Iogonek,
Itilde,
J,
uni004A0301,
K,
uni0136,
L,
Lacute,
Lcaron,
uni013B,
Ldot,
Lslash,
M,
N,
Nacute,
Ncaron,
uni0145,
uni019D,
Ntilde,
Eng,
O,
Oacute,
Ocircumflex,
Odieresis,
uni1ECC,
Ograve,
Ohungarumlaut,
Omacron,
Oslash,
Oslashacute,
Otilde,
OE,
P,
Thorn,
Q,
R,
Racute,
Rcaron,
uni0156,
S,
Sacute,
uniA78B,
Scaron,
Scedilla,
uni0218,
uni1E62,
uni1E9E,
T,
Tbar,
Tcaron,
uni0162,
uni021A,
uni1E6C,
U,
Uacute,
Ubreve,
Ucircumflex,
Udieresis,
uni1EE4,
Ugrave,
Uhungarumlaut,
Umacron,
Uogonek,
Uring,
Utilde,
V,
W,
Wacute,
Wcircumflex,
Wdieresis,
Wgrave,
X,
Y,
Yacute,
Ycircumflex,
Ydieresis,
Ygrave,
uni0232,
uni1EF8,
Z,
Zacute,
Zcaron,
Zdotaccent,
uni1E92,
a,
aacute,
abreve,
uni01CE,
acircumflex,
adieresis,
agrave,
amacron,
aogonek,
aring,
aringacute,
atilde,
ae,
aeacute,
b,
c,
cacute,
ccaron,
ccedilla,
cdotaccent,
d,
eth,
dcaron,
dcroat,
uni1E0D,
e,
eacute,
ecaron,
ecircumflex,
edieresis,
edotaccent,
egrave,
emacron,
eogonek,
uni1EBD,
uni0259,
f,
g,
gbreve,
gcaron,
uni0123,
gdotaccent,
h,
hbar,
uni1E25,
i,
dotlessi,
iacute,
icircumflex,
idieresis,
i.loclTRK,
uni1ECB,
igrave,
ij,
imacron,
iogonek,
itilde,
j,
uni0237,

glyphs = (
{
glyphname = .notdef;
layers = (
{
layerId = m01;
shapes = (
{
closed = 1;
nodes = (
(607,800,l),
(93,800,l),
(93,0,l),
(607,0,l)
);
},
{
closed = 1;
nodes = (
(567,764,l),
(567,36,l),
(133,36,l),
(133,764,l)
);
},
{
closed = 1;
nodes = (
(183,710,l),
(183,90,l),
(517,710,l)
);
}
);
width = 700;
}
);
note = ".notdef";
},
{
glyphname = A;
layers = (
{
layerId = m01;
shapes = (
{
closed = 1;
nodes = (
(342,715,l),
(352,715,l),
(529,0,l),
(648,0,l),
(443,800,l),
(257,800,l),
(52,0,l),
(164,0,l)
);
},
{
closed = 1;
nodes = (
(523,379,l),
(177,379,l),
(177,271,l),
(523,271,l)
);
}
);
width = 700;
}
);
note = A;
unicode = 65;
},
{
glyphname = uni01CD;
layers = (
{
layerId = m01;
shapes = (
{
closed = 1;
nodes = (
(342,715,l),
(352,715,l),
(529,0,l),
(648,0,l),
(443,800,l),
(257,800,l),
(52,0,l),
(164,0,l)
);
},
{
closed = 1;
nodes = (
(523,379,l),
(177,379,l),
(177,271,l),
(523,271,l)
);
},
{
closed = 1;
nodes = (
(319,924,l),
(381,924,l),
(286,1040,l),
(190,1040,l),
(286,890,l),
(414,890,l),
(510,1040,l),
(414,1040,l)
);
}
);
width = 700;
}
);
note = uni01CD;
unicode = 461;
},
{
glyphname = Agrave;
layers = (
{
layerId = m01;
shapes = (
{
closed = 1;
nodes = (
(342,715,l),
(352,715,l),
(529,0,l),
(648,0,l),
(443,800,l),
(257,800,l),
(52,0,l),
(164,0,l)
);
},
{
closed = 1;
nodes = (
(523,379,l),
(177,379,l),
(177,271,l),
(523,271,l)
);
},
{
closed = 1;
nodes = (
(172,1040,l),
(301,890,l),
(399,890,l),
(300,1040,l)
);
}
);
width = 700;
}
);
note = Agrave;
unicode = 192;
},
{
glyphname = AE;
layers = (
{
layerId = m01;
shapes = (
{
closed = 1;
nodes = (
(657,107,l),
(467,107,l),
(467,353,l),
(627,353,l),
(627,453,l),
(467,453,l),
(467,693,l),
(667,693,l),
(667,800,l),
(245,800,l),
(13,0,l),
(127,0,l),
(323,693,l),
(355,693,l),
(355,371,l),
(176,371,l),
(176,271,l),
(355,271,l),
(355,0,l),
(657,0,l)
);
}
);
width = 700;
}
);
note = AE;
unicode = 198;
},
{
glyphname = B;
layers = (
{
layerId = m01;
shapes = (
{
closed = 1;
nodes = (
(488,0,o),
(635,118,o),
(635,220,qs),
(635,288,o),
(567,386,o),
(505,405,q),
(505,421,l),
(560,439,o),
(621,525,o),
(621,583,qs),
(621,684,o),
(481,800,o),
(360,800,qs),
(122,800,l),
(122,0,l),
(360,0,ls)
);
},
{
closed = 1;
nodes = (
(360,354,ls),
(438,354,o),
(521,289,o),
(521,230,qs),
(521,171,o),
(438,106,o),
(360,106,qs),
(236,106,l),
(236,354,l)
);
},
{
closed = 1;
nodes = (
(360,694,ls),
(434,694,o),
(512,632,o),
(512,574,qs),
(512,516,o),
(434,454,o),
(360,454,qs),
(236,454,l),
(236,694,l)
);
}
);
width = 700;
}
);
note = B;
unicode = 66;
},
{
glyphname = C;
layers = (
{
layerId = m01;
shapes = (
{
closed = 1;
nodes = (
(557,49,o),
(621,174,o),
(627,263,q),
(522,263,l),
(509,179,o),
(431,91,o),
(367,91,qs),
(278,91,o),
(195,241,o),
(195,400,qs),
(195,559,o),
(283,709,o),
(376,709,qs),
(443,709,o),
(526,614,o),
(540,523,q),
(645,523,l),
(639,617,o),
(572,748,o),
(456,816,o),
(376,816,qs),
(228,816,o),
(81,609,o),
(81,400,qs),
(81,191,o),
(224,-16,o),
(367,-16,qs),
(444,-16,o)
);
}
);
width = 700;
}
);
note = C;
unicode = 67;
},
{
glyphname = Ccaron;
layers = (
{
layerId = m01;
shapes = (
{
closed = 1;
nodes = (
(557,49,o),
(621,174,o),
(627,263,q),
(522,263,l),
(509,179,o),
(431,91,o),
(367,91,qs),
(278,91,o),
(195,241,o),
(195,400,qs),
(195,559,o),
(283,709,o),
(376,709,qs),
(443,709,o),
(526,614,o),
(540,523,q),
(645,523,l),
(639,617,o),
(572,748,o),
(456,816,o),
(376,816,qs),
(228,816,o),
(81,609,o),
(81,400,qs),
(81,191,o),
(224,-16,o),
(367,-16,qs),
(444,-16,o)
);
},
{
closed = 1;
nodes = (
(345,924,l),
(407,924,l),
(312,1040,l),
(216,1040,l),
(312,890,l),
(440,890,l),
(536,1040,l),
(440,1040,l)
);
}
);
width = 700;
}
);
note = Ccaron;
unicode = 268;
},
{
glyphname = D;
layers = (
{
layerId = m01;
shapes = (
{
closed = 1;
nodes = (
(479,0,o),
(642,201,o),
(642,400,qs),
(642,599,o),
(479,800,o),
(317,800,qs),
(93,800,l),
(93,0,l),
(317,0,ls)
);
},
{
closed = 1;
nodes = (
(317,693,ls),
(423,693,o),
(528,549,o),
(528,400,qs),
(528,252,o),
(423,107,o),
(317,107,qs),
(207,107,l),
(207,693,l)
);
}
);
width = 700;
}
);
note = D;
unicode = 68;
},
{
glyphname = Eth;
layers = (
{
layerId = m01;
shapes = (
{
closed = 1;
nodes = (
(320,453,l),
(37,453,l),
(37,347,l),
(320,347,l)
);
},
{
closed = 1;
nodes = (
(479,0,o),
(642,201,o),
(642,400,qs),
(642,599,o),
(479,800,o),
(317,800,qs),
(93,800,l),
(93,0,l),
(317,0,ls)
);
},
{
closed = 1;
nodes = (
(317,693,ls),
(423,693,o),
(528,549,o),
(528,400,qs),
(528,252,o),
(423,107,o),
(317,107,qs),
(207,107,l),
(207,693,l)
);
}
);
width = 700;
}
);
note = Eth;
unicode = 208;
},
{
glyphname = Dcaron;
layers = (
{
layerId = m01;
shapes = (
{
closed = 1;
nodes = (
(479,0,o),
(642,201,o),
(642,400,qs),
(642,599,o),
(479,800,o),
(317,800,qs),
(93,800,l),
(93,0,l),
(317,0,ls)
);
},
{
closed = 1;
nodes = (
(317,693,ls),
(423,693,o),
(528,549,o),
(528,400,qs),
(528,252,o),
(423,107,o),
(317,107,qs),
(207,107,l),
(207,693,l)
);
},
{
closed = 1;
nodes = (
(302,924,l),
(364,924,l),
(269,1040,l),
(173,1040,l),
(269,890,l),
(397,890,l),
(493,1040,l),
(397,1040,l)
);
}
);
width = 700;
}
);
note = Dcaron;
unicode = 270;
},
{
glyphname = E;
layers = (
{
layerId = m01;
shapes = (
{
closed = 1;
nodes = (
(603,107,l),
(254,107,l),
(254,353,l),
(563,353,l),
(563,453,l),
(254,453,l),
(254,693,l),
(613,693,l),
(613,800,l),
(140,800,l),
(140,0,l),
(603,0,l)
);
}
);
width = 700;
}
);
note = E;
unicode = 69;
},
{
glyphname = Ecaron;
layers = (
{
layerId = m01;
shapes = (
{
closed = 1;
nodes = (
(603,107,l),
(254,107,l),
(254,353,l),
(563,353,l),
(563,453,l),
(254,453,l),
(254,693,l),
(613,693,l),
(613,800,l),
(140,800,l),
(140,0,l),
(603,0,l)
);
},
{
closed = 1;
nodes = (
(354,924,l),
(416,924,l),
(321,1040,l),
(225,1040,l),
(321,890,l),
(449,890,l),
(545,1040,l),
(449,1040,l)
);
}
);
width = 700;
}
);
note = Ecaron;
unicode = 282;
},
{
glyphname = Egrave;
layers = (
{
layerId = m01;
shapes = (
{
closed = 1;
nodes = (
(603,107,l),
(254,107,l),
(254,353,l),
(563,353,l),
(563,453,l),
(254,453,l),
(254,693,l),
(613,693,l),
(613,800,l),
(140,800,l),
(140,0,l),
(603,0,l)
);
},
{
closed = 1;
nodes = (
(236,1040,l),
(365,890,l),
(463,890,l),
(364,1040,l)
);
}
);
width = 700;
}
);
note = Egrave;
unicode = 200;
},
{
glyphname = uni018F;
layers = (
{
layerId = m01;
shapes = (
{
closed = 1;
nodes = (
(75,435,l),
(74,431,o),
(72,403,o),
(72,378,qs),
(72,179,o),
(209,-16,o),
(347,-16,qs),
(494,-16,o),
(642,189,o),
(642,393,qs),
(642,604,o),
(491,816,o),
(340,816,qs),
(229,816,o),
(84,682,o),
(57,553,q),
(164,553,l),
(192,633,o),
(279,710,o),
(340,710,qs),
(437,710,o),
(528,557,o),
(528,393,qs),
(528,237,o),
(439,90,o),
(347,90,qs),
(264,90,o),
(186,231,o),
(186,380,q),
(157,333,l),
(566,333,l),
(566,435,l)
);
}
);
width = 700;
}
);
note = uni018F;
unicode = 399;
},
{
glyphname = F;
layers = (
{
layerId = m01;
shapes = (
{
closed = 1;
nodes = (
(274,341,l),
(583,341,l),
(583,441,l),
(274,441,l),
(274,693,l),
(633,693,l),
(633,800,l),
(160,800,l),
(160,0,l),
(274,0,l)
);
}
);
width = 700;
}
);
note = F;
unicode = 70;
},
{
glyphname = G;
layers = (
{
layerId = m01;
shapes = (
{
closed = 1;
nodes = (
(472,27,o),
(489,63,q),
(519,63,l),
(519,0,l),
(616,0,l),
(616,400,l),
(349,400,l),
(349,294,l),
(519,294,l),
(519,237,o),
(477,142,o),
(407,85,o),
(365,85,qs),
(273,85,o),
(185,238,o),
(185,400,qs),
(185,559,o),
(273,709,o),
(366,709,qs),
(433,709,o),
(513,623,o),
(528,543,q),
(634,543,l),
(627,630,o),
(560,751,o),
(445,816,o),
(366,816,qs),
(219,816,o),
(71,608,o),
(71,400,qs),
(71,196,o),
(210,-15,o),
(334,-15,qs),
(390,-15,o)
);
}
);
width = 700;
}
);
note = G;
unicode = 71;
},
{
glyphname = Gcaron;
layers = (
{
layerId = m01;
shapes = (
{
closed = 1;
nodes = (
(472,27,o),
(489,63,q),
(519,63,l),
(519,0,l),
(616,0,l),
(616,400,l),
(349,400,l),
(349,294,l),
(519,294,l),
(519,237,o),
(477,142,o),
(407,85,o),
(365,85,qs),
(273,85,o),
(185,238,o),
(185,400,qs),
(185,559,o),
(273,709,o),
(366,709,qs),
(433,709,o),
(513,623,o),
(528,543,q),
(634,543,l),
(627,630,o),
(560,751,o),
(445,816,o),
(366,816,qs),
(219,816,o),
(71,608,o),
(71,400,qs),
(71,196,o),
(210,-15,o),
(334,-15,qs),
(390,-15,o)
);
},
{
closed = 1;
nodes = (
(337,924,l),
(399,924,l),
(304,1040,l),
(208,1040,l),
(304,890,l),
(432,890,l),
(528,1040,l),
(432,1040,l)
);
}
);
width = 700;
}
);
note = Gcaron;
unicode = 486;
},
{
glyphname = H;
layers = (
{
layerId = m01;
shapes = (
{
closed = 1;
nodes = (
(207,349,l),
(493,349,l),
(493,0,l),
(607,0,l),
(607,800,l),
(493,800,l),
(493,457,l),
(207,457,l),
(207,800,l),
(93,800,l),
(93,0,l),
(207,0,l)
);
}
);
width = 700;
}
);
note = H;
unicode = 72;
},
{
glyphname = Hbar;
layers = (
{
layerId = m01;
shapes = (
{
closed = 1;
nodes = (
(217,349,l),
(483,349,l),
(483,0,l),
(597,0,l),
(597,800,l),
(483,800,l),
(483,457,l),
(217,457,l),
(217,800,l),
(103,800,l),
(103,0,l),
(217,0,l)
);
},
{
closed = 1;
nodes = (
(677,690,l),
(23,690,l),
(23,600,l),
(677,600,l)
);
}
);
width = 700;
}
);
note = Hbar;
unicode = 294;
},
{
glyphname = I;
layers = (
{
layerId = m01;
shapes = (
{
closed = 1;
nodes = (
(607,107,l),
(407,107,l),
(407,693,l),
(607,693,l),
(607,800,l),
(93,800,l),
(93,693,l),
(293,693,l),
(293,107,l),
(93,107,l),
(93,0,l),
(607,0,l)
);
}
);
width = 700;
}
);
note = I;
unicode = 73;
},
{
glyphname = IJ;
layers = (
{
layerId = m01;
shapes = (
{
closed = 1;
nodes = (
(187,800,l),
(73,800,l),
(73,0,l),
(187,0,l)
);
},
{
closed = 1;
nodes = (
(565,45,o),
(627,158,o),
(627,237,qs),
(627,800,l),
(513,800,l),
(513,247,ls),
(513,174,o),
(437,91,o),
(369,91,qs),
(317,91,l),
(317,-16,l),
(369,-16,ls),
(450,-16,o)
);
}
);
width = 700;
}
);
note = IJ;
unicode = 306;
},
{
glyphname = Igrave;
layers = (
{
layerId = m01;
shapes = (
{
closed = 1;
nodes = (
(607,107,l),
(407,107,l),
(407,693,l),
(607,693,l),
(607,800,l),
(93,800,l),
(93,693,l),
(293,693,l),
(293,107,l),
(93,107,l),
(93,0,l),
(607,0,l)
);
},
{
closed = 1;
nodes = (
(201,1040,l),
(331,890,l),
(429,890,l),
(329,1040,l)
);
}
);
width = 700;
}
);
note = Igrave;
unicode = 204;
},
{
glyphname = J;
layers = (
{
layerId = m01;
shapes = (
{
closed = 1;
nodes = (
(528,45,o),
(590,158,o),
(590,237,qs),
(590,800,l),
(135,800,l),
(135,690,l),
(476,690,l),
(476,247,ls),
(476,174,o),
(400,91,o),
(332,91,qs),
(265,91,o),
(189,174,o),
(189,247,qs),
(189,350,l),
(77,350,l),
(77,237,ls),
(77,158,o),
(138,45,o),
(253,-16,o),
(332,-16,qs),
(413,-16,o)
);
}
);
width = 700;
}
);
note = J;
unicode = 74;
},
{
glyphname = K;
layers = (
{
layerId = m01;
shapes = (
{
closed = 1;
nodes = (
(252,0,l),
(252,800,l),
(138,800,l),
(138,0,l)
);
},
{
closed = 1;
nodes = (
(353,392,l),
(649,800,l),
(517,800,l),
(218,387,l),
(499,0,l),
(638,0,l)
);
}
);
width = 700;
}
);
note = K;
unicode = 75;
},
{
glyphname = L;
layers = (
{
layerId = m01;
shapes = (
{
closed = 1;
nodes = (
(633,107,l),
(294,107,l),
(294,800,l),
(180,800,l),
(180,0,l),
(633,0,l)
);
}
);
width = 700;
}
);
note = L;
unicode = 76;
},
{
glyphname = Lslash;
layers = (
{
layerId = m01;
shapes = (
{
closed = 1;
nodes = (
(456,555,l),
(83,350,l),
(83,239,l),
(456,444,l)
);
},
{
closed = 1;
nodes = (
(633,107,l),
(294,107,l),
(294,800,l),
(180,800,l),
(180,0,l),
(633,0,l)
);
}
);
width = 700;
}
);
note = Lslash;
unicode = 321;
},
{
glyphname = M;
layers = (
{
layerId = m01;
shapes = (
{
closed = 1;
nodes = (
(177,460,l),
(173,720,l),
(185,720,l),
(275,270,l),
(426,270,l),
(515,720,l),
(527,720,l),
(523,460,l),
(523,0,l),
(627,0,l),
(627,800,l),
(452,800,l),
(359,337,l),
(348,337,l),
(254,800,l),
(73,800,l),
(73,0,l),
(177,0,l)
);
}
);
width = 700;
}
);
note = M;
unicode = 77;
},
{
glyphname = N;
layers = (
{
layerId = m01;
shapes = (
{
closed = 1;
nodes = (
(191,497,l),
(187,727,l),
(198,727,l),
(420,0,l),
(614,0,l),
(614,800,l),
(509,800,l),
(509,303,l),
(513,73,l),
(502,73,l),
(280,800,l),
(86,800,l),
(86,0,l),
(191,0,l)
);
}
);
width = 700;
}
);
note = N;
unicode = 78;
},
{
glyphname = Ncaron;
layers = (
{
layerId = m01;
shapes = (
{
closed = 1;
nodes = (
(191,497,l),
(187,727,l),
(198,727,l),
(420,0,l),
(614,0,l),
(614,800,l),
(509,800,l),
(509,303,l),
(513,73,l),
(502,73,l),
(280,800,l),
(86,800,l),
(86,0,l),
(191,0,l)
);
},
{
closed = 1;
nodes = (
(319,924,l),
(381,924,l),
(286,1040,l),
(190,1040,l),
(286,890,l),
(414,890,l),
(510,1040,l),
(414,1040,l)
);
}
);
width = 700;
}
);
note = Ncaron;
unicode = 327;
},
{
glyphname = uni019D;
layers = (
{
layerId = m01;
shapes = (
{
closed = 1;
nodes = (
(96,-239,o),
(191,-137,o),
(191,-37,qs),
(191,0,l),
(137,20,l),
(86,0,l),
(86,-43,ls),
(86,-93,o),
(43,-145,o),
(0,-145,qs),
(-19,-145,l),
(-19,-239,l),
(2,-239,ls)
);
},
{
closed = 1;
nodes = (
(191,497,l),
(187,727,l),
(198,727,l),
(420,0,l),
(614,0,l),
(614,800,l),
(509,800,l),
(509,303,l),
(513,73,l),
(502,73,l),
(280,800,l),
(86,800,l),
(86,0,l),
(191,0,l)
);
}
);
width = 700;
}
);
note = uni019D;
unicode = 413;
},
{
glyphname = Eng;
layers = (
{
layerId = m01;
shapes = (
{
closed = 1;
nodes = (
(519,-239,o),
(614,-137,o),
(614,-37,qs),
(614,0,l),
(561,20,l),
(509,0,l),
(509,-43,ls),
(509,-93,o),
(466,-145,o),
(423,-145,qs),
(405,-145,l),
(405,-239,l),
(425,-239,ls)
);
},
{
closed = 1;
nodes = (
(191,497,l),
(187,727,l),
(198,727,l),
(420,0,l),
(614,0,l),
(614,800,l),
(509,800,l),
(509,303,l),
(513,73,l),
(502,73,l),
(280,800,l),
(86,800,l),
(86,0,l),
(191,0,l)
);
}
);
width = 700;
}
);
note = Eng;
unicode = 330;
},
{
glyphname = O;
layers = (
{
layerId = m01;
shapes = (
{
closed = 1;
nodes = (
(642,192,o),
(642,400,qs),
(642,608,o),
(496,816,o),
(350,816,qs),
(204,816,o),
(58,608,o),
(58,400,qs),
(58,192,o),
(204,-16,o),
(350,-16,qs),
(496,-16,o)
);
},
{
closed = 1;
nodes = (
(172,241,o),
(172,400,qs),
(172,559,o),
(258,709,o),
(350,709,qs),
(442,709,o),
(528,559,o),
(528,400,qs),
(528,241,o),
(442,91,o),
(350,91,qs),
(258,91,o)
);
}
);
width = 700;
}
);
note = O;
unicode = 79;
},
{
glyphname = Ograve;
layers = (
{
layerId = m01;
shapes = (
{
closed = 1;
nodes = (
(642,192,o),
(642,400,qs),
(642,608,o),
(496,816,o),
(350,816,qs),
(204,816,o),
(58,608,o),
(58,400,qs),
(58,192,o),
(204,-16,o),
(350,-16,qs),
(496,-16,o)
);
},
{
closed = 1;
nodes = (
(172,241,o),
(172,400,qs),
(172,559,o),
(258,709,o),
(350,709,qs),
(442,709,o),
(528,559,o),
(528,400,qs),
(528,241,o),
(442,91,o),
(350,91,qs),
(258,91,o)
);
},
{
closed = 1;
nodes = (
(201,1040,l),
(331,890,l),
(429,890,l),
(329,1040,l)
);
}
);
width = 700;
}
);
note = Ograve;
unicode = 210;
},
{
glyphname = Oslash;
layers = (
{
layerId = m01;
shapes = (
{
closed = 1;
nodes = (
(165,-16,l),
(642,816,l),
(535,816,l),
(58,-16,l)
);
},
{
closed = 1;
nodes = (
(642,192,o),
(642,400,qs),
(642,608,o),
(496,816,o),
(350,816,qs),
(204,816,o),
(58,608,o),
(58,400,qs),
(58,192,o),
(204,-16,o),
(350,-16,qs),
(496,-16,o)
);
},
{
closed = 1;
nodes = (
(172,241,o),
(172,400,qs),
(172,559,o),
(258,709,o),
(350,709,qs),
(442,709,o),
(528,559,o),
(528,400,qs),
(528,241,o),
(442,91,o),
(350,91,qs),
(258,91,o)
);
}
);
width = 700;
}
);
note = Oslash;
unicode = 216;
},
{
glyphname = OE;
layers = (
{
layerId = m01;
shapes = (
{
closed = 1;
nodes = (
(334,16,o),
(353,48,q),
(373,48,l),
(373,0,l),
(680,0,l),
(680,107,l),
(486,107,l),
(486,353,l),
(653,353,l),
(653,453,l),
(486,453,l),
(486,693,l),
(690,693,l),
(690,800,l),
(373,800,l),
(373,752,l),
(353,752,l),
(334,784,o),
(273,816,o),
(229,816,qs),
(179,816,o),
(105,771,o),
(58,672,o),
(36,513,o),
(36,400,qs),
(36,287,o),
(58,128,o),
(105,29,o),
(179,-16,o),
(229,-16,qs),
(273,-16,o)
);
},
{
closed = 1;
nodes = (
(187,121,o),
(161,192,o),
(150,312,o),
(150,400,qs),
(150,489,o),
(161,608,o),
(187,679,o),
(230,709,o),
(263,709,qs),
(295,709,o),
(339,679,o),
(364,608,o),
(375,489,o),
(375,400,qs),
(375,312,o),
(364,192,o),
(339,121,o),
(295,91,o),
(263,91,qs),
(230,91,o)
);
}
);
width = 700;
}
);
note = OE;
unicode = 338;
},
{
glyphname = P;
layers = (
{
layerId = m01;
shapes = (
{
closed = 1;
nodes = (
(244,331,l),
(404,331,ls),
(480,331,o),
(592,388,o),
(654,493,o),
(654,565,qs),
(654,637,o),
(592,742,o),
(480,800,o),
(404,800,qs),
(130,800,l),
(130,0,l),
(244,0,l)
);
},
{
closed = 1;
nodes = (
(408,693,ls),
(469,693,o),
(540,623,o),
(540,563,qs),
(540,503,o),
(469,433,o),
(408,433,qs),
(244,433,l),
(244,693,l)
);
}
);
width = 700;
}
);
note = P;
unicode = 80;
},
{
glyphname = Thorn;
layers = (
{
layerId = m01;
shapes = (
{
closed = 1;
nodes = (
(244,175,l),
(404,175,ls),
(480,175,o),
(592,233,o),
(654,338,o),
(654,409,qs),
(654,481,o),
(592,587,o),
(480,645,o),
(404,645,qs),
(244,645,l),
(244,800,l),
(130,800,l),
(130,0,l),
(244,0,l)
);
},
{
closed = 1;
nodes = (
(408,537,ls),
(469,537,o),
(540,468,o),
(540,408,qs),
(540,347,o),
(469,278,o),
(408,278,qs),
(244,278,l),
(244,537,l)
);
}
);
width = 700;
}
);
note = Thorn;
unicode = 222;
},
{
glyphname = Q;
layers = (
{
layerId = m01;
shapes = (
{
closed = 1;
nodes = (
(607,-102,l),
(380,-29,l),
(380,10,l),
(320,10,l),
(320,-124,l),
(607,-216,l)
);
},
{
closed = 1;
nodes = (
(642,192,o),
(642,400,qs),
(642,608,o),
(496,816,o),
(350,816,qs),
(204,816,o),
(58,608,o),
(58,400,qs),
(58,192,o),
(204,-16,o),
(350,-16,qs),
(496,-16,o)
);
},
{
closed = 1;
nodes = (
(172,241,o),
(172,400,qs),
(172,559,o),
(258,709,o),
(350,709,qs),
(442,709,o),
(528,559,o),
(528,400,qs),
(528,241,o),
(442,91,o),
(350,91,qs),
(258,91,o)
);
}
);
width = 700;
}
);
note = Q;
unicode = 81;
},
{
glyphname = R;
layers = (
{
layerId = m01;
shapes = (
{
closed = 1;
nodes = (
(229,345,l),
(386,345,ls),
(462,345,o),
(576,402,o),
(640,502,o),
(640,569,qs),
(640,640,o),
(577,744,o),
(463,800,o),
(386,800,qs),
(115,800,l),
(115,0,l),
(229,0,l)
);
},
{
closed = 1;
nodes = (
(437,365,l),
(314,365,l),
(530,0,l),
(660,0,l)
);
},
{
closed = 1;
nodes = (
(388,693,ls),
(451,693,o),
(526,625,o),
(526,568,qs),
(526,512,o),
(451,444,o),
(388,444,qs),
(229,444,l),
(229,693,l)
);
}
);
width = 700;
}
);
note = R;
unicode = 82;
},
{
glyphname = Rcaron;
layers = (
{
layerId = m01;
shapes = (
{
closed = 1;
nodes = (
(229,345,l),
(386,345,ls),
(462,345,o),
(576,402,o),
(640,502,o),
(640,569,qs),
(640,640,o),
(577,744,o),
(463,800,o),
(386,800,qs),
(115,800,l),
(115,0,l),
(229,0,l)
);
},
{
closed = 1;
nodes = (
(437,365,l),
(314,365,l),
(530,0,l),
(660,0,l)
);
},
{
closed = 1;
nodes = (
(388,693,ls),
(451,693,o),
(526,625,o),
(526,568,qs),
(526,512,o),
(451,444,o),
(388,444,qs),
(229,444,l),
(229,693,l)
);
},
{
closed = 1;
nodes = (
(319,924,l),
(381,924,l),
(286,1040,l),
(190,1040,l),
(286,890,l),
(414,890,l),
(510,1040,l),
(414,1040,l)
);
}
);
width = 700;
}
);
note = Rcaron;
unicode = 344;
},
{
glyphname = S;
layers = (
{
layerId = m01;
shapes = (
{
closed = 1;
nodes = (
(89,136,o),
(158,37,o),
(277,-16,o),
(357,-16,qs),
(436,-16,o),
(554,43,o),
(619,150,o),
(619,223,qs),
(619,318,o),
(513,433,o),
(408,450,qs),
(320,463,ls),
(266,472,o),
(207,530,o),
(207,576,qs),
(207,638,o),
(290,709,o),
(363,709,qs),
(429,709,o),
(513,640,o),
(529,576,q),
(637,576,l),
(632,651,o),
(563,758,o),
(443,816,o),
(363,816,qs),
(283,816,o),
(162,756,o),
(95,649,o),
(95,576,qs),
(95,480,o),
(201,366,o),
(305,348,qs),
(393,335,ls),
(448,327,o),
(507,268,o),
(507,223,qs),
(507,161,o),
(427,91,o),
(357,91,qs),
(293,91,o),
(211,149,o),
(194,204,q),
(85,204,l)
);
}
);
width = 700;
}
);
note = S;
unicode = 83;
},
{
glyphname = uniA78B;
layers = (
{
layerId = m01;
shapes = (
{
closed = 1;
nodes = (
(413,620,l),
(413,800,l),
(313,800,l),
(313,400,l),
(393,400,l)
);
}
);
width = 700;
}
);
note = uniA78B;
unicode = 42891;
},
{
glyphname = Scaron;
layers = (
{
layerId = m01;
shapes = (
{
closed = 1;
nodes = (
(89,136,o),
(158,37,o),
(277,-16,o),
(357,-16,qs),
(436,-16,o),
(554,43,o),
(619,150,o),
(619,223,qs),
(619,318,o),
(513,433,o),
(408,450,qs),
(320,463,ls),
(266,472,o),
(207,530,o),
(207,576,qs),
(207,638,o),
(290,709,o),
(363,709,qs),
(429,709,o),
(513,640,o),
(529,576,q),
(637,576,l),
(632,651,o),
(563,758,o),
(443,816,o),
(363,816,qs),
(283,816,o),
(162,756,o),
(95,649,o),
(95,576,qs),
(95,480,o),
(201,366,o),
(305,348,qs),
(393,335,ls),
(448,327,o),
(507,268,o),
(507,223,qs),
(507,161,o),
(427,91,o),
(357,91,qs),
(293,91,o),
(211,149,o),
(194,204,q),
(85,204,l)
);
},
{
closed = 1;
nodes = (
(333,924,l),
(395,924,l),
(300,1040,l),
(204,1040,l),
(300,890,l),
(428,890,l),
(524,1040,l),
(428,1040,l)
);
}
);
width = 700;
}
);
note = Scaron;
unicode = 352;
},
{
glyphname = uni1E9E;
layers = (
{
layerId = m01;
shapes = (
{
closed = 1;
nodes = (
(209,539,ls),
(209,614,o),
(284,693,o),
(353,693,qs),
(511,693,l),
(511,729,l),
(316,472,l),
(316,372,l),
(390,372,ls),
(461,372,o),
(541,302,o),
(541,240,qs),
(541,179,o),
(461,107,o),
(390,107,qs),
(316,107,l),
(316,0,l),
(394,0,ls),
(516,0,o),
(655,128,o),
(655,240,qs),
(655,312,o),
(592,416,o),
(475,472,o),
(394,472,qs),
(366,472,l),
(405,431,l),
(605,693,l),
(605,800,l),
(357,800,ls),
(231,800,o),
(95,664,o),
(95,535,qs),
(95,0,l),
(209,0,l)
);
}
);
width = 700;
}
);
note = uni1E9E;
unicode = 7838;
},
{
glyphname = T;
layers = (
{
layerId = m01;
shapes = (
{
closed = 1;
nodes = (
(407,693,l),
(643,693,l),
(643,800,l),
(57,800,l),
(57,693,l),
(293,693,l),
(293,0,l),
(407,0,l)
);
}
);
width = 700;
}
);
note = T;
unicode = 84;
},
{
glyphname = Tbar;
layers = (
{
layerId = m01;
shapes = (
{
closed = 1;
nodes = (
(555,440,l),
(145,440,l),
(145,344,l),
(555,344,l)
);
},
{
closed = 1;
nodes = (
(407,693,l),
(643,693,l),
(643,800,l),
(57,800,l),
(57,693,l),
(293,693,l),
(293,0,l),
(407,0,l)
);
}
);
width = 700;
}
);
note = Tbar;
unicode = 358;
},
{
glyphname = Tcaron;
layers = (
{
layerId = m01;
shapes = (
{
closed = 1;
nodes = (
(407,693,l),
(643,693,l),
(643,800,l),
(57,800,l),
(57,693,l),
(293,693,l),
(293,0,l),
(407,0,l)
);
},
{
closed = 1;
nodes = (
(319,924,l),
(381,924,l),
(286,1040,l),
(190,1040,l),
(286,890,l),
(414,890,l),
(510,1040,l),
(414,1040,l)
);
}
);
width = 700;
}
);
note = Tcaron;
unicode = 356;
},
{
glyphname = U;
layers = (
{
layerId = m01;
shapes = (
{
closed = 1;
nodes = (
(85,128,o),
(221,-16,o),
(350,-16,qs),
(479,-16,o),
(615,128,o),
(615,263,qs),
(615,800,l),
(505,800,l),
(505,273,ls),
(505,188,o),
(425,91,o),
(352,91,qs),
(279,91,o),
(199,188,o),
(199,273,qs),
(199,800,l),
(85,800,l),
(85,263,ls)
);
}
);
width = 700;
}
);
note = U;
unicode = 85;
},
{
glyphname = Ugrave;
layers = (
{
layerId = m01;
shapes = (
{
closed = 1;
nodes = (
(85,128,o),
(221,-16,o),
(350,-16,qs),
(479,-16,o),
(615,128,o),
(615,263,qs),
(615,800,l),
(505,800,l),
(505,273,ls),
(505,188,o),
(425,91,o),
(352,91,qs),
(279,91,o),
(199,188,o),
(199,273,qs),
(199,800,l),
(85,800,l),
(85,263,ls)
);
},
{
closed = 1;
nodes = (
(201,1040,l),
(331,890,l),
(429,890,l),
(329,1040,l)
);
}
);
width = 700;
}
);
note = Ugrave;
unicode = 217;
},
{
glyphname = V;
layers = (
{
layerId = m01;
shapes = (
{
closed = 1;
nodes = (
(257,0,l),
(443,0,l),
(648,800,l),
(536,800,l),
(358,85,l),
(348,85,l),
(171,800,l),
(52,800,l)
);
}
);
width = 700;
}
);
note = V;
unicode = 86;
},
{
glyphname = W;
layers = (
{
layerId = m01;
shapes = (
{
closed = 1;
nodes = (
(121,0,l),
(283,0,l),
(346,533,l),
(357,533,l),
(416,0,l),
(579,0,l),
(677,800,l),
(579,800,l),
(515,264,l),
(500,80,l),
(489,80,l),
(432,600,l),
(277,600,l),
(216,80,l),
(205,80,l),
(192,264,l),
(129,800,l),
(23,800,l)
);
}
);
width = 700;
}
);
note = W;
unicode = 87;
},
{
glyphname = Wgrave;
layers = (
{
layerId = m01;
shapes = (
{
closed = 1;
nodes = (
(121,0,l),
(283,0,l),
(346,533,l),
(357,533,l),
(416,0,l),
(579,0,l),
(677,800,l),
(579,800,l),
(515,264,l),
(500,80,l),
(489,80,l),
(432,600,l),
(277,600,l),
(216,80,l),
(205,80,l),
(192,264,l),
(129,800,l),
(23,800,l)
);
},
{
closed = 1;
nodes = (
(189,1040,l),
(318,890,l),
(416,890,l),
(317,1040,l)
);
}
);
width = 700;
}
);
note = Wgrave;
unicode = 7808;
},
{
glyphname = X;
layers = (
{
layerId = m01;
shapes = (
{
closed = 1;
nodes = (
(334,281,l),
(344,332,l),
(355,332,l),
(366,281,l),
(505,0,l),
(635,0,l),
(439,391,l),
(649,800,l),
(526,800,l),
(366,489,l),
(356,440,l),
(345,440,l),
(335,489,l),
(179,800,l),
(51,800,l),
(261,385,l),
(65,0,l),
(191,0,l)
);
}
);
width = 700;
}
);
note = X;
unicode = 88;
},
{
glyphname = Y;
layers = (
{
layerId = m01;
shapes = (
{
closed = 1;
nodes = (
(293,343,l),
(293,0,l),
(407,0,l),
(407,343,l),
(659,800,l),
(544,800,l),
(368,480,l),
(358,444,l),
(348,444,l),
(337,480,l),
(164,800,l),
(41,800,l)
);
}
);
width = 700;
}
);
note = Y;
unicode = 89;
},
{
glyphname = Ygrave;
layers = (
{
layerId = m01;
shapes = (
{
closed = 1;
nodes = (
(293,343,l),
(293,0,l),
(407,0,l),
(407,343,l),
(659,800,l),
(544,800,l),
(368,480,l),
(358,444,l),
(348,444,l),
(337,480,l),
(164,800,l),
(41,800,l)
);
},
{
closed = 1;
nodes = (
(201,1040,l),
(331,890,l),
(429,890,l),
(329,1040,l)
);
}
);
width = 700;
}
);
note = Ygrave;
unicode = 7922;
},
{
glyphname = Z;
layers = (
{
layerId = m01;
shapes = (
{
closed = 1;
nodes = (
(597,107,l),
(179,107,l),
(179,117,l),
(597,607,l),
(597,800,l),
(103,800,l),
(103,693,l),
(521,693,l),
(521,683,l),
(103,193,l),
(103,0,l),
(597,0,l)
);
}
);
width = 700;
}
);
note = Z;
unicode = 90;
},
{
glyphname = Zcaron;
layers = (
{
layerId = m01;
shapes = (
{
closed = 1;
nodes = (
(597,107,l),
(179,107,l),
(179,117,l),
(597,607,l),
(597,800,l),
(103,800,l),
(103,693,l),
(521,693,l),
(521,683,l),
(103,193,l),
(103,0,l),
(597,0,l)
);
},
{
closed = 1;
nodes = (
(319,924,l),
(381,924,l),
(286,1040,l),
(190,1040,l),
(286,890,l),
(414,890,l),
(510,1040,l),
(414,1040,l)
);
}
);
width = 700;
}
);
note = Zcaron;
unicode = 381;
},
{
glyphname = a;
layers = (
{
layerId = m01;
shapes = (
{
closed = 1;
nodes = (
(203,330,o),
(107,233,o),
(107,158,qs),
(107,106,o),
(152,28,o),
(233,-15,o),
(288,-15,qs),
(344,-15,o),
(421,21,o),
(445,55,q),
(475,55,l),
(475,0,l),
(582,0,l),
(582,397,ls),
(582,502,o),
(459,616,o),
(347,616,qs),
(269,616,o),
(151,562,o),
(82,462,o),
(77,393,q),
(182,393,l),
(190,432,o),
(233,486,o),
(301,514,o),
(344,514,qs),
(405,514,o),
(475,448,o),
(475,390,qs),
(475,243,ls),
(475,200,o),
(431,129,o),
(358,87,o),
(314,87,qs),
(274,87,o),
(223,129,o),
(223,163,qs),
(223,199,o),
(264,243,o),
(306,250,qs),
(486,278,l),
(486,375,l),
(292,344,ls)
);
}
);
width = 700;
}
);
note = a;
unicode = 97;
},
{
glyphname = uni01CE;
layers = (
{
layerId = m01;
shapes = (
{
closed = 1;
nodes = (
(203,330,o),
(107,233,o),
(107,158,qs),
(107,106,o),
(152,28,o),
(233,-15,o),
(288,-15,qs),
(344,-15,o),
(421,21,o),
(445,55,q),
(475,55,l),
(475,0,l),
(582,0,l),
(582,397,ls),
(582,502,o),
(459,616,o),
(347,616,qs),
(269,616,o),
(151,562,o),
(82,462,o),
(77,393,q),
(182,393,l),
(190,432,o),
(233,486,o),
(301,514,o),
(344,514,qs),
(405,514,o),
(475,448,o),
(475,390,qs),
(475,243,ls),
(475,200,o),
(431,129,o),
(358,87,o),
(314,87,qs),
(274,87,o),
(223,129,o),
(223,163,qs),
(223,199,o),
(264,243,o),
(306,250,qs),
(486,278,l),
(486,375,l),
(292,344,ls)
);
},
{
closed = 1;
nodes = (
(314,724,l),
(376,724,l),
(281,840,l),
(185,840,l),
(281,690,l),
(409,690,l),
(505,840,l),
(409,840,l)
);
}
);
width = 700;
}
);
note = uni01CE;
unicode = 462;
},
{
glyphname = agrave;
layers = (
{
layerId = m01;
shapes = (
{
closed = 1;
nodes = (
(203,330,o),
(107,233,o),
(107,158,qs),
(107,106,o),
(152,28,o),
(233,-15,o),
(288,-15,qs),
(344,-15,o),
(421,21,o),
(445,55,q),
(475,55,l),
(475,0,l),
(582,0,l),
(582,397,ls),
(582,502,o),
(459,616,o),
(347,616,qs),
(269,616,o),
(151,562,o),
(82,462,o),
(77,393,q),
(182,393,l),
(190,432,o),
(233,486,o),
(301,514,o),
(344,514,qs),
(405,514,o),
(475,448,o),
(475,390,qs),
(475,243,ls),
(475,200,o),
(431,129,o),
(358,87,o),
(314,87,qs),
(274,87,o),
(223,129,o),
(223,163,qs),
(223,199,o),
(264,243,o),
(306,250,qs),
(486,278,l),
(486,375,l),
(292,344,ls)
);
},
{
closed = 1;
nodes = (
(196,840,l),
(325,690,l),
(423,690,l),
(324,840,l)
);
}
);
width = 700;
}
);
note = agrave;
unicode = 224;
},
{
glyphname = ae;
layers = (
{
layerId = m01;
shapes = (
{
closed = 1;
nodes = (
(664,85,o),
(674,184,q),
(573,184,l),
(563,132,o),
(525,84,o),
(495,84,qs),
(467,84,o),
(429,131,o),
(411,228,o),
(411,305,qs),
(411,379,o),
(428,472,o),
(464,516,o),
(492,516,qs),
(517,516,o),
(546,475,o),
(560,384,o),
(560,309,q),
(596,361,l),
(383,361,l),
(383,264,l),
(659,264,l),
(660,275,o),
(661,299,o),
(661,310,qs),
(661,417,o),
(626,552,o),
(553,616,o),
(496,616,qs),
(406,616,o),
(319,462,o),
(319,305,qs),
(319,140,o),
(409,-16,o),
(499,-16,qs),
(573,-16,o)
);
},
{
closed = 1;
nodes = (
(124,321,o),
(39,225,o),
(39,151,qs),
(39,74,o),
(124,-15,o),
(196,-15,qs),
(247,-15,o),
(318,27,o),
(338,69,q),
(378,69,l),
(401,103,l),
(401,397,ls),
(401,502,o),
(314,616,o),
(233,616,qs),
(142,616,o),
(35,501,o),
(26,393,q),
(129,393,l),
(141,455,o),
(190,514,o),
(229,514,qs),
(269,514,o),
(308,454,o),
(308,390,qs),
(308,223,ls),
(308,160,o),
(259,87,o),
(217,87,qs),
(189,87,o),
(154,127,o),
(154,159,qs),
(154,194,o),
(189,241,o),
(224,251,qs),
(318,278,l),
(318,375,l),
(210,345,ls)
);
}
);
width = 700;
}
);
note = ae;
unicode = 230;
},
{
glyphname = b;
layers = (
{
layerId = m01;
shapes = (
{
closed = 1;
nodes = (
(577,61,o),
(637,203,o),
(637,300,qs),
(637,397,o),
(577,539,o),
(467,616,o),
(392,616,qs),
(344,616,o),
(264,578,o),
(244,545,q),
(214,545,l),
(214,848,l),
(104,848,l),
(104,0,l),
(214,0,l),
(214,55,l),
(244,55,l),
(264,23,o),
(344,-16,o),
(392,-16,qs),
(467,-16,o)
);
},
{
closed = 1;
nodes = (
(210,199,o),
(210,300,qs),
(210,401,o),
(293,513,o),
(369,513,qs),
(444,513,o),
(527,401,o),
(527,300,qs),
(527,199,o),
(444,87,o),
(369,87,qs),
(293,87,o)
);
}
);
width = 700;
}
);
note = b;
unicode = 98;
},
{
glyphname = c;
layers = (
{
layerId = m01;
shapes = (
{
closed = 1;
nodes = (
(542,41,o),
(608,144,o),
(613,214,q),
(512,214,l),
(497,154,o),
(420,87,o),
(364,87,qs),
(289,87,o),
(205,198,o),
(205,297,qs),
(205,399,o),
(291,513,o),
(370,513,qs),
(432,513,o),
(513,437,o),
(526,368,q),
(627,368,l),
(624,444,o),
(560,555,o),
(448,616,o),
(374,616,qs),
(289,616,o),
(164,538,o),
(96,395,o),
(96,297,qs),
(96,201,o),
(162,60,o),
(282,-16,o),
(364,-16,qs),
(433,-16,o)
);
}
);
width = 700;
}
);
note = c;
unicode = 99;
},
{
glyphname = ccaron;
layers = (
{
layerId = m01;
shapes = (
{
closed = 1;
nodes = (
(542,41,o),
(608,144,o),
(613,214,q),
(512,214,l),
(497,154,o),
(420,87,o),
(364,87,qs),
(289,87,o),
(205,198,o),
(205,297,qs),
(205,399,o),
(291,513,o),
(370,513,qs),
(432,513,o),
(513,437,o),
(526,368,q),
(627,368,l),
(624,444,o),
(560,555,o),
(448,616,o),
(374,616,qs),
(289,616,o),
(164,538,o),
(96,395,o),
(96,297,qs),
(96,201,o),
(162,60,o),
(282,-16,o),
(364,-16,qs),
(433,-16,o)
);
},
{
closed = 1;
nodes = (
(341,724,l),
(403,724,l),
(308,840,l),
(212,840,l),
(308,690,l),
(436,690,l),
(532,840,l),
(436,840,l)
);
}
);
width = 700;
}
);
note = ccaron;
unicode = 269;
},
{
glyphname = d;
layers = (
{
layerId = m01;
shapes = (
{
closed = 1;
nodes = (
(437,23,o),
(456,55,q),
(486,55,l),
(486,0,l),
(596,0,l),
(596,848,l),
(486,848,l),
(486,545,l),
(456,545,l),
(437,578,o),
(357,616,o),
(308,616,qs),
(233,616,o),
(124,539,o),
(63,397,o),
(63,300,qs),
(63,203,o),
(124,61,o),
(233,-16,o),
(308,-16,qs),
(357,-16,o)
);
},
{
closed = 1;
nodes = (
(173,199,o),
(173,300,qs),
(173,401,o),
(256,513,o),
(331,513,qs),
(407,513,o),
(490,401,o),
(490,300,qs),
(490,199,o),
(407,87,o),
(331,87,qs),
(256,87,o)
);
}
);
width = 700;
}
);
note = d;
unicode = 100;
},
{
glyphname = eth;
layers = (
{
layerId = m01;
shapes = (
{
closed = 1;
nodes = (
(554,64,o),
(622,214,o),
(622,318,qs),
(622,390,o),
(575,541,o),
(488,688,o),
(369,821,o),
(295,874,q),
(210,814,l),
(277,769,o),
(396,653,o),
(430,603,q),
(419,593,l),
(404,600,o),
(362,608,o),
(341,608,qs),
(265,608,o),
(146,532,o),
(78,394,o),
(78,300,qs),
(78,204,o),
(143,62,o),
(262,-16,o),
(341,-16,qs),
(429,-16,o)
);
},
{
closed = 1;
nodes = (
(226,463,o),
(299,513,o),
(350,513,qs),
(427,513,o),
(513,401,o),
(513,300,qs),
(513,199,o),
(427,87,o),
(350,87,qs),
(273,87,o),
(187,199,o),
(187,300,qs),
(187,368,o)
);
},
{
closed = 1;
nodes = (
(545,741,l),
(524,817,l),
(166,710,l),
(187,634,l)
);
}
);
width = 700;
}
);
note = eth;
unicode = 240;
},
{
glyphname = dcaron;
layers = (
{
layerId = m01;
shapes = (
{
closed = 1;
nodes = (
(408,21,o),
(426,55,q),
(456,55,l),
(456,0,l),
(566,0,l),
(566,848,l),
(456,848,l),
(456,545,l),
(426,545,l),
(408,580,o),
(337,616,o),
(288,616,qs),
(214,616,o),
(109,542,o),
(53,400,o),
(53,300,qs),
(53,200,o),
(109,58,o),
(214,-16,o),
(288,-16,qs),
(337,-16,o)
);
},
{
closed = 1;
nodes = (
(384,87,o),
(311,87,qs),
(239,87,o),
(163,196,o),
(163,300,qs),
(163,405,o),
(239,513,o),
(311,513,qs),
(384,513,o),
(460,405,o),
(460,300,qs),
(460,196,o)
);
},
{
closed = 1;
nodes = (
(779,848,l),
(669,848,l),
(633,648,l),
(723,648,l)
);
}
);
width = 700;
}
);
note = dcaron;
unicode = 271;
},
{
glyphname = dcroat;
layers = (
{
layerId = m01;
shapes = (
{
closed = 1;
nodes = (
(680,768,l),
(340,768,l),
(340,678,l),
(680,678,l)
);
},
{
closed = 1;
nodes = (
(437,23,o),
(456,55,q),
(486,55,l),
(486,0,l),
(596,0,l),
(596,848,l),
(486,848,l),
(486,545,l),
(456,545,l),
(437,578,o),
(357,616,o),
(308,616,qs),
(233,616,o),
(124,539,o),
(63,397,o),
(63,300,qs),
(63,203,o),
(124,61,o),
(233,-16,o),
(308,-16,qs),
(357,-16,o)
);
},
{
closed = 1;
nodes = (
(173,199,o),
(173,300,qs),
(173,401,o),
(256,513,o),
(331,513,qs),
(407,513,o),
(490,401,o),
(490,300,qs),
(490,199,o),
(407,87,o),
(331,87,qs),
(256,87,o)
);
}
);
width = 700;
}
);
note = dcroat;
unicode = 273;
},
{
glyphname = e;
layers = (
{
layerId = m01;
shapes = (
{
closed = 1;
nodes = (
(603,264,l),
(604,275,o),
(605,299,o),
(605,310,qs),
(605,407,o),
(547,544,o),
(439,616,o),
(362,616,qs),
(281,616,o),
(161,540,o),
(96,401,o),
(96,305,qs),
(96,204,o),
(160,60,o),
(281,-16,o),
(365,-16,qs),
(430,-16,o),
(535,32,o),
(606,122,o),
(621,184,q),
(518,184,l),
(492,135,o),
(416,84,o),
(365,84,qs),
(287,84,o),
(203,198,o),
(203,305,qs),
(203,405,o),
(287,516,o),
(362,516,qs),
(431,516,o),
(503,410,o),
(503,309,q),
(540,361,l),
(179,361,l),
(179,264,l)
);
}
);
width = 700;
}
);
note = e;
unicode = 101;
},
{
glyphname = ecaron;
layers = (
{
layerId = m01;
shapes = (
{
closed = 1;
nodes = (
(603,264,l),
(604,275,o),
(605,299,o),
(605,310,qs),
(605,407,o),
(547,544,o),
(439,616,o),
(362,616,qs),
(281,616,o),
(161,540,o),
(96,401,o),
(96,305,qs),
(96,204,o),
(160,60,o),
(281,-16,o),
(365,-16,qs),
(430,-16,o),
(535,32,o),
(606,122,o),
(621,184,q),
(518,184,l),
(492,135,o),
(416,84,o),
(365,84,qs),
(287,84,o),
(203,198,o),
(203,305,qs),
(203,405,o),
(287,516,o),
(362,516,qs),
(431,516,o),
(503,410,o),
(503,309,q),
(540,361,l),
(179,361,l),
(179,264,l)
);
},
{
closed = 1;
nodes = (
(327,724,l),
(389,724,l),
(294,840,l),
(198,840,l),
(294,690,l),
(422,690,l),
(518,840,l),
(422,840,l)
);
}
);
width = 700;
}
);
note = ecaron;
unicode = 283;
},
{
glyphname = egrave;
layers = (
{
layerId = m01;
shapes = (
{
closed = 1;
nodes = (
(603,264,l),
(604,275,o),
(605,299,o),
(605,310,qs),
(605,407,o),
(547,544,o),
(439,616,o),
(362,616,qs),
(281,616,o),
(161,540,o),
(96,401,o),
(96,305,qs),
(96,204,o),
(160,60,o),
(281,-16,o),
(365,-16,qs),
(430,-16,o),
(535,32,o),
(606,122,o),
(621,184,q),
(518,184,l),
(492,135,o),
(416,84,o),
(365,84,qs),
(287,84,o),
(203,198,o),
(203,305,qs),
(203,405,o),
(287,516,o),
(362,516,qs),
(431,516,o),
(503,410,o),
(503,309,q),
(540,361,l),
(179,361,l),
(179,264,l)
);
},
{
closed = 1;
nodes = (
(209,840,l),
(339,690,l),
(437,690,l),
(337,840,l)
);
}
);
width = 700;
}
);
note = egrave;
unicode = 232;
},
{
glyphname = uni0259;
layers = (
{
layerId = m01;
shapes = (
{
closed = 1;
nodes = (
(97,336,l),
(96,326,o),
(95,301,o),
(95,290,qs),
(95,193,o),
(153,56,o),
(262,-16,o),
(338,-16,qs),
(420,-16,o),
(539,60,o),
(604,200,o),
(604,295,qs),
(604,397,o),
(540,540,o),
(420,616,o),
(335,616,qs),
(270,616,o),
(165,568,o),
(94,478,o),
(79,416,q),
(182,416,l),
(208,465,o),
(285,516,o),
(335,516,qs),
(414,516,o),
(497,403,o),
(497,295,qs),
(497,196,o),
(413,84,o),
(338,84,qs),
(270,84,o),
(197,191,o),
(197,291,q),
(160,239,l),
(521,239,l),
(521,336,l)
);
}
);
width = 700;
}
);
note = uni0259;
unicode = 601;
},
{
glyphname = f;
layers = (
{
layerId = m01;
shapes = (
{
closed = 1;
nodes = (
(603,497,l),
(603,600,l),
(375,600,l),
(375,658,ls),
(375,708,o),
(423,762,o),
(467,762,qs),
(504,762,o),
(555,725,o),
(569,690,q),
(669,690,l),
(664,772,o),
(557,864,o),
(467,864,qs),
(372,864,o),
(265,758,o),
(265,665,qs),
(265,600,l),
(131,600,l),
(131,497,l),
(265,497,l),
(265,0,l),
(375,0,l),
(375,497,l)
);
}
);
width = 700;
}
);
note = f;
unicode = 102;
},
{
glyphname = g;
layers = (
{
layerId = m01;
shapes = (
{
closed = 1;
nodes = (
(488,600,l),
(488,550,l),
(458,550,l),
(439,580,o),
(363,616,o),
(318,616,qs),
(245,616,o),
(137,544,o),
(79,411,o),
(79,320,qs),
(79,231,o),
(137,99,o),
(245,28,o),
(318,28,qs),
(362,28,o),
(438,62,o),
(458,91,q),
(488,91,l),
(488,27,ls),
(488,-41,o),
(408,-116,o),
(336,-116,qs),
(278,-116,o),
(198,-68,o),
(182,-23,q),
(77,-23,l),
(80,-82,o),
(146,-169,o),
(260,-216,o),
(336,-216,qs),
(418,-216,o),
(535,-158,o),
(598,-52,o),
(598,20,qs),
(598,600,l)
);
},
{
closed = 1;
nodes = (
(269,513,o),
(341,513,qs),
(414,513,o),
(495,411,o),
(495,320,qs),
(495,229,o),
(414,127,o),
(341,127,qs),
(269,127,o),
(188,229,o),
(188,320,qs),
(188,411,o)
);
}
);
width = 700;
}
);
note = g;
unicode = 103;
},
{
glyphname = gcaron;
layers = (
{
layerId = m01;
shapes = (
{
closed = 1;
nodes = (
(488,600,l),
(488,550,l),
(458,550,l),
(439,580,o),
(363,616,o),
(318,616,qs),
(245,616,o),
(137,544,o),
(79,411,o),
(79,320,qs),
(79,231,o),
(137,99,o),
(245,28,o),
(318,28,qs),
(362,28,o),
(438,62,o),
(458,91,q),
(488,91,l),
(488,27,ls),
(488,-41,o),
(408,-116,o),
(336,-116,qs),
(278,-116,o),
(198,-68,o),
(182,-23,q),
(77,-23,l),
(80,-82,o),
(146,-169,o),
(260,-216,o),
(336,-216,qs),
(418,-216,o),
(535,-158,o),
(598,-52,o),
(598,20,qs),
(598,600,l)
);
},
{
closed = 1;
nodes = (
(269,513,o),
(341,513,qs),
(414,513,o),
(495,411,o),
(495,320,qs),
(495,229,o),
(414,127,o),
(341,127,qs),
(269,127,o),
(188,229,o),
(188,320,qs),
(188,411,o)
);
},
{
closed = 1;
nodes = (
(329,724,l),
(391,724,l),
(296,840,l),
(200,840,l),
(296,690,l),
(424,690,l),
(520,840,l),
(424,840,l)
);
}
);
width = 700;
}
);
note = gcaron;
unicode = 487;
},
{
glyphname = uni0123;
layers = (
{
layerId = m01;
shapes = (
{
closed = 1;
nodes = (
(488,600,l),
(488,550,l),
(458,550,l),
(439,580,o),
(363,616,o),
(318,616,qs),
(245,616,o),
(137,544,o),
(79,411,o),
(79,320,qs),
(79,231,o),
(137,99,o),
(245,28,o),
(318,28,qs),
(362,28,o),
(438,62,o),
(458,91,q),
(488,91,l),
(488,27,ls),
(488,-41,o),
(408,-116,o),
(336,-116,qs),
(278,-116,o),
(198,-68,o),
(182,-23,q),
(77,-23,l),
(80,-82,o),
(146,-169,o),
(260,-216,o),
(336,-216,qs),
(418,-216,o),
(535,-158,o),
(598,-52,o),
(598,20,qs),
(598,600,l)
);
},
{
closed = 1;
nodes = (
(269,513,o),
(341,513,qs),
(414,513,o),
(495,411,o),
(495,320,qs),
(495,229,o),
(414,127,o),
(341,127,qs),
(269,127,o),
(188,229,o),
(188,320,qs),
(188,411,o)
);
},
{
closed = 1;
nodes = (
(295,740,o),
(295,715,qs),
(295,690,o),
(330,660,o),
(359,660,qs),
(389,660,o),
(424,690,o),
(424,715,qs),
(424,740,o),
(389,770,o),
(359,770,qs),
(330,770,o)
);
},
{
closed = 1;
nodes = (
(312,822,o),
(291,759,o),
(291,730,qs),
(291,696,o),
(327,660,o),
(359,660,q),
(359,762,ls),
(359,779,o),
(395,827,o),
(429,850,q),
(331,850,l)
);
}
);
width = 700;
}
);
note = uni0123;
unicode = 291;
},
{
glyphname = h;
layers = (
{
layerId = m01;
shapes = (
{
closed = 1;
nodes = (
(223,359,ls),
(223,434,o),
(291,511,o),
(356,511,qs),
(421,511,o),
(488,434,o),
(488,359,qs),
(488,0,l),
(598,0,l),
(598,389,ls),
(598,458,o),
(546,560,o),
(454,616,o),
(391,616,qs),
(348,616,o),
(276,584,o),
(253,555,q),
(223,555,l),
(223,848,l),
(113,848,l),
(113,0,l),
(223,0,l)
);
}
);
width = 700;
}
);
note = h;
unicode = 104;
},
{
glyphname = hbar;
layers = (
{
layerId = m01;
shapes = (
{
closed = 1;
nodes = (
(369,768,l),
(29,768,l),
(29,678,l),
(369,678,l)
);
},
{
closed = 1;
nodes = (
(223,359,ls),
(223,434,o),
(291,511,o),
(356,511,qs),
(421,511,o),
(488,434,o),
(488,359,qs),
(488,0,l),
(598,0,l),
(598,389,ls),
(598,458,o),
(546,560,o),
(454,616,o),
(391,616,qs),
(348,616,o),
(276,584,o),
(253,555,q),
(223,555,l),
(223,848,l),
(113,848,l),
(113,0,l),
(223,0,l)
);
}
);
width = 700;
}
);
note = hbar;
unicode = 295;
},
{
glyphname = dotlessi;
layers = (
{
layerId = m01;
shapes = (
{
closed = 1;
nodes = (
(327,497,l),
(327,103,l),
(145,103,l),
(145,0,l),
(618,0,l),
(618,103,l),
(437,103,l),
(437,600,l),
(145,600,l),
(145,497,l)
);
}
);
width = 700;
}
);
note = dotlessi;
unicode = 305;
},
{
glyphname = igrave;
layers = (
{
layerId = m01;
shapes = (
{
closed = 1;
nodes = (
(327,497,l),
(327,103,l),
(145,103,l),
(145,0,l),
(618,0,l),
(618,103,l),
(437,103,l),
(437,600,l),
(145,600,l),
(145,497,l)
);
},
{
closed = 1;
nodes = (
(195,840,l),
(325,690,l),
(423,690,l),
(323,840,l)
);
}
);
width = 700;
}
);
note = igrave;
unicode = 236;
},
{
glyphname = ij;
layers = (
{
layerId = m01;
shapes = (
{
closed = 1;
nodes = (
(107,0,l),
(217,0,l),
(217,600,l),
(107,600,l)
);
},
{
closed = 1;
nodes = (
(245,732,o),
(245,770,qs),
(245,808,o),
(201,851,o),
(162,851,qs),
(123,851,o),
(78,808,o),
(78,770,qs),
(78,732,o),
(123,689,o),
(162,689,qs),
(201,689,o)
);
},
{
closed = 1;
nodes = (
(483,-13,ls),
(483,-61,o),
(435,-115,o),
(391,-115,qs),
(317,-115,l),
(317,-216,l),
(391,-216,ls),
(488,-216,o),
(593,-113,o),
(593,-19,qs),
(593,600,l),
(483,600,l)
);
},
{
closed = 1;
nodes = (
(622,732,o),
(622,770,qs),
(622,808,o),
(577,851,o),
(538,851,qs),
(499,851,o),
(455,808,o),
(455,770,qs),
(455,732,o),
(499,689,o),
(538,689,qs),
(577,689,o)
);
}
);
width = 700;
}
);
note = ij;
unicode = 307;
},
{
glyphname = uni0237;
layers = (
{
layerId = m01;
shapes = (
{
closed = 1;
nodes = (
(392,497,l),
(392,-13,ls),
(392,-61,o),
(344,-115,o),
(300,-115,qs),
(263,-115,o),
(214,-80,o),
(200,-46,q),
(98,-46,l),
(104,-127,o),
(210,-216,o),
(300,-216,qs),
(397,-216,o),
(502,-113,o),
(502,-19,qs),
(502,600,l),
(132,600,l),
(132,497,l)
);
}
);
width = 700;
}
);
note = uni0237;
unicode = 567;
},
{
glyphname = k;
layers = (
{
layerId = m01;
shapes = (
{
closed = 1;
nodes = (
(377,296,l),
(642,600,l),
(503,600,l),
(237,292,l),
(494,0,l),
(639,0,l)
);
},
{
closed = 1;
nodes = (
(270,848,l),
(160,848,l),
(160,0,l),
(270,0,l)
);
}
);
width = 700;
}
);
note = k;
unicode = 107;
},
{
glyphname = l;
layers = (
{
layerId = m01;
shapes = (
{
closed = 1;
nodes = (
(312,745,l),
(312,103,l),
(130,103,l),
(130,0,l),
(603,0,l),
(603,103,l),
(422,103,l),
(422,848,l),
(130,848,l),
(130,745,l)
);
}
);
width = 700;
}
);
note = l;
unicode = 108;
},
{
glyphname = lslash;
layers = (
{
layerId = m01;
shapes = (
{
closed = 1;
nodes = (
(550,612,l),
(157,397,l),
(157,293,l),
(550,509,l)
);
},
{
closed = 1;
nodes = (
(312,745,l),
(312,103,l),
(130,103,l),
(130,0,l),
(603,0,l),
(603,103,l),
(422,103,l),
(422,848,l),
(130,848,l),
(130,745,l)
);
}
);
width = 700;
}
);
note = lslash;
unicode = 322;
},
{
glyphname = m;
layers = (
{
layerId = m01;
shapes = (
{
closed = 1;
nodes = (
(181,0,l),
(181,413,ls),
(181,454,o),
(211,495,o),
(241,495,qs),
(270,495,o),
(300,454,o),
(300,413,qs),
(300,0,l),
(404,0,l),
(404,413,ls),
(404,454,o),
(434,495,o),
(463,495,qs),
(493,495,o),
(523,454,o),
(523,413,qs),
(523,0,l),
(628,0,l),
(628,456,ls),
(628,529,o),
(565,616,o),
(513,616,qs),
(469,616,o),
(412,561,o),
(409,515,q),
(465,547,l),
(336,547,l),
(398,505,l),
(392,556,o),
(340,616,o),
(301,616,qs),
(260,616,o),
(209,563,o),
(206,517,q),
(265,552,l),
(186,552,l),
(186,600,l),
(76,600,l),
(76,0,l)
);
}
);
width = 700;
}
);
note = m;
unicode = 109;
},
{
glyphname = n;
layers = (
{
layerId = m01;
shapes = (
{
closed = 1;
nodes = (
(223,359,ls),
(223,434,o),
(291,511,o),
(356,511,qs),
(421,511,o),
(488,434,o),
(488,359,qs),
(488,0,l),
(598,0,l),
(598,389,ls),
(598,458,o),
(546,560,o),
(454,616,o),
(391,616,qs),
(348,616,o),
(276,584,o),
(253,555,q),
(223,555,l),
(223,600,l),
(113,600,l),
(113,0,l),
(223,0,l)
);
}
);
width = 700;
}
);
note = n;
unicode = 110;
},
{
glyphname = ncaron;
layers = (
{
layerId = m01;
shapes = (
{
closed = 1;
nodes = (
(223,359,ls),
(223,434,o),
(291,511,o),
(356,511,qs),
(421,511,o),
(488,434,o),
(488,359,qs),
(488,0,l),
(598,0,l),
(598,389,ls),
(598,458,o),
(546,560,o),
(454,616,o),
(391,616,qs),
(348,616,o),
(276,584,o),
(253,555,q),
(223,555,l),
(223,600,l),
(113,600,l),
(113,0,l),
(223,0,l)
);
},
{
closed = 1;
nodes = (
(319,724,l),
(381,724,l),
(286,840,l),
(190,840,l),
(286,690,l),
(414,690,l),
(510,840,l),
(414,840,l)
);
}
);
width = 700;
}
);
note = ncaron;
unicode = 328;
},
{
glyphname = uni0272;
layers = (
{
layerId = m01;
shapes = (
{
closed = 1;
nodes = (
(129,-216,o),
(223,-118,o),
(223,-20,qs),
(223,0,l),
(168,20,l),
(113,0,l),
(113,-26,ls),
(113,-122,o),
(34,-122,qs),
(18,-122,l),
(18,-216,l),
(35,-216,ls)
);
},
{
closed = 1;
nodes = (
(223,359,ls),
(223,434,o),
(291,511,o),
(356,511,qs),
(421,511,o),
(488,434,o),
(488,359,qs),
(488,0,l),
(598,0,l),
(598,389,ls),
(598,458,o),
(546,560,o),
(454,616,o),
(391,616,qs),
(348,616,o),
(276,584,o),
(253,555,q),
(223,555,l),
(223,600,l),
(113,600,l),
(113,0,l),
(223,0,l)
);
}
);
width = 700;
}
);
note = uni0272;
unicode = 626;
},
{
glyphname = eng;
layers = (
{
layerId = m01;
shapes = (
{
closed = 1;
nodes = (
(504,-216,o),
(598,-118,o),
(598,-20,qs),
(598,0,l),
(543,20,l),
(488,0,l),
(488,-26,ls),
(488,-122,o),
(408,-122,qs),
(393,-122,l),
(393,-216,l),
(410,-216,ls)
);
},
{
closed = 1;
nodes = (
(223,359,ls),
(223,434,o),
(291,511,o),
(356,511,qs),
(421,511,o),
(488,434,o),
(488,359,qs),
(488,0,l),
(598,0,l),
(598,389,ls),
(598,458,o),
(546,560,o),
(454,616,o),
(391,616,qs),
(348,616,o),
(276,584,o),
(253,555,q),
(223,555,l),
(223,600,l),
(113,600,l),
(113,0,l),
(223,0,l)
);
}
);
width = 700;
}
);
note = eng;
unicode = 331;
},
{
glyphname = o;
layers = (
{
layerId = m01;
shapes = (
{
closed = 1;
nodes = (
(555,61,o),
(622,203,o),
(622,300,qs),
(622,397,o),
(555,539,o),
(434,616,o),
(350,616,qs),
(267,616,o),
(145,539,o),
(78,397,o),
(78,300,qs),
(78,203,o),
(145,61,o),
(267,-16,o),
(350,-16,qs),
(434,-16,o)
);
},
{
closed = 1;
nodes = (
(187,199,o),
(187,300,qs),
(187,401,o),
(273,513,o),
(350,513,qs),
(427,513,o),
(513,401,o),
(513,300,qs),
(513,199,o),
(427,87,o),
(350,87,qs),
(273,87,o)
);
}
);
width = 700;
}
);
note = o;
unicode = 111;
},
{
glyphname = ograve;
layers = (
{
layerId = m01;
shapes = (
{
closed = 1;
nodes = (
(555,61,o),
(622,203,o),
(622,300,qs),
(622,397,o),
(555,539,o),
(434,616,o),
(350,616,qs),
(267,616,o),
(145,539,o),
(78,397,o),
(78,300,qs),
(78,203,o),
(145,61,o),
(267,-16,o),
(350,-16,qs),
(434,-16,o)
);
},
{
closed = 1;
nodes = (
(187,199,o),
(187,300,qs),
(187,401,o),
(273,513,o),
(350,513,qs),
(427,513,o),
(513,401,o),
(513,300,qs),
(513,199,o),
(427,87,o),
(350,87,qs),
(273,87,o)
);
},
{
closed = 1;
nodes = (
(201,840,l),
(331,690,l),
(429,690,l),
(329,840,l)
);
}
);
width = 700;
}
);
note = ograve;
unicode = 242;
},
{
glyphname = oslash;
layers = (
{
layerId = m01;
shapes = (
{
closed = 1;
nodes = (
(184,-16,l),
(622,616,l),
(516,616,l),
(78,-16,l)
);
},
{
closed = 1;
nodes = (
(555,61,o),
(622,203,o),
(622,300,qs),
(622,397,o),
(555,539,o),
(434,616,o),
(350,616,qs),
(267,616,o),
(145,539,o),
(78,397,o),
(78,300,qs),
(78,203,o),
(145,61,o),
(267,-16,o),
(350,-16,qs),
(434,-16,o)
);
},
{
closed = 1;
nodes = (
(187,199,o),
(187,300,qs),
(187,401,o),
(273,513,o),
(350,513,qs),
(427,513,o),
(513,401,o),
(513,300,qs),
(513,199,o),
(427,87,o),
(350,87,qs),
(273,87,o)
);
}
);
width = 700;
}
);
note = oslash;
unicode = 248;
},
{
glyphname = oe;
layers = (
{
layerId = m01;
shapes = (
{
closed = 1;
nodes = (
(372,52,o),
(411,192,o),
(411,300,qs),
(411,408,o),
(372,548,o),
(291,616,o),
(227,616,qs),
(165,616,o),
(83,548,o),
(44,408,o),
(44,300,qs),
(44,192,o),
(83,52,o),
(165,-16,o),
(227,-16,qs),
(291,-16,o)
);
},
{
closed = 1;
nodes = (
(170,132,o),
(153,226,o),
(153,300,qs),
(153,375,o),
(170,468,o),
(206,513,o),
(234,513,qs),
(262,513,o),
(298,468,o),
(315,375,o),
(315,300,qs),
(315,226,o),
(298,132,o),
(262,87,o),
(234,87,qs),
(206,87,o)
);
},
{
closed = 1;
nodes = (
(664,85,o),
(674,184,q),
(573,184,l),
(564,134,o),
(527,84,o),
(501,84,qs),
(473,84,o),
(438,131,o),
(421,228,o),
(421,305,qs),
(421,379,o),
(437,472,o),
(471,516,o),
(497,516,qs),
(520,516,o),
(548,475,o),
(560,385,o),
(560,309,q),
(596,361,l),
(391,361,l),
(391,264,l),
(659,264,l),
(660,275,o),
(661,299,o),
(661,310,qs),
(661,421,o),
(628,555,o),
(557,616,o),
(500,616,qs),
(441,616,o),
(364,549,o),
(327,412,o),
(327,305,qs),
(327,195,o),
(364,53,o),
(443,-16,o),
(503,-16,qs),
(577,-16,o)
);
}
);
width = 700;
}
);
note = oe;
unicode = 339;
},
{
glyphname = p;
layers = (
{
layerId = m01;
shapes = (
{
closed = 1;
nodes = (
(214,55,l),
(244,55,l),
(264,23,o),
(344,-16,o),
(392,-16,qs),
(467,-16,o),
(577,61,o),
(637,203,o),
(637,300,qs),
(637,397,o),
(577,539,o),
(467,616,o),
(392,616,qs),
(344,616,o),
(264,578,o),
(244,545,q),
(214,545,l),
(214,600,l),
(104,600,l),
(104,-200,l),
(214,-200,l)
);
},
{
closed = 1;
nodes = (
(210,199,o),
(210,300,qs),
(210,401,o),
(293,513,o),
(369,513,qs),
(444,513,o),
(527,401,o),
(527,300,qs),
(527,199,o),
(444,87,o),
(369,87,qs),
(293,87,o)
);
}
);
width = 700;
}
);
note = p;
unicode = 112;
},
{
glyphname = thorn;
layers = (
{
layerId = m01;
shapes = (
{
closed = 1;
nodes = (
(577,61,o),
(637,203,o),
(637,300,qs),
(637,397,o),
(577,539,o),
(467,616,o),
(392,616,qs),
(344,616,o),
(264,578,o),
(244,545,q),
(214,545,l),
(214,848,l),
(104,848,l),
(104,-200,l),
(214,-200,l),
(214,55,l),
(244,55,l),
(264,23,o),
(344,-16,o),
(392,-16,qs),
(467,-16,o)
);
},
{
closed = 1;
nodes = (
(293,513,o),
(369,513,qs),
(444,513,o),
(527,401,o),
(527,300,qs),
(527,199,o),
(444,87,o),
(369,87,qs),
(293,87,o),
(210,199,o),
(210,300,qs),
(210,401,o)
);
}
);
width = 700;
}
);
note = thorn;
unicode = 254;
},
{
glyphname = q;
layers = (
{
layerId = m01;
shapes = (
{
closed = 1;
nodes = (
(596,600,l),
(486,600,l),
(486,545,l),
(456,545,l),
(437,578,o),
(357,616,o),
(308,616,qs),
(233,616,o),
(124,539,o),
(63,397,o),
(63,300,qs),
(63,203,o),
(124,61,o),
(233,-16,o),
(308,-16,qs),
(357,-16,o),
(437,23,o),
(456,55,q),
(486,55,l),
(486,-200,l),
(596,-200,l)
);
},
{
closed = 1;
nodes = (
(173,199,o),
(173,300,qs),
(173,401,o),
(256,513,o),
(331,513,qs),
(407,513,o),
(490,401,o),
(490,300,qs),
(490,199,o),
(407,87,o),
(331,87,qs),
(256,87,o)
);
}
);
width = 700;
}
);
note = q;
unicode = 113;
},
{
glyphname = r;
layers = (
{
layerId = m01;
shapes = (
{
closed = 1;
nodes = (
(226,497,l),
(226,103,l),
(113,103,l),
(113,0,l),
(522,0,l),
(522,103,l),
(336,103,l),
(336,327,ls),
(336,419,o),
(387,512,o),
(439,512,qs),
(521,512,o),
(521,411,qs),
(521,340,l),
(635,340,l),
(635,427,ls),
(635,515,o),
(551,616,o),
(479,616,qs),
(439,616,o),
(377,585,o),
(359,556,q),
(329,556,l),
(329,600,l),
(95,600,l),
(95,497,l)
);
}
);
width = 700;
}
);
note = r;
unicode = 114;
},
{
glyphname = rcaron;
layers = (
{
layerId = m01;
shapes = (
{
closed = 1;
nodes = (
(226,497,l),
(226,103,l),
(113,103,l),
(113,0,l),
(522,0,l),
(522,103,l),
(336,103,l),
(336,327,ls),
(336,419,o),
(387,512,o),
(439,512,qs),
(521,512,o),
(521,411,qs),
(521,340,l),
(635,340,l),
(635,427,ls),
(635,515,o),
(551,616,o),
(479,616,qs),
(439,616,o),
(377,585,o),
(359,556,q),
(329,556,l),
(329,600,l),
(95,600,l),
(95,497,l)
);
},
{
closed = 1;
nodes = (
(339,724,l),
(401,724,l),
(306,840,l),
(210,840,l),
(306,690,l),
(434,690,l),
(530,840,l),
(434,840,l)
);
}
);
width = 700;
}
);
note = rcaron;
unicode = 345;
},
{
glyphname = s;
layers = (
{
layerId = m01;
shapes = (
{
closed = 1;
nodes = (
(115,90,o),
(244,-16,o),
(356,-16,qs),
(429,-16,o),
(533,29,o),
(590,113,o),
(590,171,qs),
(590,248,o),
(497,334,o),
(398,349,qs),
(325,360,ls),
(274,367,o),
(222,403,o),
(222,430,qs),
(222,470,o),
(290,513,o),
(353,513,qs),
(416,513,o),
(494,457,o),
(508,404,q),
(608,404,l),
(604,504,o),
(470,616,o),
(355,616,qs),
(242,616,o),
(113,516,o),
(113,429,qs),
(113,352,o),
(207,266,o),
(305,251,qs),
(378,240,ls),
(429,233,o),
(481,197,o),
(481,170,qs),
(481,130,o),
(417,87,o),
(357,87,qs),
(299,87,o),
(225,137,o),
(211,184,q),
(109,184,l)
);
}
);
width = 700;
}
);
note = s;
unicode = 115;
},
{
glyphname = uniA78C;
layers = (
{
layerId = m01;
shapes = (
{
closed = 1;
nodes = (
(414,590,l),
(414,760,l),
(314,760,l),
(314,380,l),
(394,380,l)
);
}
);
width = 700;
}
);
note = uniA78C;
unicode = 42892;
},
{
glyphname = scaron;
layers = (
{
layerId = m01;
shapes = (
{
closed = 1;
nodes = (
(115,90,o),
(244,-16,o),
(356,-16,qs),
(429,-16,o),
(533,29,o),
(590,113,o),
(590,171,qs),
(590,248,o),
(497,334,o),
(398,349,qs),
(325,360,ls),
(274,367,o),
(222,403,o),
(222,430,qs),
(222,470,o),
(290,513,o),
(353,513,qs),
(416,513,o),
(494,457,o),
(508,404,q),
(608,404,l),
(604,504,o),
(470,616,o),
(355,616,qs),
(242,616,o),
(113,516,o),
(113,429,qs),
(113,352,o),
(207,266,o),
(305,251,qs),
(378,240,ls),
(429,233,o),
(481,197,o),
(481,170,qs),
(481,130,o),
(417,87,o),
(357,87,qs),
(299,87,o),
(225,137,o),
(211,184,q),
(109,184,l)
);
},
{
closed = 1;
nodes = (
(327,724,l),
(389,724,l),
(294,840,l),
(198,840,l),
(294,690,l),
(422,690,l),
(518,840,l),
(422,840,l)
);
}
);
width = 700;
}
);
note = scaron;
unicode = 353;
},
{
glyphname = germandbls;
layers = (
{
layerId = m01;
shapes = (
{
closed = 1;
nodes = (
(376,103,ls),
(443,103,o),
(523,183,o),
(523,250,qs),
(523,318,o),
(444,397,o),
(376,397,qs),
(318,397,l),
(318,495,l),
(349,495,ls),
(403,495,o),
(465,567,o),
(465,628,qs),
(465,687,o),
(401,761,o),
(349,761,qs),
(285,761,o),
(214,665,o),
(214,578,qs),
(214,0,l),
(104,0,l),
(104,588,ls),
(104,719,o),
(233,864,o),
(349,864,qs),
(415,864,o),
(517,807,o),
(575,705,o),
(575,638,qs),
(575,583,o),
(529,497,o),
(490,476,q),
(490,458,l),
(558,444,o),
(637,328,o),
(637,242,qs),
(637,169,o),
(577,60,o),
(469,0,o),
(396,0,qs),
(318,0,l),
(318,103,l)
);
}
);
width = 700;
}
);
note = germandbls;
unicode = 223;
},
{
glyphname = t;
layers = (
{
layerId = m01;
shapes = (
{
closed = 1;
nodes = (
(213,600,l),
(81,600,l),
(81,497,l),
(213,497,l),
(213,193,ls),
(213,94,o),
(313,-16,o),
(405,-16,qs),
(500,-16,o),
(606,100,o),
(611,210,q),
(514,210,l),
(502,148,o),
(453,87,o),
(409,87,qs),
(367,87,o),
(323,144,o),
(323,197,qs),
(323,497,l),
(593,497,l),
(593,600,l),
(323,600,l),
(323,756,l),
(213,756,l)
);
}
);
width = 700;
}
);
note = t;
unicode = 116;
},
{
glyphname = tbar;
layers = (
{
layerId = m01;
shapes = (
{
closed = 1;
nodes = (
(213,600,l),
(81,600,l),
(81,497,l),
(213,497,l),
(213,193,ls),
(213,94,o),
(313,-16,o),
(405,-16,qs),
(500,-16,o),
(606,100,o),
(611,210,q),
(514,210,l),
(502,148,o),
(453,87,o),
(409,87,qs),
(367,87,o),
(323,144,o),
(323,197,qs),
(323,497,l),
(593,497,l),
(593,600,l),
(323,600,l),
(323,756,l),
(213,756,l)
);
},
{
closed = 1;
nodes = (
(573,416,l),
(81,416,l),
(81,324,l),
(573,324,l)
);
}
);
width = 700;
}
);
note = tbar;
unicode = 359;
},
{
glyphname = u;
layers = (
{
layerId = m01;
shapes = (
{
closed = 1;
nodes = (
(477,241,ls),
(477,166,o),
(409,89,o),
(344,89,qs),
(279,89,o),
(212,166,o),
(212,241,qs),
(212,600,l),
(102,600,l),
(102,211,ls),
(102,142,o),
(154,40,o),
(247,-16,o),
(309,-16,qs),
(353,-16,o),
(424,16,o),
(447,45,q),
(477,45,l),
(477,0,l),
(587,0,l),
(587,600,l),
(477,600,l)
);
}
);
width = 700;
}
);
note = u;
unicode = 117;
},
{
glyphname = uacute;
layers = (
{
layerId = m01;
shapes = (
{
closed = 1;
nodes = (
(477,241,ls),
(477,166,o),
(409,89,o),
(344,89,qs),
(279,89,o),
(212,166,o),
(212,241,qs),
(212,600,l),
(102,600,l),
(102,211,ls),
(102,142,o),
(154,40,o),
(247,-16,o),
(309,-16,qs),
(353,-16,o),
(424,16,o),
(447,45,q),
(477,45,l),
(477,0,l),
(587,0,l),
(587,600,l),
(477,600,l)
);
},
{
closed = 1;
nodes = (
(499,840,l),
(371,840,l),
(271,690,l),
(369,690,l)
);
}
);
width = 700;
}
);
note = uacute;
unicode = 250;
},
{
glyphname = ubreve;
layers = (
{
layerId = m01;
shapes = (
{
closed = 1;
nodes = (
(477,241,ls),
(477,166,o),
(409,89,o),
(344,89,qs),
(279,89,o),
(212,166,o),
(212,241,qs),
(212,600,l),
(102,600,l),
(102,211,ls),
(102,142,o),
(154,40,o),
(247,-16,o),
(309,-16,qs),
(353,-16,o),
(424,16,o),
(447,45,q),
(477,45,l),
(477,0,l),
(587,0,l),
(587,600,l),
(477,600,l)
);
},
{
closed = 1;
nodes = (
(185,756,o),
(271,680,o),
(350,680,qs),
(429,680,o),
(515,756,o),
(521,830,q),
(424,830,l),
(421,793,o),
(384,756,o),
(350,756,qs),
(317,756,o),
(279,793,o),
(276,830,q),
(179,830,l)
);
}
);
width = 700;
}
);
note = ubreve;
unicode = 365;
},
{
glyphname = ucircumflex;
layers = (
{
layerId = m01;
shapes = (
{
closed = 1;
nodes = (
(477,241,ls),
(477,166,o),
(409,89,o),
(344,89,qs),
(279,89,o),
(212,166,o),
(212,241,qs),
(212,600,l),
(102,600,l),
(102,211,ls),
(102,142,o),
(154,40,o),
(247,-16,o),
(309,-16,qs),
(353,-16,o),
(424,16,o),
(447,45,q),
(477,45,l),
(477,0,l),
(587,0,l),
(587,600,l),
(477,600,l)
);
},
{
closed = 1;
nodes = (
(381,806,l),
(319,806,l),
(414,690,l),
(510,690,l),
(414,840,l),
(286,840,l),
(190,690,l),
(286,690,l)
);
}
);
width = 700;
}
);
note = ucircumflex;
unicode = 251;
},
{
glyphname = udieresis;
layers = (
{
layerId = m01;
shapes = (
{
closed = 1;
nodes = (
(477,241,ls),
(477,166,o),
(409,89,o),
(344,89,qs),
(279,89,o),
(212,166,o),
(212,241,qs),
(212,600,l),
(102,600,l),
(102,211,ls),
(102,142,o),
(154,40,o),
(247,-16,o),
(309,-16,qs),
(353,-16,o),
(424,16,o),
(447,45,q),
(477,45,l),
(477,0,l),
(587,0,l),
(587,600,l),
(477,600,l)
);
},
{
closed = 1;
nodes = (
(304,737,o),
(304,770,qs),
(304,803,o),
(264,842,o),
(229,842,qs),
(194,842,o),
(154,803,o),
(154,770,qs),
(154,737,o),
(194,698,o),
(229,698,qs),
(264,698,o)
);
},
{
closed = 1;
nodes = (
(546,737,o),
(546,770,qs),
(546,803,o),
(506,842,o),
(471,842,qs),
(436,842,o),
(396,803,o),
(396,770,qs),
(396,737,o),
(436,698,o),
(471,698,qs),
(506,698,o)
);
}
);
width = 700;
}
);
note = udieresis;
unicode = 252;
},
{
glyphname = uni1EE5;
layers = (
{
layerId = m01;
shapes = (
{
closed = 1;
nodes = (
(477,241,ls),
(477,166,o),
(409,89,o),
(344,89,qs),
(279,89,o),
(212,166,o),
(212,241,qs),
(212,600,l),
(102,600,l),
(102,211,ls),
(102,142,o),
(154,40,o),
(247,-16,o),
(309,-16,qs),
(353,-16,o),
(424,16,o),
(447,45,q),
(477,45,l),
(477,0,l),
(587,0,l),
(587,600,l),
(477,600,l)
);
},
{
closed = 1;
nodes = (
(437,-208,o),
(437,-170,qs),
(437,-132,o),
(392,-89,o),
(353,-89,qs),
(314,-89,o),
(270,-132,o),
(270,-170,qs),
(270,-208,o),
(314,-251,o),
(353,-251,qs),
(392,-251,o)
);
}
);
width = 700;
}
);
note = uni1EE5;
unicode = 7909;
},
{
glyphname = ugrave;
layers = (
{
layerId = m01;
shapes = (
{
closed = 1;
nodes = (
(477,241,ls),
(477,166,o),
(409,89,o),
(344,89,qs),
(279,89,o),
(212,166,o),
(212,241,qs),
(212,600,l),
(102,600,l),
(102,211,ls),
(102,142,o),
(154,40,o),
(247,-16,o),
(309,-16,qs),
(353,-16,o),
(424,16,o),
(447,45,q),
(477,45,l),
(477,0,l),
(587,0,l),
(587,600,l),
(477,600,l)
);
},
{
closed = 1;
nodes = (
(201,840,l),
(331,690,l),
(429,690,l),
(329,840,l)
);
}
);
width = 700;
}
);
note = ugrave;
unicode = 249;
},
{
glyphname = uhungarumlaut;
layers = (
{
layerId = m01;
shapes = (
{
closed = 1;
nodes = (
(477,241,ls),
(477,166,o),
(409,89,o),
(344,89,qs),
(279,89,o),
(212,166,o),
(212,241,qs),
(212,600,l),
(102,600,l),
(102,211,ls),
(102,142,o),
(154,40,o),
(247,-16,o),
(309,-16,qs),
(353,-16,o),
(424,16,o),
(447,45,q),
(477,45,l),
(477,0,l),
(587,0,l),
(587,600,l),
(477,600,l)
);
},
{
closed = 1;
nodes = (
(391,840,l),
(267,840,l),
(181,690,l),
(275,690,l)
);
},
{
closed = 1;
nodes = (
(618,840,l),
(486,840,l),
(370,690,l),
(472,690,l)
);
}
);
width = 700;
}
);
note = uhungarumlaut;
unicode = 369;
},
{
glyphname = umacron;
layers = (
{
layerId = m01;
shapes = (
{
closed = 1;
nodes = (
(477,241,ls),
(477,166,o),
(409,89,o),
(344,89,qs),
(279,89,o),
(212,166,o),
(212,241,qs),
(212,600,l),
(102,600,l),
(102,211,ls),
(102,142,o),
(154,40,o),
(247,-16,o),
(309,-16,qs),
(353,-16,o),
(424,16,o),
(447,45,q),
(477,45,l),
(477,0,l),
(587,0,l),
(587,600,l),
(477,600,l)
);
},
{
closed = 1;
nodes = (
(511,810,l),
(189,810,l),
(189,720,l),
(511,720,l)
);
}
);
width = 700;
}
);
note = umacron;
unicode = 363;
},
{
glyphname = uogonek;
layers = (
{
layerId = m01;
shapes = (
{
closed = 1;
nodes = (
(477,241,ls),
(477,166,o),
(409,89,o),
(344,89,qs),
(279,89,o),
(212,166,o),
(212,241,qs),
(212,600,l),
(102,600,l),
(102,211,ls),
(102,142,o),
(154,40,o),
(247,-16,o),
(309,-16,qs),
(353,-16,o),
(424,16,o),
(447,45,q),
(477,45,l),
(477,0,l),
(587,0,l),
(587,600,l),
(477,600,l)
);
},
{
closed = 1;
nodes = (
(576,-213,o),
(587,-210,q),
(587,-132,l),
(580,-134,o),
(568,-136,o),
(558,-136,qs),
(539,-136,o),
(516,-112,o),
(516,-92,qs),
(516,-67,o),
(554,-18,o),
(587,0,q),
(532,2,l),
(484,0,l),
(453,-22,o),
(417,-85,o),
(417,-118,qs),
(417,-164,o),
(480,-216,o),
(534,-216,qs),
(551,-216,o)
);
}
);
width = 700;
}
);
note = uogonek;
unicode = 371;
},
{
glyphname = uring;
layers = (
{
layerId = m01;
shapes = (
{
closed = 1;
nodes = (
(477,241,ls),
(477,166,o),
(409,89,o),
(344,89,qs),
(279,89,o),
(212,166,o),
(212,241,qs),
(212,600,l),
(102,600,l),
(102,211,ls),
(102,142,o),
(154,40,o),
(247,-16,o),
(309,-16,qs),
(353,-16,o),
(424,16,o),
(447,45,q),
(477,45,l),
(477,0,l),
(587,0,l),
(587,600,l),
(477,600,l)
);
},
{
closed = 1;
nodes = (
(467,727,o),
(467,775,qs),
(467,823,o),
(402,882,o),
(350,882,qs),
(298,882,o),
(233,823,o),
(233,775,qs),
(233,727,o),
(298,668,o),
(350,668,qs),
(402,668,o)
);
},
{
closed = 1;
nodes = (
(299,753,o),
(299,775,qs),
(299,798,o),
(327,826,o),
(350,826,qs),
(373,826,o),
(401,798,o),
(401,775,qs),
(401,753,o),
(373,724,o),
(350,724,qs),
(327,724,o)
);
}
);
width = 700;
}
);
note = uring;
unicode = 367;
},
{
glyphname = utilde;
layers = (
{
layerId = m01;
shapes = (
{
closed = 1;
nodes = (
(477,241,ls),
(477,166,o),
(409,89,o),
(344,89,qs),
(279,89,o),
(212,166,o),
(212,241,qs),
(212,600,l),
(102,600,l),
(102,211,ls),
(102,142,o),
(154,40,o),
(247,-16,o),
(309,-16,qs),
(353,-16,o),
(424,16,o),
(447,45,q),
(477,45,l),
(477,0,l),
(587,0,l),
(587,600,l),
(477,600,l)
);
},
{
closed = 1;
nodes = (
(260,719,o),
(274,743,o),
(286,743,qs),
(304,743,o),
(334,719,o),
(377,695,o),
(414,695,qs),
(467,695,o),
(518,763,o),
(524,839,q),
(444,839,l),
(440,812,o),
(427,787,o),
(414,787,qs),
(397,787,o),
(366,811,o),
(323,835,o),
(286,835,qs),
(233,835,o),
(182,768,o),
(176,691,q),
(256,691,l)
);
}
);
width = 700;
}
);
note = utilde;
unicode = 361;
},
{
glyphname = v;
layers = (
{
layerId = m01;
shapes = (
{
closed = 1;
nodes = (
(434,0,l),
(633,600,l),
(523,600,l),
(359,99,l),
(349,99,l),
(184,600,l),
(67,600,l),
(266,0,l)
);
}
);
width = 700;
}
);
note = v;
unicode = 118;
},
{
glyphname = w;
layers = (
{
layerId = m01;
shapes = (
{
closed = 1;
nodes = (
(345,523,l),
(355,523,l),
(414,0,l),
(563,0,l),
(670,600,l),
(570,600,l),
(519,280,l),
(499,80,l),
(489,80,l),
(430,600,l),
(278,600,l),
(221,80,l),
(211,80,l),
(190,280,l),
(140,600,l),
(30,600,l),
(137,0,l),
(288,0,l)
);
}
);
width = 700;
}
);
note = w;
unicode = 119;
},
{
glyphname = wgrave;
layers = (
{
layerId = m01;
shapes = (
{
closed = 1;
nodes = (
(345,523,l),
(355,523,l),
(414,0,l),
(563,0,l),
(670,600,l),
(570,600,l),
(519,280,l),
(499,80,l),
(489,80,l),
(430,600,l),
(278,600,l),
(221,80,l),
(211,80,l),
(190,280,l),
(140,600,l),
(30,600,l),
(137,0,l),
(288,0,l)
);
},
{
closed = 1;
nodes = (
(178,840,l),
(307,690,l),
(405,690,l),
(306,840,l)
);
}
);
width = 700;
}
);
note = wgrave;
unicode = 7809;
},
{
glyphname = x;
layers = (
{
layerId = m01;
shapes = (
{
closed = 1;
nodes = (
(332,208,l),
(341,237,l),
(351,237,l),
(360,208,l),
(486,0,l),
(617,0,l),
(438,295,l),
(628,600,l),
(508,600,l),
(364,369,l),
(355,340,l),
(345,340,l),
(336,369,l),
(200,600,l),
(72,600,l),
(258,285,l),
(83,0,l),
(205,0,l)
);
}
);
width = 700;
}
);
note = x;
unicode = 120;
},
{
glyphname = y;
layers = (
{
layerId = m01;
shapes = (
{
closed = 1;
nodes = (
(379,50,l),
(410,151,l),
(340,151,l),
(186,600,l),
(68,600,l),
(259,50,l)
);
},
{
closed = 1;
nodes = (
(315,-55,ls),
(304,-87,o),
(277,-115,o),
(255,-115,qs),
(230,-115,o),
(201,-85,o),
(189,-52,q),
(89,-52,l),
(95,-132,o),
(183,-216,o),
(259,-216,qs),
(312,-216,o),
(392,-148,o),
(412,-87,qs),
(633,600,l),
(524,600,l)
);
}
);
width = 700;
}
);
note = y;
unicode = 121;
},
{
glyphname = ygrave;
layers = (
{
layerId = m01;
shapes = (
{
closed = 1;
nodes = (
(379,50,l),
(410,151,l),
(340,151,l),
(186,600,l),
(68,600,l),
(259,50,l)
);
},
{
closed = 1;
nodes = (
(315,-55,ls),
(304,-87,o),
(277,-115,o),
(255,-115,qs),
(230,-115,o),
(201,-85,o),
(189,-52,q),
(89,-52,l),
(95,-132,o),
(183,-216,o),
(259,-216,qs),
(312,-216,o),
(392,-148,o),
(412,-87,qs),
(633,600,l),
(524,600,l)
);
},
{
closed = 1;
nodes = (
(206,840,l),
(335,690,l),
(433,690,l),
(334,840,l)
);
}
);
width = 700;
}
);
note = ygrave;
unicode = 7923;
},
{
glyphname = z;
layers = (
{
layerId = m01;
shapes = (
{
closed = 1;
nodes = (
(507,497,l),
(507,487,l),
(124,191,l),
(124,0,l),
(576,0,l),
(576,103,l),
(193,103,l),
(193,113,l),
(576,409,l),
(576,600,l),
(124,600,l),
(124,497,l)
);
}
);
width = 700;
}
);
note = z;
unicode = 122;
},
{
glyphname = zcaron;
layers = (
{
layerId = m01;
shapes = (
{
closed = 1;
nodes = (
(507,497,l),
(507,487,l),
(124,191,l),
(124,0,l),
(576,0,l),
(576,103,l),
(193,103,l),
(193,113,l),
(576,409,l),
(576,600,l),
(124,600,l),
(124,497,l)
);
},
{
closed = 1;
nodes = (
(319,724,l),
(381,724,l),
(286,840,l),
(190,840,l),
(286,690,l),
(414,690,l),
(510,840,l),
(414,840,l)
);
}
);
width = 700;
}
);
note = zcaron;
unicode = 382;
},
{
glyphname = ordfeminine;
layers = (
{
layerId = m01;
shapes = (
{
closed = 1;
nodes = (
(382,492,o),
(391,510,q),
(399,510,l),
(399,480,l),
(485,480,l),
(485,697,ls),
(485,754,o),
(419,817,o),
(357,817,qs),
(293,817,o),
(218,749,o),
(212,688,q),
(296,688,l),
(301,713,o),
(333,742,o),
(356,742,qs),
(376,742,o),
(399,712,o),
(399,688,qs),
(399,600,ls),
(399,578,o),
(369,545,o),
(345,545,qs),
(332,545,o),
(315,561,o),
(315,573,qs),
(315,585,o),
(330,602,o),
(343,604,qs),
(404,614,l),
(404,679,l),
(327,665,ls),
(281,657,o),
(229,604,o),
(229,563,qs),
(229,524,o),
(279,473,o),
(317,473,qs),
(343,473,o)
);
}
);
width = 700;
}
);
note = ordfeminine;
unicode = 170;
},
{
glyphname = ordmasculine;
layers = (
{
layerId = m01;
shapes = (
{
closed = 1;
nodes = (
(506,565,o),
(506,644,qs),
(506,723,o),
(421,817,o),
(350,817,qs),
(279,817,o),
(194,723,o),
(194,644,qs),
(194,565,o),
(279,471,o),
(350,471,qs),
(421,471,o)
);
},
{
closed = 1;
nodes = (
(280,599,o),
(280,644,qs),
(280,689,o),
(317,740,o),
(350,740,qs),
(383,740,o),
(420,689,o),
(420,644,qs),
(420,599,o),
(383,548,o),
(350,548,qs),
(317,548,o)
);
}
);
width = 700;
}
);
note = ordmasculine;
unicode = 186;
},
{
glyphname = uni0411;
layers = (
{
layerId = m01;
shapes = (
{
closed = 1;
nodes = (
(462,0,o),
(574,58,o),
(636,164,o),
(636,235,qs),
(636,307,o),
(574,412,o),
(462,469,o),
(386,469,qs),
(237,469,l),
(237,693,l),
(606,693,l),
(606,800,l),
(123,800,l),
(123,0,l),
(386,0,ls)
);
},
{
closed = 1;
nodes = (
(390,367,ls),
(451,367,o),
(522,297,o),
(522,237,qs),
(522,177,o),
(451,107,o),
(390,107,qs),
(237,107,l),
(237,367,l)
);
}
);
width = 700;
}
);
note = uni0411;
unicode = 1041;
},
{
glyphname = uni0413;
layers = (
{
layerId = m01;
shapes = (
{
closed = 1;
nodes = (
(294,0,l),
(294,693,l),
(633,693,l),
(633,800,l),
(180,800,l),
(180,0,l)
);
}
);
width = 700;
}
);
note = uni0413;
unicode = 1043;
},
{
glyphname = Geupturncy;
layers = (
{
layerId = m01;
shapes = (
{
closed = 1;
nodes = (
(633,972,l),
(523,972,l),
(523,790,l),
(633,790,l)
);
},
{
closed = 1;
nodes = (
(294,0,l),
(294,693,l),
(633,693,l),
(633,800,l),
(180,800,l),
(180,0,l)
);
}
);
width = 700;
}
);
note = Geupturncy;
unicode = 1168;
},
{
glyphname = uni0414;
layers = (
{
layerId = m01;
shapes = (
{
closed = 1;
nodes = (
(143,0,l),
(557,0,l),
(557,-172,l),
(667,-172,l),
(667,107,l),
(579,107,l),
(579,800,l),
(159,800,l),
(157,669,o),
(150,476,o),
(141,340,o),
(128,246,o),
(113,181,o),
(94,132,o),
(83,107,q),
(33,107,l),
(33,-172,l),
(143,-172,l)
);
},
{
closed = 1;
nodes = (
(228,187,o),
(243,266,o),
(256,386,o),
(264,565,o),
(267,693,q),
(465,693,l),
(465,107,l),
(198,107,l),
(209,132,o)
);
}
);
width = 700;
}
);
note = uni0414;
unicode = 1044;
},
{
glyphname = uni0416;
layers = (
{
layerId = m01;
shapes = (
{
closed = 1;
nodes = (
(528,393,l),
(680,800,l),
(564,800,l),
(452,496,l),
(443,439,l),
(396,439,l),
(396,333,l),
(442,333,l),
(452,274,l),
(551,0,l),
(672,0,l)
);
},
{
closed = 1;
nodes = (
(248,274,l),
(258,333,l),
(304,333,l),
(304,439,l),
(257,439,l),
(248,496,l),
(136,800,l),
(20,800,l),
(172,393,l),
(28,0,l),
(149,0,l)
);
},
{
closed = 1;
nodes = (
(406,800,l),
(294,800,l),
(294,0,l),
(406,0,l)
);
}
);
width = 700;
}
);
note = uni0416;
unicode = 1046;
},
{
glyphname = uni0418;
layers = (
{
layerId = m01;
shapes = (
{
closed = 1;
nodes = (
(420,800,l),
(204,73,l),
(193,73,l),
(197,303,l),
(197,800,l),
(86,800,l),
(86,0,l),
(280,0,l),
(496,727,l),
(507,727,l),
(503,497,l),
(503,0,l),
(614,0,l),
(614,800,l)
);
}
);
width = 700;
}
);
note = uni0418;
unicode = 1048;
},
{
glyphname = uni041B;
layers = (
{
layerId = m01;
shapes = (
{
closed = 1;
nodes = (
(607,800,l),
(243,800,l),
(243,693,l),
(493,693,l),
(493,0,l),
(607,0,l)
);
},
{
closed = 1;
nodes = (
(75,-8,o),
(134,-1,o),
(184,25,o),
(222,84,o),
(245,187,o),
(248,267,qs),
(267,800,l),
(157,800,l),
(141,337,ls),
(138,251,o),
(122,155,o),
(96,111,o),
(58,99,o),
(33,99,qs),
(17,99,l),
(17,-8,l),
(43,-8,ls)
);
}
);
width = 700;
}
);
note = uni041B;
unicode = 1051;
},
{
glyphname = uni041F;
layers = (
{
layerId = m01;
shapes = (
{
closed = 1;
nodes = (
(207,0,l),
(207,691,l),
(493,691,l),
(493,0,l),
(607,0,l),
(607,800,l),
(93,800,l),
(93,0,l)
);
}
);
width = 700;
}
);
note = uni041F;
unicode = 1055;
},
{
glyphname = uni0423;
layers = (
{
layerId = m01;
shapes = (
{
closed = 1;
nodes = (
(296,261,l),
(438,261,l),
(472,357,l),
(372,357,l),
(185,800,l),
(65,800,l)
);
},
{
closed = 1;
nodes = (
(352,125,o),
(322,84,o),
(301,84,qs),
(279,84,o),
(250,117,o),
(241,155,q),
(139,155,l),
(151,70,o),
(233,-16,o),
(303,-16,qs),
(345,-16,o),
(407,20,o),
(453,96,o),
(469,155,qs),
(648,800,l),
(537,800,l),
(366,178,ls)
);
}
);
width = 700;
}
);
note = uni0423;
unicode = 1059;
},
{
glyphname = uni0424;
layers = (
{
layerId = m01;
shapes = (
{
closed = 1;
nodes = (
(407,74,l),
(417,74,ls),
(496,74,o),
(609,152,o),
(669,298,o),
(669,400,qs),
(669,502,o),
(609,648,o),
(496,726,o),
(417,726,qs),
(407,726,l),
(407,830,l),
(293,830,l),
(293,726,l),
(283,726,ls),
(204,726,o),
(91,648,o),
(31,502,o),
(31,400,qs),
(31,298,o),
(91,152,o),
(204,74,o),
(283,74,qs),
(293,74,l),
(293,-30,l),
(407,-30,l)
);
},
{
closed = 1;
nodes = (
(176,232,o),
(144,330,o),
(144,400,qs),
(144,471,o),
(176,568,o),
(239,619,o),
(283,619,qs),
(294,619,l),
(294,181,l),
(283,181,ls),
(239,181,o)
);
},
{
closed = 1;
nodes = (
(417,619,ls),
(462,619,o),
(524,568,o),
(556,471,o),
(556,400,qs),
(556,330,o),
(524,232,o),
(462,181,o),
(417,181,qs),
(406,181,l),
(406,619,l)
);
}
);
width = 700;
}
);
note = uni0424;
unicode = 1060;
},
{
glyphname = uni0427;
layers = (
{
layerId = m01;
shapes = (
{
closed = 1;
nodes = (
(73,292,o),
(313,292,qs),
(361,292,o),
(434,305,o),
(476,320,q),
(476,0,l),
(590,0,l),
(590,800,l),
(476,800,l),
(476,427,l),
(438,412,o),
(375,400,o),
(336,400,qs),
(258,400,o),
(187,471,o),
(187,549,qs),
(187,800,l),
(73,800,l),
(73,539,ls)
);
}
);
width = 700;
}
);
note = uni0427;
unicode = 1063;
},
{
glyphname = uni0426;
layers = (
{
layerId = m01;
shapes = (
{
closed = 1;
nodes = (
(564,-172,l),
(674,-172,l),
(674,107,l),
(587,107,l),
(587,800,l),
(473,800,l),
(473,107,l),
(207,107,l),
(207,800,l),
(93,800,l),
(93,0,l),
(564,0,l)
);
}
);
width = 700;
}
);
note = uni0426;
unicode = 1062;
},
{
glyphname = uni0428;
layers = (
{
layerId = m01;
shapes = (
{
closed = 1;
nodes = (
(647,0,l),
(647,800,l),
(541,800,l),
(541,107,l),
(403,107,l),
(403,800,l),
(297,800,l),
(297,107,l),
(159,107,l),
(159,800,l),
(53,800,l),
(53,0,l)
);
}
);
width = 700;
}
);
note = uni0428;
unicode = 1064;
},
{
glyphname = uni0429;
layers = (
{
layerId = m01;
shapes = (
{
closed = 1;
nodes = (
(584,0,l),
(584,-172,l),
(691,-172,l),
(691,107,l),
(615,107,l),
(615,800,l),
(509,800,l),
(509,107,l),
(386,107,l),
(386,800,l),
(280,800,l),
(280,107,l),
(157,107,l),
(157,800,l),
(51,800,l),
(51,0,l)
);
}
);
width = 700;
}
);
note = uni0429;
unicode = 1065;
},
{
glyphname = uni042C;
layers = (
{
layerId = m01;
shapes = (
{
closed = 1;
nodes = (
(404,0,ls),
(480,0,o),
(592,58,o),
(654,164,o),
(654,235,qs),
(654,307,o),
(592,412,o),
(480,469,o),
(404,469,qs),
(244,469,l),
(244,800,l),
(130,800,l),
(130,0,l)
);
},
{
closed = 1;
nodes = (
(469,367,o),
(540,297,o),
(540,237,qs),
(540,177,o),
(469,107,o),
(408,107,qs),
(244,107,l),
(244,367,l),
(408,367,ls)
);
}
);
width = 700;
}
);
note = uni042C;
unicode = 1068;
},
{
glyphname = uni042B;
layers = (
{
layerId = m01;
shapes = (
{
closed = 1;
nodes = (
(231,0,ls),
(332,0,o),
(445,135,o),
(445,256,qs),
(445,376,o),
(332,509,o),
(231,509,qs),
(184,509,l),
(184,800,l),
(73,800,l),
(73,0,l)
);
},
{
closed = 1;
nodes = (
(283,408,o),
(334,332,o),
(334,257,qs),
(334,182,o),
(283,106,o),
(233,106,qs),
(184,106,l),
(184,408,l),
(233,408,ls)
);
},
{
closed = 1;
nodes = (
(627,0,l),
(627,800,l),
(516,800,l),
(516,0,l)
);
}
);
width = 700;
}
);
note = uni042B;
unicode = 1067;
},
{
glyphname = uni042A;
layers = (
{
layerId = m01;
shapes = (
{
closed = 1;
nodes = (
(183,697,l),
(183,0,l),
(404,0,ls),
(480,0,o),
(592,58,o),
(654,164,o),
(654,236,qs),
(654,307,o),
(592,412,o),
(480,469,o),
(404,469,qs),
(297,469,l),
(297,800,l),
(46,800,l),
(46,697,l)
);
},
{
closed = 1;
nodes = (
(408,367,ls),
(469,367,o),
(540,297,o),
(540,237,qs),
(540,177,o),
(469,107,o),
(408,107,qs),
(297,107,l),
(297,367,l)
);
}
);
width = 700;
}
);
note = uni042A;
unicode = 1066;
},
{
glyphname = uni0404;
layers = (
{
layerId = m01;
shapes = (
{
closed = 1;
nodes = (
(181,452,l),
(181,348,l),
(456,348,l),
(456,452,l)
);
},
{
closed = 1;
nodes = (
(557,49,o),
(621,174,o),
(627,263,q),
(522,263,l),
(509,179,o),
(431,91,o),
(367,91,qs),
(278,91,o),
(195,241,o),
(195,400,qs),
(195,559,o),
(283,709,o),
(376,709,qs),
(443,709,o),
(526,614,o),
(540,523,q),
(645,523,l),
(639,617,o),
(572,748,o),
(456,816,o),
(376,816,qs),
(228,816,o),
(81,609,o),
(81,400,qs),
(81,191,o),
(224,-16,o),
(367,-16,qs),
(444,-16,o)
);
}
);
width = 700;
}
);
note = uni0404;
unicode = 1028;
},
{
glyphname = uni042D;
layers = (
{
layerId = m01;
shapes = (
{
closed = 1;
nodes = (
(519,452,l),
(244,452,l),
(244,348,l),
(519,348,l)
);
},
{
closed = 1;
nodes = (
(619,191,o),
(619,400,qs),
(619,609,o),
(472,816,o),
(324,816,qs),
(244,816,o),
(128,748,o),
(61,617,o),
(55,523,q),
(160,523,l),
(175,614,o),
(257,709,o),
(324,709,qs),
(418,709,o),
(505,559,o),
(505,400,qs),
(505,241,o),
(422,91,o),
(333,91,qs),
(270,91,o),
(192,179,o),
(178,263,q),
(73,263,l),
(79,174,o),
(143,49,o),
(256,-16,o),
(333,-16,qs),
(476,-16,o)
);
}
);
width = 700;
}
);
note = uni042D;
unicode = 1069;
},
{
glyphname = Yucy;
layers = (
{
layerId = m01;
shapes = (
{
closed = 1;
nodes = (
(161,0,l),
(161,349,l),
(271,349,l),
(271,457,l),
(161,457,l),
(161,800,l),
(47,800,l),
(47,0,l)
);
},
{
closed = 1;
nodes = (
(606,30,o),
(658,129,o),
(681,287,o),
(681,400,qs),
(681,513,o),
(658,671,o),
(606,770,o),
(524,816,o),
(466,816,qs),
(407,816,o),
(325,770,o),
(272,671,o),
(247,513,o),
(247,400,qs),
(247,287,o),
(272,129,o),
(325,30,o),
(407,-16,o),
(466,-16,qs),
(524,-16,o)
);
},
{
closed = 1;
nodes = (
(392,123,o),
(368,196,o),
(357,314,o),
(357,400,qs),
(357,486,o),
(368,604,o),
(392,677,o),
(433,709,o),
(462,709,qs),
(491,709,o),
(532,677,o),
(556,604,o),
(567,486,o),
(567,400,qs),
(567,314,o),
(556,196,o),
(532,123,o),
(491,91,o),
(462,91,qs),
(433,91,o)
);
}
);
width = 700;
}
);
note = Yucy;
unicode = 1070;
},
{
glyphname = Yacy;
layers = (
{
layerId = m01;
shapes = (
{
closed = 1;
nodes = (
(585,800,l),
(324,800,ls),
(247,800,o),
(133,741,o),
(70,633,o),
(70,559,qs),
(70,488,o),
(133,383,o),
(247,325,o),
(324,325,qs),
(471,325,l),
(471,0,l),
(585,0,l)
);
},
{
closed = 1;
nodes = (
(407,345,l),
(283,345,l),
(40,0,l),
(169,0,l)
);
},
{
closed = 1;
nodes = (
(184,496,o),
(184,558,qs),
(184,621,o),
(261,693,o),
(329,693,qs),
(471,693,l),
(471,424,l),
(329,424,ls),
(261,424,o)
);
}
);
width = 700;
}
);
note = Yacy;
unicode = 1071;
},
{
glyphname = uni0431;
layers = (
{
layerId = m01;
shapes = (
{
closed = 1;
nodes = (
(555,57,o),
(622,192,o),
(622,282,qs),
(622,371,o),
(560,503,o),
(447,576,o),
(371,576,qs),
(314,576,o),
(226,532,o),
(200,489,q),
(187,489,l),
(198,585,o),
(285,685,o),
(362,689,qs),
(446,694,ls),
(501,697,o),
(568,723,o),
(601,788,o),
(603,850,q),
(494,850,l),
(493,825,o),
(472,804,o),
(443,802,qs),
(362,798,ls),
(217,791,o),
(78,572,o),
(78,350,qs),
(78,175,o),
(220,-16,o),
(351,-16,qs),
(434,-16,o)
);
},
{
closed = 1;
nodes = (
(197,191,o),
(197,282,qs),
(197,373,o),
(280,477,o),
(355,477,qs),
(429,477,o),
(513,373,o),
(513,282,qs),
(513,191,o),
(429,87,o),
(355,87,qs),
(280,87,o)
);
}
);
width = 700;
}
);
note = uni0431;
unicode = 1073;
},
{
glyphname = uni0432;
layers = (
{
layerId = m01;
shapes = (
{
closed = 1;
nodes = (
(497,0,o),
(604,88,o),
(604,168,qs),
(604,216,o),
(554,289,o),
(511,304,q),
(511,316,l),
(549,330,o),
(594,393,o),
(594,432,qs),
(594,512,o),
(489,600,o),
(393,600,qs),
(131,600,l),
(131,0,l),
(399,0,ls)
);
},
{
closed = 1;
nodes = (
(400,254,ls),
(446,254,o),
(495,215,o),
(495,178,qs),
(495,141,o),
(446,102,o),
(400,102,qs),
(241,102,l),
(241,254,l)
);
},
{
closed = 1;
nodes = (
(394,498,ls),
(440,498,o),
(489,459,o),
(489,424,qs),
(489,389,o),
(440,350,o),
(394,350,qs),
(241,350,l),
(241,498,l)
);
}
);
width = 700;
}
);
note = uni0432;
unicode = 1074;
},
{
glyphname = uni0433;
layers = (
{
layerId = m01;
shapes = (
{
closed = 1;
nodes = (
(307,497,l),
(605,497,l),
(605,600,l),
(197,600,l),
(197,0,l),
(307,0,l)
);
}
);
width = 700;
}
);
note = uni0433;
unicode = 1075;
},
{
glyphname = geupturncy;
layers = (
{
layerId = m01;
shapes = (
{
closed = 1;
nodes = (
(605,772,l),
(495,772,l),
(495,590,l),
(605,590,l)
);
},
{
closed = 1;
nodes = (
(307,497,l),
(605,497,l),
(605,600,l),
(197,600,l),
(197,0,l),
(307,0,l)
);
}
);
width = 700;
}
);
note = geupturncy;
unicode = 1169;
},
{
glyphname = uni0434;
layers = (
{
layerId = m01;
shapes = (
{
closed = 1;
nodes = (
(157,0,l),
(543,0,l),
(543,-152,l),
(647,-152,l),
(647,103,l),
(573,103,l),
(573,600,l),
(168,600,l),
(165,496,o),
(159,347,o),
(149,244,o),
(134,173,o),
(109,124,o),
(91,103,q),
(53,103,l),
(53,-152,l),
(157,-152,l)
);
},
{
closed = 1;
nodes = (
(246,191,o),
(258,279,o),
(266,405,o),
(270,497,q),
(463,497,l),
(463,103,l),
(213,103,l),
(228,129,o)
);
}
);
width = 700;
}
);
note = uni0434;
unicode = 1076;
},
{
glyphname = uni0436;
layers = (
{
layerId = m01;
shapes = (
{
closed = 1;
nodes = (
(510,295,l),
(670,600,l),
(558,600,l),
(439,369,l),
(431,336,l),
(395,336,l),
(395,241,l),
(428,241,l),
(436,208,l),
(540,0,l),
(661,0,l)
);
},
{
closed = 1;
nodes = (
(264,208,l),
(272,241,l),
(305,241,l),
(305,336,l),
(269,336,l),
(261,369,l),
(142,600,l),
(30,600,l),
(190,295,l),
(39,0,l),
(160,0,l)
);
},
{
closed = 1;
nodes = (
(404,600,l),
(296,600,l),
(296,0,l),
(404,0,l)
);
}
);
width = 700;
}
);
note = uni0436;
unicode = 1078;
},
{
glyphname = uni0437;
layers = (
{
layerId = m01;
shapes = (
{
closed = 1;
nodes = (
(544,30,o),
(604,111,o),
(604,166,qs),
(604,213,o),
(560,288,o),
(521,304,q),
(521,316,l),
(560,332,o),
(605,395,o),
(605,434,qs),
(605,488,o),
(546,569,o),
(440,616,o),
(367,616,qs),
(255,616,o),
(119,498,o),
(113,394,q),
(217,394,l),
(227,450,o),
(307,515,o),
(367,515,qs),
(406,515,o),
(464,492,o),
(497,452,o),
(497,426,qs),
(497,390,o),
(442,348,o),
(394,348,qs),
(309,348,l),
(309,256,l),
(394,256,ls),
(440,256,o),
(494,214,o),
(494,176,qs),
(494,149,o),
(462,108,o),
(404,85,o),
(365,85,qs),
(311,85,o),
(236,138,o),
(226,184,q),
(122,184,l),
(128,91,o),
(259,-16,o),
(365,-16,qs),
(437,-16,o)
);
}
);
width = 700;
}
);
note = uni0437;
unicode = 1079;
},
{
glyphname = uni0438;
layers = (
{
layerId = m01;
shapes = (
{
closed = 1;
nodes = (
(480,527,l),
(492,527,l),
(488,360,l),
(488,0,l),
(597,0,l),
(597,600,l),
(410,600,l),
(220,73,l),
(208,73,l),
(212,240,l),
(212,600,l),
(103,600,l),
(103,0,l),
(290,0,l)
);
}
);
width = 700;
}
);
note = uni0438;
unicode = 1080;
},
{
glyphname = uni043A;
layers = (
{
layerId = m01;
shapes = (
{
closed = 1;
nodes = (
(367,296,l),
(631,600,l),
(493,600,l),
(226,292,l),
(483,0,l),
(628,0,l)
);
},
{
closed = 1;
nodes = (
(259,600,l),
(149,600,l),
(149,0,l),
(259,0,l)
);
}
);
width = 700;
}
);
note = uni043A;
unicode = 1082;
},
{
glyphname = uni043B;
layers = (
{
layerId = m01;
shapes = (
{
closed = 1;
nodes = (
(134,-8,o),
(202,9,o),
(246,59,o),
(271,162,o),
(274,249,qs),
(282,497,l),
(477,497,l),
(477,0,l),
(587,0,l),
(587,600,l),
(181,600,l),
(169,279,ls),
(166,215,o),
(155,139,o),
(134,104,o),
(101,93,o),
(75,93,qs),
(57,93,l),
(57,-8,l),
(87,-8,ls)
);
}
);
width = 700;
}
);
note = uni043B;
unicode = 1083;
},
{
glyphname = uni043C;
layers = (
{
layerId = m01;
shapes = (
{
closed = 1;
nodes = (
(182,260,l),
(178,520,l),
(189,520,l),
(277,110,l),
(425,110,l),
(511,520,l),
(522,520,l),
(518,260,l),
(518,0,l),
(620,0,l),
(620,600,l),
(448,600,l),
(359,177,l),
(348,177,l),
(257,600,l),
(80,600,l),
(80,0,l),
(182,0,l)
);
}
);
width = 700;
}
);
note = uni043C;
unicode = 1084;
},
{
glyphname = uni043D;
layers = (
{
layerId = m01;
shapes = (
{
closed = 1;
nodes = (
(223,243,l),
(477,243,l),
(477,0,l),
(587,0,l),
(587,600,l),
(477,600,l),
(477,347,l),
(223,347,l),
(223,600,l),
(113,600,l),
(113,0,l),
(223,0,l)
);
}
);
width = 700;
}
);
note = uni043D;
unicode = 1085;
},
{
glyphname = uni043F;
layers = (
{
layerId = m01;
shapes = (
{
closed = 1;
nodes = (
(229,497,l),
(471,497,l),
(471,0,l),
(581,0,l),
(581,600,l),
(119,600,l),
(119,0,l),
(229,0,l)
);
}
);
width = 700;
}
);
note = uni043F;
unicode = 1087;
},
{
glyphname = uni0442;
layers = (
{
layerId = m01;
shapes = (
{
closed = 1;
nodes = (
(405,497,l),
(605,497,l),
(605,600,l),
(95,600,l),
(95,497,l),
(295,497,l),
(295,0,l),
(405,0,l)
);
}
);
width = 700;
}
);
note = uni0442;
unicode = 1090;
},
{
glyphname = uni0444;
layers = (
{
layerId = m01;
shapes = (
{
closed = 1;
nodes = (
(405,-16,l),
(423,-16,ls),
(493,-16,o),
(596,61,o),
(652,204,o),
(652,301,qs),
(652,398,o),
(596,539,o),
(493,616,o),
(423,616,qs),
(405,616,l),
(405,800,l),
(295,800,l),
(295,616,l),
(277,616,ls),
(207,616,o),
(105,539,o),
(48,398,o),
(48,301,qs),
(48,204,o),
(105,61,o),
(207,-16,o),
(277,-16,qs),
(295,-16,l),
(295,-200,l),
(405,-200,l)
);
},
{
closed = 1;
nodes = (
(186,138,o),
(157,233,o),
(157,301,qs),
(157,403,o),
(220,513,o),
(277,513,qs),
(295,513,l),
(295,87,l),
(277,87,ls),
(239,87,o)
);
},
{
closed = 1;
nodes = (
(423,513,ls),
(480,513,o),
(543,403,o),
(543,301,qs),
(543,233,o),
(514,138,o),
(461,87,o),
(423,87,qs),
(405,87,l),
(405,513,l)
);
}
);
width = 700;
}
);
note = uni0444;
unicode = 1092;
},
{
glyphname = uni0447;
layers = (
{
layerId = m01;
shapes = (
{
closed = 1;
nodes = (
(569,600,l),
(459,600,l),
(459,326,l),
(429,315,o),
(369,304,o),
(333,304,qs),
(267,304,o),
(205,358,o),
(205,413,qs),
(205,600,l),
(95,600,l),
(95,413,ls),
(95,310,o),
(207,202,o),
(317,202,qs),
(359,202,o),
(428,214,o),
(459,224,q),
(459,0,l),
(569,0,l)
);
}
);
width = 700;
}
);
note = uni0447;
unicode = 1095;
},
{
glyphname = uni0446;
layers = (
{
layerId = m01;
shapes = (
{
closed = 1;
nodes = (
(649,103,l),
(576,103,l),
(576,600,l),
(466,600,l),
(466,103,l),
(223,103,l),
(223,600,l),
(113,600,l),
(113,0,l),
(545,0,l),
(545,-152,l),
(649,-152,l)
);
}
);
width = 700;
}
);
note = uni0446;
unicode = 1094;
},
{
glyphname = uni0448;
layers = (
{
layerId = m01;
shapes = (
{
closed = 1;
nodes = (
(641,600,l),
(539,600,l),
(539,103,l),
(401,103,l),
(401,600,l),
(299,600,l),
(299,103,l),
(161,103,l),
(161,600,l),
(59,600,l),
(59,0,l),
(641,0,l)
);
}
);
width = 700;
}
);
note = uni0448;
unicode = 1096;
},
{
glyphname = uni0449;
layers = (
{
layerId = m01;
shapes = (
{
closed = 1;
nodes = (
(675,103,l),
(601,103,l),
(601,600,l),
(499,600,l),
(499,103,l),
(382,103,l),
(382,600,l),
(280,600,l),
(280,103,l),
(162,103,l),
(162,600,l),
(60,600,l),
(60,0,l),
(571,0,l),
(571,-152,l),
(675,-152,l)
);
}
);
width = 700;
}
);
note = uni0449;
unicode = 1097;
},
{
glyphname = uni044C;
layers = (
{
layerId = m01;
shapes = (
{
closed = 1;
nodes = (
(507,0,o),
(623,107,o),
(623,201,qs),
(623,295,o),
(507,402,o),
(407,402,qs),
(260,402,l),
(260,600,l),
(150,600,l),
(150,0,l),
(407,0,ls)
);
},
{
closed = 1;
nodes = (
(407,300,ls),
(458,300,o),
(514,249,o),
(514,202,qs),
(514,155,o),
(458,104,o),
(407,104,qs),
(260,104,l),
(260,300,l)
);
}
);
width = 700;
}
);
note = uni044C;
unicode = 1100;
},
{
glyphname = uni044B;
layers = (
{
layerId = m01;
shapes = (
{
closed = 1;
nodes = (
(334,0,o),
(446,107,o),
(446,201,qs),
(446,295,o),
(334,402,o),
(236,402,qs),
(167,402,l),
(167,600,l),
(57,600,l),
(57,0,l),
(236,0,ls)
);
},
{
closed = 1;
nodes = (
(243,300,ls),
(287,300,o),
(337,248,o),
(337,202,qs),
(337,156,o),
(287,104,o),
(243,104,qs),
(167,104,l),
(167,300,l)
);
},
{
closed = 1;
nodes = (
(643,600,l),
(533,600,l),
(533,0,l),
(643,0,l)
);
}
);
width = 700;
}
);
note = uni044B;
unicode = 1099;
},
{
glyphname = uni044A;
layers = (
{
layerId = m01;
shapes = (
{
closed = 1;
nodes = (
(539,0,o),
(655,107,o),
(655,201,qs),
(655,295,o),
(539,402,o),
(439,402,qs),
(311,402,l),
(311,600,l),
(49,600,l),
(49,497,l),
(201,497,l),
(201,0,l),
(439,0,ls)
);
},
{
closed = 1;
nodes = (
(439,300,ls),
(490,300,o),
(546,249,o),
(546,202,qs),
(546,155,o),
(490,104,o),
(439,104,qs),
(311,104,l),
(311,300,l)
);
}
);
width = 700;
}
);
note = uni044A;
unicode = 1098;
},
{
glyphname = uni0454;
layers = (
{
layerId = m01;
shapes = (
{
closed = 1;
nodes = (
(441,345,l),
(192,345,l),
(192,249,l),
(441,249,l)
);
},
{
closed = 1;
nodes = (
(542,41,o),
(608,144,o),
(613,214,q),
(512,214,l),
(497,154,o),
(420,87,o),
(364,87,qs),
(289,87,o),
(205,198,o),
(205,297,qs),
(205,399,o),
(291,513,o),
(370,513,qs),
(432,513,o),
(513,437,o),
(526,368,q),
(627,368,l),
(624,444,o),
(560,555,o),
(448,616,o),
(374,616,qs),
(289,616,o),
(164,538,o),
(96,395,o),
(96,297,qs),
(96,201,o),
(162,60,o),
(282,-16,o),
(364,-16,qs),
(433,-16,o)
);
}
);
width = 700;
}
);
note = uni0454;
unicode = 1108;
},
{
glyphname = uni044D;
layers = (
{
layerId = m01;
shapes = (
{
closed = 1;
nodes = (
(259,345,l),
(259,249,l),
(508,249,l),
(508,345,l)
);
},
{
closed = 1;
nodes = (
(538,60,o),
(604,201,o),
(604,297,qs),
(604,395,o),
(536,538,o),
(412,616,o),
(326,616,qs),
(252,616,o),
(140,555,o),
(76,444,o),
(73,368,q),
(174,368,l),
(187,437,o),
(269,513,o),
(330,513,qs),
(409,513,o),
(495,399,o),
(495,297,qs),
(495,198,o),
(411,87,o),
(336,87,qs),
(281,87,o),
(204,154,o),
(188,214,q),
(87,214,l),
(92,144,o),
(158,41,o),
(267,-16,o),
(336,-16,qs),
(418,-16,o)
);
}
);
width = 700;
}
);
note = uni044D;
unicode = 1101;
},
{
glyphname = yucy;
layers = (
{
layerId = m01;
shapes = (
{
closed = 1;
nodes = (
(631,53,o),
(679,195,o),
(679,301,qs),
(679,407,o),
(631,547,o),
(536,616,o),
(464,616,qs),
(391,616,o),
(296,547,o),
(249,407,o),
(249,301,qs),
(249,195,o),
(296,53,o),
(391,-16,o),
(464,-16,qs),
(536,-16,o)
);
},
{
closed = 1;
nodes = (
(167,243,l),
(267,243,l),
(267,347,l),
(167,347,l),
(167,600,l),
(57,600,l),
(57,0,l),
(167,0,l)
);
},
{
closed = 1;
nodes = (
(378,132,o),
(355,227,o),
(355,301,qs),
(355,375,o),
(378,468,o),
(425,513,o),
(462,513,qs),
(499,513,o),
(546,468,o),
(569,375,o),
(569,301,qs),
(569,227,o),
(546,132,o),
(499,87,o),
(462,87,qs),
(425,87,o)
);
}
);
width = 700;
}
);
note = yucy;
unicode = 1102;
},
{
glyphname = yacy;
layers = (
{
layerId = m01;
shapes = (
{
closed = 1;
nodes = (
(571,600,l),
(329,600,ls),
(263,600,o),
(167,554,o),
(116,469,o),
(116,410,qs),
(116,351,o),
(167,266,o),
(263,220,o),
(329,220,qs),
(461,220,l),
(461,0,l),
(571,0,l)
);
},
{
closed = 1;
nodes = (
(391,250,l),
(268,250,l),
(97,0,l),
(224,0,l)
);
},
{
closed = 1;
nodes = (
(225,366,o),
(225,408,qs),
(225,450,o),
(280,497,o),
(329,497,qs),
(461,497,l),
(461,319,l),
(329,319,ls),
(280,319,o)
);
}
);
width = 700;
}
);
note = yacy;
unicode = 1103;
},
{
glyphname = zero;
layers = (
{
layerId = m01;
shapes = (
{
closed = 1;
nodes = (
(642,192,o),
(642,400,qs),
(642,608,o),
(496,816,o),
(350,816,qs),
(204,816,o),
(58,608,o),
(58,400,qs),
(58,192,o),
(204,-16,o),
(350,-16,qs),
(496,-16,o)
);
},
{
closed = 1;
nodes = (
(172,241,o),
(172,400,qs),
(172,559,o),
(258,709,o),
(350,709,qs),
(442,709,o),
(528,559,o),
(528,400,qs),
(528,241,o),
(442,91,o),
(350,91,qs),
(258,91,o)
);
},
{
closed = 1;
nodes = (
(557,493,l),
(557,623,l),
(139,307,l),
(139,177,l)
);
}
);
width = 700;
}
);
note = zero;
unicode = 48;
},
{
glyphname = one;
layers = (
{
layerId = m01;
shapes = (
{
closed = 1;
nodes = (
(107,694,l),
(107,572,l),
(355,733,l),
(323,752,l),
(323,107,l),
(107,107,l),
(107,0,l),
(633,0,l),
(633,107,l),
(437,107,l),
(437,800,l),
(275,800,l)
);
}
);
width = 700;
}
);
note = one;
unicode = 49;
},
{
glyphname = two;
layers = (
{
layerId = m01;
shapes = (
{
closed = 1;
nodes = (
(599,0,l),
(599,107,l),
(207,107,l),
(207,117,l),
(454,294,ls),
(535,353,o),
(615,487,o),
(615,565,qs),
(615,641,o),
(551,753,o),
(436,816,o),
(358,816,qs),
(285,816,o),
(166,754,o),
(93,637,o),
(89,556,q),
(199,556,l),
(215,631,o),
(295,709,o),
(358,709,qs),
(425,709,o),
(501,632,o),
(501,565,qs),
(501,512,o),
(447,421,o),
(389,378,qs),
(110,169,l),
(110,0,l)
);
}
);
width = 700;
}
);
note = two;
unicode = 50;
},
{
glyphname = three;
layers = (
{
layerId = m01;
shapes = (
{
closed = 1;
nodes = (
(548,387,o),
(492,402,q),
(492,418,l),
(549,433,o),
(618,525,o),
(618,590,qs),
(618,660,o),
(553,760,o),
(437,816,o),
(361,816,qs),
(278,816,o),
(156,755,o),
(86,639,o),
(82,556,q),
(191,556,l),
(205,631,o),
(291,709,o),
(360,709,qs),
(426,709,o),
(505,639,o),
(505,582,qs),
(505,528,o),
(427,460,o),
(363,460,qs),
(269,460,l),
(269,354,l),
(363,354,ls),
(425,354,o),
(500,280,o),
(500,221,qs),
(500,182,o),
(464,123,o),
(399,91,o),
(356,91,qs),
(290,91,o),
(206,165,o),
(196,234,q),
(87,234,l),
(89,156,o),
(155,43,o),
(275,-16,o),
(357,-16,qs),
(432,-16,o),
(548,41,o),
(615,145,o),
(615,213,qs),
(615,286,o)
);
}
);
width = 700;
}
);
note = three;
unicode = 51;
},
{
glyphname = four;
layers = (
{
layerId = m01;
shapes = (
{
closed = 1;
nodes = (
(55,385,l),
(55,232,l),
(415,232,l),
(415,0,l),
(529,0,l),
(529,232,l),
(648,232,l),
(648,339,l),
(529,339,l),
(529,800,l),
(329,800,l)
);
},
{
closed = 1;
nodes = (
(415,789,l),
(415,339,l),
(154,339,l),
(154,350,l),
(446,789,l)
);
}
);
width = 700;
}
);
note = four;
unicode = 52;
},
{
glyphname = five;
layers = (
{
layerId = m01;
shapes = (
{
closed = 1;
nodes = (
(223,346,l),
(241,388,o),
(312,431,o),
(360,431,qs),
(406,431,o),
(471,391,o),
(507,317,o),
(507,265,qs),
(507,213,o),
(470,134,o),
(403,91,o),
(357,91,qs),
(295,91,o),
(218,155,o),
(202,214,q),
(91,214,l),
(103,106,o),
(244,-16,o),
(359,-16,qs),
(436,-16,o),
(554,56,o),
(621,183,o),
(621,265,qs),
(621,345,o),
(561,465,o),
(456,532,o),
(388,532,qs),
(350,532,o),
(282,508,o),
(263,487,q),
(233,487,l),
(233,735,l),
(188,693,l),
(606,693,l),
(606,800,l),
(119,800,l),
(119,346,l)
);
}
);
width = 700;
}
);
note = five;
unicode = 53;
},
{
glyphname = six;
layers = (
{
layerId = m01;
shapes = (
{
closed = 1;
nodes = (
(552,53,o),
(622,176,o),
(622,256,qs),
(622,332,o),
(559,450,o),
(448,518,o),
(377,518,qs),
(362,518,o),
(333,513,o),
(321,509,q),
(305,525,l),
(496,800,l),
(369,800,l),
(178,520,ls),
(126,443,o),
(78,317,o),
(78,256,qs),
(78,176,o),
(148,53,o),
(270,-16,o),
(349,-16,qs),
(429,-16,o)
);
},
{
closed = 1;
nodes = (
(232,378,o),
(303,419,o),
(350,419,qs),
(398,419,o),
(469,378,o),
(508,305,o),
(508,256,qs),
(508,207,o),
(469,133,o),
(398,91,o),
(350,91,qs),
(303,91,o),
(232,133,o),
(192,207,o),
(192,256,qs),
(192,305,o)
);
}
);
width = 700;
}
);
note = six;
unicode = 54;
},
{
glyphname = seven;
layers = (
{
layerId = m01;
shapes = (
{
closed = 1;
nodes = (
(96,800,l),
(96,693,l),
(502,693,l),
(502,683,l),
(176,0,l),
(300,0,l),
(591,625,l),
(591,800,l)
);
}
);
width = 700;
}
);
note = seven;
unicode = 55;
},
{
glyphname = eight;
layers = (
{
layerId = m01;
shapes = (
{
closed = 1;
nodes = (
(191,525,o),
(191,584,qs),
(191,643,o),
(275,709,o),
(350,709,qs),
(425,709,o),
(509,643,o),
(509,584,qs),
(509,525,o),
(425,459,o),
(350,459,qs),
(275,459,o)
);
},
{
closed = 1;
nodes = (
(150,436,o),
(207,420,q),
(207,404,l),
(150,388,o),
(81,285,o),
(81,215,qs),
(81,145,o),
(148,42,o),
(269,-16,o),
(350,-16,qs),
(431,-16,o),
(552,42,o),
(619,145,o),
(619,215,qs),
(619,285,o),
(550,388,o),
(493,404,q),
(493,420,l),
(550,436,o),
(619,530,o),
(619,592,qs),
(619,660,o),
(552,761,o),
(432,816,o),
(350,816,qs),
(269,816,o),
(148,761,o),
(81,660,o),
(81,592,qs),
(81,530,o)
);
},
{
closed = 1;
nodes = (
(277,357,o),
(350,357,qs),
(423,357,o),
(505,287,o),
(505,224,qs),
(505,162,o),
(423,91,o),
(350,91,qs),
(277,91,o),
(195,162,o),
(195,224,qs),
(195,287,o)
);
}
);
width = 700;
}
);
note = eight;
unicode = 56;
},
{
glyphname = nine;
layers = (
{
layerId = m01;
shapes = (
{
closed = 1;
nodes = (
(148,747,o),
(78,624,o),
(78,544,qs),
(78,468,o),
(141,350,o),
(252,282,o),
(323,282,qs),
(338,282,o),
(367,287,o),
(379,291,q),
(395,275,l),
(204,0,l),
(331,0,l),
(522,280,ls),
(574,357,o),
(622,483,o),
(622,544,qs),
(622,624,o),
(552,747,o),
(430,816,o),
(351,816,qs),
(271,816,o)
);
},
{
closed = 1;
nodes = (
(469,422,o),
(398,381,o),
(350,381,qs),
(303,381,o),
(232,422,o),
(192,495,o),
(192,544,qs),
(192,594,o),
(232,667,o),
(303,709,o),
(350,709,qs),
(398,709,o),
(469,667,o),
(508,594,o),
(508,544,qs),
(508,495,o)
);
}
);
width = 700;
}
);
note = nine;
unicode = 57;
},
{
glyphname = nine.dnom;
layers = (
{
layerId = m01;
shapes = (
{
closed = 1;
nodes = (
(232,400,o),
(192,334,o),
(192,291,qs),
(192,251,o),
(227,187,o),
(289,151,o),
(329,151,qs),
(335,151,o),
(347,153,o),
(351,154,q),
(360,146,l),
(258,0,l),
(354,0,l),
(456,150,ls),
(483,189,o),
(508,256,o),
(508,291,qs),
(508,334,o),
(468,400,o),
(397,437,o),
(350,437,qs),
(304,437,o)
);
},
{
closed = 1;
nodes = (
(383,219,o),
(350,219,qs),
(317,219,o),
(278,258,o),
(278,290,qs),
(278,322,o),
(317,360,o),
(350,360,qs),
(383,360,o),
(422,322,o),
(422,290,qs),
(422,258,o)
);
}
);
width = 700;
}
);
note = nine.dnom;
},
{
glyphname = nine.numr;
layers = (
{
layerId = m01;
shapes = (
{
closed = 1;
nodes = (
(232,772,o),
(192,706,o),
(192,663,qs),
(192,623,o),
(227,559,o),
(289,523,o),
(329,523,qs),
(335,523,o),
(347,525,o),
(351,526,q),
(360,518,l),
(258,372,l),
(354,372,l),
(456,522,ls),
(483,561,o),
(508,628,o),
(508,663,qs),
(508,706,o),
(468,772,o),
(397,809,o),
(350,809,qs),
(304,809,o)
);
},
{
closed = 1;
nodes = (
(383,591,o),
(350,591,qs),
(317,591,o),
(278,630,o),
(278,662,qs),
(278,694,o),
(317,732,o),
(350,732,qs),
(383,732,o),
(422,694,o),
(422,662,qs),
(422,630,o)
);
}
);
width = 700;
}
);
note = nine.numr;
},
{
glyphname = fraction;
layers = (
{
layerId = m01;
shapes = (
{
closed = 1;
nodes = (
(40,0,l),
(130,0,l),
(660,800,l),
(570,800,l)
);
}
);
width = 700;
}
);
note = fraction;
unicode = 8260;
},
{
glyphname = onehalf;
layers = (
{
layerId = m01;
shapes = (
{
closed = 1;
nodes = (
(365,480,l),
(455,480,l),
(660,800,l),
(570,800,l)
);
},
{
closed = 1;
nodes = (
(40,0,l),
(130,0,l),
(335,320,l),
(245,320,l)
);
},
{
closed = 1;
nodes = (
(307,450,l),
(211,450,l),
(211,800,l),
(94,800,l),
(17,752,l),
(17,659,l),
(163,754,l),
(125,777,l),
(125,450,l),
(17,450,l),
(17,372,l),
(307,372,l)
);
},
{
closed = 1;
nodes = (
(681,0,l),
(681,78,l),
(416,78,l),
(423,52,l),
(594,148,ls),
(642,175,o),
(690,248,o),
(690,292,qs),
(690,361,o),
(610,437,o),
(540,437,qs),
(473,437,o),
(389,362,o),
(384,298,q),
(470,298,l),
(476,327,o),
(513,359,o),
(540,359,qs),
(570,359,o),
(604,324,o),
(604,291,qs),
(604,269,o),
(579,230,o),
(557,217,qs),
(401,128,l),
(401,0,l)
);
}
);
width = 700;
}
);
note = onehalf;
unicode = 189;
},
{
glyphname = onequarter;
layers = (
{
layerId = m01;
shapes = (
{
closed = 1;
nodes = (
(365,480,l),
(455,480,l),
(660,800,l),
(570,800,l)
);
},
{
closed = 1;
nodes = (
(40,0,l),
(130,0,l),
(335,320,l),
(245,320,l)
);
},
{
closed = 1;
nodes = (
(307,450,l),
(211,450,l),
(211,800,l),
(94,800,l),
(17,752,l),
(17,659,l),
(163,754,l),
(125,777,l),
(125,450,l),
(17,450,l),
(17,372,l),
(307,372,l)
);
},
{
closed = 1;
nodes = (
(333,207,l),
(333,114,l),
(529,114,l),
(529,0,l),
(615,0,l),
(615,114,l),
(675,114,l),
(675,192,l),
(615,192,l),
(615,428,l),
(487,428,l)
);
},
{
closed = 1;
nodes = (
(529,424,l),
(529,192,l),
(380,192,l),
(392,164,l),
(573,424,l)
);
}
);
width = 700;
}
);
note = onequarter;
unicode = 188;
},
{
glyphname = threequarters;
layers = (
{
layerId = m01;
shapes = (
{
closed = 1;
nodes = (
(365,480,l),
(455,480,l),
(660,800,l),
(570,800,l)
);
},
{
closed = 1;
nodes = (
(40,0,l),
(130,0,l),
(335,320,l),
(245,320,l)
);
},
{
closed = 1;
nodes = (
(281,577,o),
(250,589,q),
(250,597,l),
(281,605,o),
(317,651,o),
(317,683,qs),
(317,720,o),
(279,777,o),
(212,809,o),
(169,809,qs),
(97,809,o),
(6,733,o),
(3,670,q),
(88,670,l),
(94,700,o),
(136,732,o),
(167,732,qs),
(196,732,o),
(231,704,o),
(231,679,qs),
(231,655,o),
(198,628,o),
(167,628,qs),
(126,628,l),
(126,554,l),
(167,554,ls),
(196,554,o),
(228,525,o),
(228,498,qs),
(228,471,o),
(193,440,o),
(164,440,qs),
(135,440,o),
(97,470,o),
(92,498,q),
(6,498,l),
(9,436,o),
(96,363,o),
(166,363,qs),
(210,363,o),
(277,397,o),
(316,457,o),
(316,495,qs),
(316,527,o)
);
},
{
closed = 1;
nodes = (
(334,207,l),
(334,114,l),
(530,114,l),
(530,0,l),
(616,0,l),
(616,114,l),
(676,114,l),
(676,192,l),
(616,192,l),
(616,428,l),
(487,428,l)
);
},
{
closed = 1;
nodes = (
(530,424,l),
(530,192,l),
(381,192,l),
(393,164,l),
(574,424,l)
);
}
);
width = 700;
}
);
note = threequarters;
unicode = 190;
},
{
glyphname = uni2089;
layers = (
{
layerId = m01;
shapes = (
{
closed = 1;
nodes = (
(232,292,o),
(192,226,o),
(192,183,qs),
(192,143,o),
(227,79,o),
(289,43,o),
(329,43,qs),
(335,43,o),
(347,45,o),
(351,46,q),
(360,38,l),
(258,-108,l),
(354,-108,l),
(456,42,ls),
(483,81,o),
(508,148,o),
(508,183,qs),
(508,226,o),
(468,292,o),
(397,329,o),
(350,329,qs),
(304,329,o)
);
},
{
closed = 1;
nodes = (
(383,111,o),
(350,111,qs),
(317,111,o),
(278,150,o),
(278,182,qs),
(278,214,o),
(317,252,o),
(350,252,qs),
(383,252,o),
(422,214,o),
(422,182,qs),
(422,150,o)
);
}
);
width = 700;
}
);
note = uni2089;
unicode = 8329;
},
{
glyphname = uni2070;
layers = (
{
layerId = m01;
shapes = (
{
closed = 1;
nodes = (
(517,586,o),
(517,694,qs),
(517,802,o),
(431,917,o),
(350,917,qs),
(269,917,o),
(183,802,o),
(183,694,qs),
(183,586,o),
(269,471,o),
(350,471,qs),
(431,471,o)
);
},
{
closed = 1;
nodes = (
(269,621,o),
(269,694,qs),
(269,767,o),
(310,840,o),
(350,840,qs),
(391,840,o),
(431,767,o),
(431,694,qs),
(431,621,o),
(391,548,o),
(350,548,qs),
(310,548,o)
);
},
{
closed = 1;
nodes = (
(466,738,l),
(466,826,l),
(234,650,l),
(234,562,l)
);
}
);
width = 700;
}
);
note = uni2070;
unicode = 8304;
},
{
glyphname = uni00B9;
layers = (
{
layerId = m01;
shapes = (
{
closed = 1;
nodes = (
(517,558,l),
(421,558,l),
(421,908,l),
(304,908,l),
(227,860,l),
(227,767,l),
(373,862,l),
(335,885,l),
(335,558,l),
(227,558,l),
(227,480,l),
(517,480,l)
);
}
);
width = 700;
}
);
note = uni00B9;
unicode = 185;
},
{
glyphname = uni00B2;
layers = (
{
layerId = m01;
shapes = (
{
closed = 1;
nodes = (
(497,480,l),
(497,558,l),
(232,558,l),
(239,532,l),
(410,628,ls),
(458,655,o),
(506,728,o),
(506,772,qs),
(506,841,o),
(426,917,o),
(356,917,qs),
(289,917,o),
(205,842,o),
(200,778,q),
(286,778,l),
(292,807,o),
(329,839,o),
(356,839,qs),
(386,839,o),
(420,804,o),
(420,771,qs),
(420,749,o),
(395,710,o),
(373,697,qs),
(217,608,l),
(217,480,l)
);
}
);
width = 700;
}
);
note = uni00B2;
unicode = 178;
},
{
glyphname = uni00B3;
layers = (
{
layerId = m01;
shapes = (
{
closed = 1;
nodes = (
(473,685,o),
(442,697,q),
(442,705,l),
(473,713,o),
(509,759,o),
(509,791,qs),
(509,828,o),
(471,885,o),
(404,917,o),
(361,917,qs),
(289,917,o),
(198,841,o),
(195,778,q),
(280,778,l),
(286,808,o),
(328,840,o),
(359,840,qs),
(388,840,o),
(423,812,o),
(423,787,qs),
(423,763,o),
(390,736,o),
(359,736,qs),
(318,736,l),
(318,662,l),
(359,662,ls),
(388,662,o),
(420,633,o),
(420,606,qs),
(420,579,o),
(385,548,o),
(356,548,qs),
(327,548,o),
(289,578,o),
(284,606,q),
(198,606,l),
(201,544,o),
(288,471,o),
(358,471,qs),
(402,471,o),
(469,505,o),
(508,565,o),
(508,603,qs),
(508,635,o)
);
}
);
width = 700;
}
);
note = uni00B3;
unicode = 179;
},
{
glyphname = uni2074;
layers = (
{
layerId = m01;
shapes = (
{
closed = 1;
nodes = (
(175,687,l),
(175,594,l),
(370,594,l),
(370,480,l),
(456,480,l),
(456,594,l),
(517,594,l),
(517,672,l),
(456,672,l),
(456,908,l),
(328,908,l)
);
},
{
closed = 1;
nodes = (
(370,904,l),
(370,672,l),
(221,672,l),
(233,644,l),
(415,904,l)
);
}
);
width = 700;
}
);
note = uni2074;
unicode = 8308;
},
{
glyphname = uni2075;
layers = (
{
layerId = m01;
shapes = (
{
closed = 1;
nodes = (
(295,658,l),
(303,674,o),
(338,692,o),
(359,692,qs),
(392,692,o),
(428,654,o),
(428,621,qs),
(428,586,o),
(391,546,o),
(356,546,qs),
(330,546,o),
(293,571,o),
(286,594,q),
(201,594,l),
(207,538,o),
(292,471,o),
(357,471,qs),
(429,471,o),
(514,552,o),
(514,620,qs),
(514,686,o),
(440,765,o),
(378,765,qs),
(358,765,o),
(322,754,o),
(309,744,q),
(300,744,l),
(300,873,l),
(263,830,l),
(505,830,l),
(505,908,l),
(214,908,l),
(214,658,l)
);
}
);
width = 700;
}
);
note = uni2075;
unicode = 8309;
},
{
glyphname = uni2076;
layers = (
{
layerId = m01;
shapes = (
{
closed = 1;
nodes = (
(468,508,o),
(508,574,o),
(508,617,qs),
(508,658,o),
(473,721,o),
(411,757,o),
(371,757,qs),
(365,757,o),
(354,755,o),
(349,754,q),
(340,762,l),
(442,908,l),
(346,908,l),
(244,758,ls),
(217,719,o),
(192,652,o),
(192,617,qs),
(192,574,o),
(232,508,o),
(304,471,o),
(350,471,qs),
(397,471,o)
);
},
{
closed = 1;
nodes = (
(317,689,o),
(350,689,qs),
(383,689,o),
(422,651,o),
(422,618,qs),
(422,586,o),
(383,548,o),
(350,548,qs),
(317,548,o),
(278,586,o),
(278,618,qs),
(278,651,o)
);
}
);
width = 700;
}
);
note = uni2076;
unicode = 8310;
},
{
glyphname = uni2077;
layers = (
{
layerId = m01;
shapes = (
{
closed = 1;
nodes = (
(226,908,l),
(226,830,l),
(455,830,l),
(448,858,l),
(261,480,l),
(351,480,l),
(503,793,l),
(503,908,l)
);
}
);
width = 700;
}
);
note = uni2077;
unicode = 8311;
},
{
glyphname = uni2078;
layers = (
{
layerId = m01;
shapes = (
{
closed = 1;
nodes = (
(278,762,o),
(278,787,qs),
(278,812,o),
(316,840,o),
(350,840,qs),
(385,840,o),
(422,812,o),
(422,787,qs),
(422,762,o),
(385,733,o),
(350,733,qs),
(316,733,o)
);
},
{
closed = 1;
nodes = (
(225,714,o),
(255,703,q),
(255,694,l),
(226,684,o),
(194,633,o),
(194,597,qs),
(194,540,o),
(278,472,o),
(350,472,qs),
(422,472,o),
(506,540,o),
(506,597,qs),
(506,633,o),
(475,684,o),
(445,694,q),
(445,703,l),
(475,714,o),
(508,763,o),
(508,796,qs),
(508,852,o),
(423,917,o),
(350,917,qs),
(277,917,o),
(192,852,o),
(192,796,qs),
(192,763,o)
);
},
{
closed = 1;
nodes = (
(317,663,o),
(350,663,qs),
(383,663,o),
(420,633,o),
(420,606,qs),
(420,578,o),
(383,549,o),
(350,549,qs),
(317,549,o),
(280,578,o),
(280,606,qs),
(280,633,o)
);
}
);
width = 700;
}
);
note = uni2078;
unicode = 8312;
},
{
glyphname = uni2079;
layers = (
{
layerId = m01;
shapes = (
{
closed = 1;
nodes = (
(232,880,o),
(192,814,o),
(192,771,qs),
(192,731,o),
(227,667,o),
(289,631,o),
(329,631,qs),
(335,631,o),
(347,633,o),
(351,634,q),
(360,626,l),
(258,480,l),
(354,480,l),
(456,630,ls),
(483,669,o),
(508,736,o),
(508,771,qs),
(508,814,o),
(468,880,o),
(397,917,o),
(350,917,qs),
(304,917,o)
);
},
{
closed = 1;
nodes = (
(383,699,o),
(350,699,qs),
(317,699,o),
(278,738,o),
(278,770,qs),
(278,802,o),
(317,840,o),
(350,840,qs),
(383,840,o),
(422,802,o),
(422,770,qs),
(422,738,o)
);
}
);
width = 700;
}
);
note = uni2079;
unicode = 8313;
},
{
glyphname = period;
layers = (
{
layerId = m01;
shapes = (
{
closed = 1;
nodes = (
(442,42,o),
(442,88,qs),
(442,133,o),
(394,183,o),
(350,183,qs),
(306,183,o),
(258,133,o),
(258,88,qs),
(258,42,o),
(306,-8,o),
(350,-8,qs),
(394,-8,o)
);
}
);
width = 700;
}
);
note = period;
unicode = 46;
},
{
glyphname = comma;
layers = (
{
layerId = m01;
shapes = (
{
closed = 1;
nodes = (
(408,-152,o),
(436,-74,o),
(452,16,o),
(452,61,qs),
(452,123,o),
(403,183,o),
(350,183,q),
(350,0,l),
(341,-52,o),
(283,-150,o),
(246,-180,q),
(388,-180,l)
);
},
{
closed = 1;
nodes = (
(442,42,o),
(442,88,qs),
(442,133,o),
(394,183,o),
(350,183,qs),
(306,183,o),
(258,133,o),
(258,88,qs),
(258,42,o),
(306,-8,o),
(350,-8,qs),
(394,-8,o)
);
}
);
width = 700;
}
);
note = comma;
unicode = 44;
},
{
glyphname = ellipsis;
layers = (
{
layerId = m01;
shapes = (
{
closed = 1;
nodes = (
(425,41,o),
(425,88,qs),
(425,134,o),
(386,183,o),
(350,183,qs),
(314,183,o),
(276,134,o),
(276,88,qs),
(276,41,o),
(314,-8,o),
(350,-8,qs),
(386,-8,o)
);
},
{
closed = 1;
nodes = (
(653,41,o),
(653,88,qs),
(653,134,o),
(615,183,o),
(579,183,qs),
(543,183,o),
(504,134,o),
(504,88,qs),
(504,41,o),
(543,-8,o),
(579,-8,qs),
(615,-8,o)
);
},
{
closed = 1;
nodes = (
(196,41,o),
(196,88,qs),
(196,134,o),
(157,183,o),
(121,183,qs),
(85,183,o),
(47,134,o),
(47,88,qs),
(47,41,o),
(85,-8,o),
(121,-8,qs),
(157,-8,o)
);
}
);
width = 700;
}
);
note = ellipsis;
unicode = 8230;
},
{
glyphname = exclam;
layers = (
{
layerId = m01;
shapes = (
{
closed = 1;
nodes = (
(407,230,l),
(407,800,l),
(293,800,l),
(293,230,l)
);
},
{
closed = 1;
nodes = (
(436,35,o),
(436,72,qs),
(436,110,o),
(391,152,o),
(350,152,qs),
(309,152,o),
(264,110,o),
(264,72,qs),
(264,35,o),
(309,-6,o),
(350,-6,qs),
(391,-6,o)
);
}
);
width = 700;
}
);
note = exclam;
unicode = 33;
},
{
glyphname = exclamdown;
layers = (
{
layerId = m01;
shapes = (
{
closed = 1;
nodes = (
(293,372,l),
(293,-198,l),
(407,-198,l),
(407,372,l)
);
},
{
closed = 1;
nodes = (
(264,567,o),
(264,529,qs),
(264,491,o),
(309,450,o),
(350,450,qs),
(391,450,o),
(436,491,o),
(436,529,qs),
(436,567,o),
(391,608,o),
(350,608,qs),
(309,608,o)
);
}
);
width = 700;
}
);
note = exclamdown;
unicode = 161;
},
{
glyphname = question;
layers = (
{
layerId = m01;
shapes = (
{
closed = 1;
nodes = (
(381,279,o),
(412,334,o),
(460,377,o),
(514,420,o),
(562,473,o),
(593,547,o),
(593,600,qs),
(593,662,o),
(533,759,o),
(428,816,o),
(359,816,qs),
(251,816,o),
(115,693,o),
(101,576,q),
(211,576,l),
(224,641,o),
(299,709,o),
(358,709,qs),
(393,709,o),
(448,680,o),
(479,632,o),
(479,600,qs),
(479,561,o),
(449,505,o),
(403,460,o),
(349,416,o),
(303,364,o),
(273,295,o),
(273,246,qs),
(273,230,l),
(381,230,l),
(381,240,ls)
);
},
{
closed = 1;
nodes = (
(416,35,o),
(416,72,qs),
(416,110,o),
(371,152,o),
(329,152,qs),
(288,152,o),
(243,110,o),
(243,72,qs),
(243,35,o),
(288,-6,o),
(329,-6,qs),
(371,-6,o)
);
}
);
width = 700;
}
);
note = question;
unicode = 63;
},
{
glyphname = questiondown;
layers = (
{
layerId = m01;
shapes = (
{
closed = 1;
nodes = (
(319,323,o),
(288,268,o),
(240,224,o),
(186,182,o),
(138,129,o),
(107,55,o),
(107,2,qs),
(107,-60,o),
(167,-158,o),
(272,-214,o),
(341,-214,qs),
(449,-214,o),
(585,-90,o),
(599,26,q),
(489,26,l),
(477,-39,o),
(401,-107,o),
(342,-107,qs),
(307,-107,o),
(252,-79,o),
(221,-29,o),
(221,2,qs),
(221,40,o),
(251,96,o),
(297,142,o),
(351,186,o),
(397,238,o),
(427,307,o),
(427,356,qs),
(427,372,l),
(319,372,l),
(319,362,ls)
);
},
{
closed = 1;
nodes = (
(284,567,o),
(284,529,qs),
(284,491,o),
(330,450,o),
(371,450,qs),
(412,450,o),
(457,491,o),
(457,529,qs),
(457,567,o),
(412,608,o),
(371,608,qs),
(330,608,o)
);
}
);
width = 700;
}
);
note = questiondown;
unicode = 191;
},
{
glyphname = bullet;
layers = (
{
layerId = m01;
shapes = (
{
closed = 1;
nodes = (
(542,257,o),
(542,350,qs),
(542,443,o),
(443,542,o),
(350,542,qs),
(257,542,o),
(158,443,o),
(158,350,qs),
(158,257,o),
(257,158,o),
(350,158,qs),
(443,158,o)
);
}
);
width = 700;
}
);
note = bullet;
unicode = 8226;
},
{
glyphname = asterisk;
layers = (
{
layerId = m01;
shapes = (
{
closed = 1;
nodes = (
(399,342,l),
(350,343,l),
(336,295,l),
(466,84,l),
(561,152,l)
);
},
{
closed = 1;
nodes = (
(350,343,l),
(301,342,l),
(139,152,l),
(234,84,l),
(364,295,l)
);
},
{
closed = 1;
nodes = (
(334,389,l),
(104,484,l),
(68,373,l),
(309,315,l),
(350,343,l)
);
},
{
closed = 1;
nodes = (
(408,621,l),
(292,621,l),
(311,373,l),
(350,343,l),
(389,373,l)
);
},
{
closed = 1;
nodes = (
(596,484,l),
(366,389,l),
(350,343,l),
(391,315,l),
(632,373,l)
);
}
);
width = 700;
}
);
note = asterisk;
unicode = 42;
},
{
glyphname = numbersign;
layers = (
{
layerId = m01;
shapes = (
{
closed = 1;
nodes = (
(120,0,l),
(210,0,l),
(367,800,l),
(277,800,l)
);
},
{
closed = 1;
nodes = (
(333,0,l),
(423,0,l),
(580,800,l),
(490,800,l)
);
},
{
closed = 1;
nodes = (
(654,504,l),
(654,600,l),
(100,600,l),
(100,504,l)
);
},
{
closed = 1;
nodes = (
(600,200,l),
(600,296,l),
(46,296,l),
(46,200,l)
);
}
);
width = 700;
}
);
note = numbersign;
unicode = 35;
},
{
glyphname = slash;
layers = (
{
layerId = m01;
shapes = (
{
closed = 1;
nodes = (
(122,-170,l),
(230,-170,l),
(578,848,l),
(470,848,l)
);
}
);
width = 700;
}
);
note = slash;
unicode = 47;
},
{
glyphname = backslash;
layers = (
{
layerId = m01;
shapes = (
{
closed = 1;
nodes = (
(578,-170,l),
(230,848,l),
(122,848,l),
(470,-170,l)
);
}
);
width = 700;
}
);
note = backslash;
unicode = 92;
},
{
glyphname = endash;
layers = (
{
layerId = m01;
shapes = (
{
closed = 1;
nodes = (
(632,300,l),
(632,400,l),
(68,400,l),
(68,300,l)
);
}
);
width = 700;
}
);
note = endash;
unicode = 8211;
},
{
glyphname = emdash;
layers = (
{
layerId = m01;
shapes = (
{
closed = 1;
nodes = (
(660,300,l),
(660,400,l),
(40,400,l),
(40,300,l)
);
}
);
width = 700;
}
);
note = emdash;
unicode = 8212;
},
{
glyphname = parenleft;
layers = (
{
layerId = m01;
shapes = (
{
closed = 1;
nodes = (
(443,894,o),
(295,755,o),
(220,532,o),
(220,380,qs),
(220,228,o),
(295,5,o),
(443,-134,o),
(553,-160,q),
(553,-60,l),
(443,-21,o),
(330,201,o),
(330,380,qs),
(330,559,o),
(443,781,o),
(553,820,q),
(553,920,l)
);
}
);
width = 700;
}
);
note = parenleft;
unicode = 40;
},
{
glyphname = parenright;
layers = (
{
layerId = m01;
shapes = (
{
closed = 1;
nodes = (
(370,559,o),
(370,380,qs),
(370,201,o),
(257,-21,o),
(147,-60,q),
(147,-160,l),
(257,-134,o),
(405,5,o),
(480,228,o),
(480,380,qs),
(480,532,o),
(405,755,o),
(257,894,o),
(147,920,q),
(147,820,l),
(257,781,o)
);
}
);
width = 700;
}
);
note = parenright;
unicode = 41;
},
{
glyphname = braceleft;
layers = (
{
layerId = m01;
shapes = (
{
closed = 1;
nodes = (
(450,909,o),
(317,804,o),
(317,701,qs),
(317,663,o),
(337,599,o),
(337,562,qs),
(337,507,o),
(267,446,o),
(190,434,q),
(190,380,l),
(307,380,l),
(307,390,l),
(370,406,o),
(443,491,o),
(443,550,qs),
(443,595,o),
(423,665,o),
(423,701,qs),
(423,755,o),
(499,812,o),
(583,820,q),
(583,912,l)
);
},
{
closed = 1;
nodes = (
(423,5,o),
(423,59,qs),
(423,95,o),
(443,166,o),
(443,210,qs),
(443,269,o),
(370,354,o),
(307,370,q),
(307,380,l),
(190,380,l),
(190,326,l),
(267,314,o),
(337,253,o),
(337,198,qs),
(337,161,o),
(317,98,o),
(317,59,qs),
(317,-43,o),
(450,-148,o),
(583,-152,q),
(583,-60,l),
(499,-52,o)
);
}
);
width = 700;
}
);
note = braceleft;
unicode = 123;
},
{
glyphname = braceright;
layers = (
{
layerId = m01;
shapes = (
{
closed = 1;
nodes = (
(277,755,o),
(277,701,qs),
(277,665,o),
(257,595,o),
(257,550,qs),
(257,491,o),
(330,406,o),
(393,390,q),
(393,380,l),
(510,380,l),
(510,434,l),
(433,446,o),
(363,507,o),
(363,562,qs),
(363,599,o),
(383,663,o),
(383,701,qs),
(383,804,o),
(250,909,o),
(117,912,q),
(117,820,l),
(201,812,o)
);
},
{
closed = 1;
nodes = (
(250,-148,o),
(383,-43,o),
(383,59,qs),
(383,98,o),
(363,161,o),
(363,198,qs),
(363,253,o),
(433,314,o),
(510,326,q),
(510,380,l),
(393,380,l),
(393,370,l),
(330,354,o),
(257,269,o),
(257,210,qs),
(257,166,o),
(277,95,o),
(277,59,qs),
(277,5,o),
(201,-52,o),
(117,-60,q),
(117,-152,l)
);
}
);
width = 700;
}
);
note = braceright;
unicode = 125;
},
{
glyphname = bracketleft;
layers = (
{
layerId = m01;
shapes = (
{
closed = 1;
nodes = (
(260,-140,l),
(553,-140,l),
(553,-40,l),
(368,-40,l),
(368,800,l),
(553,800,l),
(553,900,l),
(260,900,l)
);
}
);
width = 700;
}
);
note = bracketleft;
unicode = 91;
},
{
glyphname = bracketright;
layers = (
{
layerId = m01;
shapes = (
{
closed = 1;
nodes = (
(332,800,l),
(332,-40,l),
(147,-40,l),
(147,-140,l),
(440,-140,l),
(440,900,l),
(147,900,l),
(147,800,l)
);
}
);
width = 700;
}
);
note = bracketright;
unicode = 93;
},
{
glyphname = quotedblleft;
layers = (
{
layerId = m01;
shapes = (
{
closed = 1;
nodes = (
(438,821,o),
(409,742,o),
(393,653,o),
(393,607,qs),
(393,545,o),
(444,485,o),
(496,485,q),
(496,668,l),
(505,721,o),
(563,818,o),
(600,848,q),
(457,848,l)
);
},
{
closed = 1;
nodes = (
(403,626,o),
(403,580,qs),
(403,535,o),
(452,485,o),
(496,485,qs),
(540,485,o),
(588,535,o),
(588,580,qs),
(588,626,o),
(540,676,o),
(496,676,qs),
(452,676,o)
);
},
{
closed = 1;
nodes = (
(174,821,o),
(145,742,o),
(129,653,o),
(129,607,qs),
(129,545,o),
(180,485,o),
(232,485,q),
(232,668,l),
(241,721,o),
(299,818,o),
(336,848,q),
(193,848,l)
);
},
{
closed = 1;
nodes = (
(139,626,o),
(139,580,qs),
(139,535,o),
(188,485,o),
(232,485,qs),
(276,485,o),
(324,535,o),
(324,580,qs),
(324,626,o),
(276,676,o),
(232,676,qs),
(188,676,o)
);
}
);
width = 700;
}
);
note = quotedblleft;
unicode = 8220;
},
{
glyphname = quoteleft;
layers = (
{
layerId = m01;
shapes = (
{
closed = 1;
nodes = (
(293,821,o),
(264,742,o),
(248,653,o),
(248,607,qs),
(248,545,o),
(298,485,o),
(350,485,q),
(350,668,l),
(359,721,o),
(417,818,o),
(454,848,q),
(312,848,l)
);
},
{
closed = 1;
nodes = (
(258,626,o),
(258,580,qs),
(258,535,o),
(306,485,o),
(350,485,qs),
(394,485,o),
(442,535,o),
(442,580,qs),
(442,626,o),
(394,676,o),
(350,676,qs),
(306,676,o)
);
}
);
width = 700;
}
);
note = quoteleft;
unicode = 8216;
},
{
glyphname = guillemotleft;
layers = (
{
layerId = m01;
shapes = (
{
closed = 1;
nodes = (
(174,370,l),
(174,302,l),
(382,491,l),
(382,616,l),
(142,398,l),
(142,270,l),
(382,52,l),
(382,182,l)
);
},
{
closed = 1;
nodes = (
(390,369,l),
(390,303,l),
(558,434,l),
(558,546,l),
(362,393,l),
(362,274,l),
(558,122,l),
(558,239,l)
);
}
);
width = 700;
}
);
note = guillemotleft;
unicode = 171;
},
{
glyphname = guillemotright;
layers = (
{
layerId = m01;
shapes = (
{
closed = 1;
nodes = (
(526,298,l),
(526,366,l),
(318,177,l),
(318,52,l),
(558,270,l),
(558,398,l),
(318,616,l),
(318,486,l)
);
},
{
closed = 1;
nodes = (
(310,299,l),
(310,365,l),
(142,234,l),
(142,122,l),
(338,275,l),
(338,394,l),
(142,546,l),
(142,429,l)
);
}
);
width = 700;
}
);
note = guillemotright;
unicode = 187;
},
{
glyphname = guilsinglleft;
layers = (
{
layerId = m01;
shapes = (
{
closed = 1;
nodes = (
(262,370,l),
(262,302,l),
(470,491,l),
(470,616,l),
(230,398,l),
(230,270,l),
(470,52,l),
(470,182,l)
);
}
);
width = 700;
}
);
note = guilsinglleft;
unicode = 8249;
},
{
glyphname = guilsinglright;
layers = (
{
layerId = m01;
shapes = (
{
closed = 1;
nodes = (
(438,298,l),
(438,366,l),
(230,177,l),
(230,52,l),
(470,270,l),
(470,398,l),
(230,616,l),
(230,486,l)
);
}
);
width = 700;
}
);
note = guilsinglright;
unicode = 8250;
},
{
glyphname = quotesingle;
layers = (
{
layerId = m01;
shapes = (
{
closed = 1;
nodes = (
(391,458,l),
(411,848,l),
(289,848,l),
(309,458,l)
);
}
);
width = 700;
}
);
note = quotesingle;
unicode = 39;
},
{
glyphname = florin;
layers = (
{
layerId = m01;
shapes = (
{
closed = 1;
nodes = (
(418,848,o),
(293,735,o),
(293,631,qs),
(293,600,l),
(163,600,l),
(163,497,l),
(293,497,l),
(293,17,ls),
(293,-38,o),
(246,-97,o),
(201,-97,qs),
(163,-97,l),
(163,-200,l),
(201,-200,ls),
(298,-200,o),
(403,-87,o),
(403,17,qs),
(403,497,l),
(590,497,l),
(590,600,l),
(403,600,l),
(403,631,ls),
(403,686,o),
(471,745,o),
(533,745,qs),
(590,745,l),
(590,848,l),
(533,848,ls)
);
}
);
width = 700;
}
);
note = florin;
unicode = 402;
},
{
glyphname = at;
layers = (
{
layerId = m01;
shapes = (
{
closed = 1;
nodes = (
(490,-198,o),
(515,-181,q),
(515,-87,l),
(490,-103,o),
(423,-120,o),
(389,-120,qs),
(277,-120,o),
(155,96,o),
(155,300,qs),
(155,499,o),
(272,710,o),
(381,710,qs),
(451,710,o),
(523,617,o),
(523,526,q),
(493,526,l),
(467,575,o),
(407,575,qs),
(336,575,o),
(261,435,o),
(261,300,qs),
(261,165,o),
(336,25,o),
(407,25,qs),
(467,25,o),
(493,74,q),
(523,74,l),
(523,40,l),
(631,40,l),
(631,526,ls),
(631,667,o),
(502,816,o),
(381,816,qs),
(278,816,o),
(131,694,o),
(53,464,o),
(53,300,qs),
(53,137,o),
(133,-94,o),
(284,-216,o),
(389,-216,qs),
(423,-216,o)
);
},
{
closed = 1;
nodes = (
(373,209,o),
(373,300,qs),
(373,392,o),
(410,471,o),
(450,471,qs),
(491,471,o),
(527,392,o),
(527,300,qs),
(527,209,o),
(491,129,o),
(450,129,qs),
(410,129,o)
);
}
);
width = 700;
}
);
note = at;
unicode = 64;
},
{
glyphname = ampersand;
layers = (
{
layerId = m01;
shapes = (
{
closed = 1;
nodes = (
(474,44,o),
(560,153,o),
(617,304,o),
(630,396,q),
(523,396,l),
(509,298,o),
(454,162,o),
(366,92,o),
(300,92,qs),
(267,92,o),
(217,119,o),
(190,168,o),
(190,201,qs),
(190,244,o),
(226,308,o),
(286,362,o),
(359,411,o),
(430,461,o),
(490,520,o),
(527,594,o),
(527,642,qs),
(527,695,o),
(483,773,o),
(405,816,o),
(353,816,qs),
(298,816,o),
(215,769,o),
(169,684,o),
(169,628,qs),
(169,594,o),
(187,529,o),
(221,464,o),
(244,429,qs),
(529,0,l),
(659,0,l),
(336,486,ls),
(318,512,o),
(294,557,o),
(280,601,o),
(280,625,qs),
(280,666,o),
(319,712,o),
(353,712,qs),
(386,712,o),
(423,673,o),
(423,638,qs),
(423,604,o),
(386,550,o),
(324,504,o),
(250,458,o),
(175,406,o),
(114,341,o),
(76,254,o),
(76,197,qs),
(76,135,o),
(132,38,o),
(230,-16,o),
(292,-16,qs),
(361,-16,o)
);
}
);
width = 700;
}
);
note = ampersand;
unicode = 38;
},
{
glyphname = paragraph;
layers = (
{
layerId = m01;
shapes = (
{
closed = 1;
nodes = (
(469,-200,l),
(563,-200,l),
(563,800,l),
(469,800,l)
);
},
{
closed = 1;
nodes = (
(126,357,o),
(206,300,o),
(257,300,qs),
(274,300,l),
(274,-200,l),
(368,-200,l),
(368,800,l),
(257,800,ls),
(206,800,o),
(126,743,o),
(79,644,o),
(79,580,qs),
(79,520,ls),
(79,456,o)
);
}
);
width = 700;
}
);
note = paragraph;
unicode = 182;
},
{
glyphname = section;
layers = (
{
layerId = m01;
shapes = (
{
closed = 1;
nodes = (
(561,709,o),
(451,816,o),
(356,816,qs),
(295,816,o),
(205,771,o),
(155,691,o),
(155,638,qs),
(155,594,o),
(194,522,o),
(233,495,q),
(226,474,l),
(348,426,l),
(352,426,ls),
(407,426,o),
(475,355,o),
(475,300,qs),
(475,245,o),
(407,174,o),
(352,174,qs),
(348,174,l),
(348,170,l),
(472,124,l),
(525,149,o),
(585,248,o),
(585,311,qs),
(585,381,o),
(507,491,o),
(438,517,qs),
(334,557,ls),
(300,570,o),
(265,613,o),
(265,641,qs),
(265,673,o),
(315,712,o),
(355,712,qs),
(401,712,o),
(457,660,o),
(464,610,q),
(565,610,l)
);
},
{
closed = 1;
nodes = (
(139,-109,o),
(249,-216,o),
(344,-216,qs),
(405,-216,o),
(495,-171,o),
(545,-91,o),
(545,-38,qs),
(545,7,o),
(506,78,o),
(467,105,q),
(474,126,l),
(352,174,l),
(348,174,ls),
(293,174,o),
(225,245,o),
(225,300,qs),
(225,355,o),
(293,426,o),
(348,426,qs),
(352,426,l),
(352,430,l),
(228,476,l),
(175,451,o),
(115,353,o),
(115,289,qs),
(115,219,o),
(193,109,o),
(262,83,qs),
(366,43,ls),
(400,30,o),
(435,-12,o),
(435,-41,qs),
(435,-73,o),
(385,-112,o),
(345,-112,qs),
(299,-112,o),
(244,-60,o),
(236,-10,q),
(135,-10,l)
);
}
);
width = 700;
}
);
note = section;
unicode = 167;
},
{
glyphname = copyright;
layers = (
{
layerId = m01;
shapes = (
{
closed = 1;
nodes = (
(573,110,o),
(642,280,o),
(642,400,qs),
(642,520,o),
(573,690,o),
(442,780,o),
(350,780,qs),
(259,780,o),
(127,690,o),
(58,520,o),
(58,400,qs),
(58,280,o),
(127,110,o),
(259,20,o),
(350,20,qs),
(442,20,o)
);
},
{
closed = 1;
nodes = (
(140,256,o),
(140,400,qs),
(140,545,o),
(248,698,o),
(350,698,qs),
(452,698,o),
(560,545,o),
(560,400,qs),
(560,256,o),
(452,102,o),
(350,102,qs),
(248,102,o)
);
},
{
closed = 1;
nodes = (
(411,312,o),
(382,273,o),
(357,273,qs),
(326,273,o),
(294,336,o),
(294,400,qs),
(294,465,o),
(327,528,o),
(360,528,qs),
(388,528,o),
(418,483,o),
(420,436,q),
(504,436,l),
(501,525,o),
(428,615,o),
(358,615,qs),
(282,615,o),
(203,507,o),
(203,400,qs),
(203,294,o),
(281,186,o),
(356,186,qs),
(419,186,o),
(493,272,o),
(496,352,q),
(413,352,l)
);
}
);
width = 700;
}
);
note = copyright;
unicode = 169;
},
{
glyphname = registered;
layers = (
{
layerId = m01;
shapes = (
{
closed = 1;
nodes = (
(324,497,l),
(324,581,l),
(367,581,ls),
(408,581,o),
(460,624,o),
(460,658,qs),
(460,693,o),
(408,737,o),
(367,737,qs),
(258,737,l),
(258,497,l)
);
},
{
closed = 1;
nodes = (
(363,683,ls),
(393,683,o),
(393,657,qs),
(393,631,o),
(363,631,qs),
(324,631,l),
(324,683,l)
);
},
{
closed = 1;
nodes = (
(412,597,l),
(342,597,l),
(393,497,l),
(464,497,l)
);
},
{
closed = 1;
nodes = (
(519,450,o),
(580,553,o),
(580,617,qs),
(580,681,o),
(519,784,o),
(415,845,o),
(350,845,qs),
(286,845,o),
(181,784,o),
(120,681,o),
(120,617,qs),
(120,553,o),
(181,450,o),
(286,389,o),
(350,389,qs),
(415,389,o)
);
},
{
closed = 1;
nodes = (
(225,491,o),
(180,569,o),
(180,617,qs),
(180,665,o),
(225,743,o),
(303,789,o),
(350,789,qs),
(398,789,o),
(475,743,o),
(520,665,o),
(520,617,qs),
(520,569,o),
(475,491,o),
(398,445,o),
(350,445,qs),
(303,445,o)
);
}
);
width = 700;
}
);
note = registered;
unicode = 174;
},
{
glyphname = trademark;
layers = (
{
layerId = m01;
shapes = (
{
closed = 1;
nodes = (
(221,732,l),
(317,732,l),
(317,800,l),
(53,800,l),
(53,732,l),
(149,732,l),
(149,440,l),
(221,440,l)
);
},
{
closed = 1;
nodes = (
(429,573,l),
(424,724,l),
(433,724,l),
(455,553,l),
(531,553,l),
(554,724,l),
(563,724,l),
(558,573,l),
(558,440,l),
(627,440,l),
(627,800,l),
(522,800,l),
(499,626,l),
(490,626,l),
(468,800,l),
(360,800,l),
(360,440,l),
(429,440,l)
);
}
);
width = 700;
}
);
note = trademark;
unicode = 8482;
},
{
glyphname = degree;
layers = (
{
layerId = m01;
shapes = (
{
closed = 1;
nodes = (
(483,504,o),
(532,586,o),
(532,636,qs),
(532,687,o),
(483,768,o),
(401,816,o),
(350,816,qs),
(299,816,o),
(216,768,o),
(168,687,o),
(168,636,qs),
(168,586,o),
(216,504,o),
(299,456,o),
(350,456,qs),
(401,456,o)
);
},
{
closed = 1;
nodes = (
(290,574,o),
(268,613,o),
(268,636,qs),
(268,660,o),
(290,698,o),
(327,720,o),
(350,720,qs),
(373,720,o),
(410,698,o),
(432,660,o),
(432,636,qs),
(432,613,o),
(410,574,o),
(373,552,o),
(350,552,qs),
(327,552,o)
);
}
);
width = 700;
}
);
note = degree;
unicode = 176;
},
{
glyphname = bar;
layers = (
{
layerId = m01;
shapes = (
{
closed = 1;
nodes = (
(397,860,l),
(303,860,l),
(303,-60,l),
(397,-60,l)
);
}
);
width = 700;
}
);
note = bar;
unicode = 124;
},
{
glyphname = brokenbar;
layers = (
{
layerId = m01;
shapes = (
{
closed = 1;
nodes = (
(303,490,l),
(397,490,l),
(397,860,l),
(303,860,l)
);
},
{
closed = 1;
nodes = (
(303,-60,l),
(397,-60,l),
(397,310,l),
(303,310,l)
);
}
);
width = 700;
}
);
note = brokenbar;
unicode = 166;
},
{
glyphname = dagger;
layers = (
{
layerId = m01;
shapes = (
{
closed = 1;
nodes = (
(404,820,l),
(296,820,l),
(296,-20,l),
(404,-20,l)
);
},
{
closed = 1;
nodes = (
(574,600,l),
(126,600,l),
(126,504,l),
(574,504,l)
);
}
);
width = 700;
}
);
note = dagger;
unicode = 8224;
},
{
glyphname = daggerdbl;
layers = (
{
layerId = m01;
shapes = (
{
closed = 1;
nodes = (
(404,820,l),
(296,820,l),
(296,-20,l),
(404,-20,l)
);
},
{
closed = 1;
nodes = (
(574,296,l),
(126,296,l),
(126,200,l),
(574,200,l)
);
},
{
closed = 1;
nodes = (
(574,600,l),
(126,600,l),
(126,504,l),
(574,504,l)
);
}
);
width = 700;
}
);
note = daggerdbl;
unicode = 8225;
},
{
glyphname = uni2116;
layers = (
{
layerId = m01;
shapes = (
{
closed = 1;
nodes = (
(167,497,l),
(160,687,l),
(171,687,l),
(251,0,l),
(437,0,l),
(437,800,l),
(333,800,l),
(333,303,l),
(340,113,l),
(329,113,l),
(249,800,l),
(63,800,l),
(63,0,l),
(167,0,l)
);
},
{
closed = 1;
nodes = (
(658,506,o),
(680,583,o),
(680,644,qs),
(680,706,o),
(658,782,o),
(611,817,o),
(574,817,qs),
(536,817,o),
(489,782,o),
(467,706,o),
(467,644,qs),
(467,583,o),
(489,506,o),
(536,471,o),
(574,471,qs),
(611,471,o)
);
},
{
closed = 1;
nodes = (
(550,586,o),
(550,644,qs),
(550,702,o),
(560,740,o),
(574,740,qs),
(588,740,o),
(597,702,o),
(597,644,qs),
(597,586,o),
(588,548,o),
(574,548,qs),
(560,548,o)
);
},
{
closed = 1;
nodes = (
(659,420,l),
(487,420,l),
(487,344,l),
(659,344,l)
);
}
);
width = 700;
}
);
note = uni2116;
unicode = 8470;
},
{
glyphname = cent;
layers = (
{
layerId = m01;
shapes = (
{
closed = 1;
nodes = (
(403,700,l),
(323,700,l),
(323,-100,l),
(403,-100,l)
);
},
{
closed = 1;
nodes = (
(542,41,o),
(608,144,o),
(613,214,q),
(512,214,l),
(497,154,o),
(420,87,o),
(364,87,qs),
(289,87,o),
(205,198,o),
(205,297,qs),
(205,399,o),
(291,513,o),
(370,513,qs),
(432,513,o),
(513,437,o),
(526,368,q),
(627,368,l),
(624,444,o),
(560,555,o),
(448,616,o),
(374,616,qs),
(289,616,o),
(164,538,o),
(96,395,o),
(96,297,qs),
(96,201,o),
(162,60,o),
(282,-16,o),
(364,-16,qs),
(433,-16,o)
);
}
);
width = 700;
}
);
note = cent;
unicode = 162;
},
{
glyphname = currency;
layers = (
{
layerId = m01;
shapes = (
{
closed = 1;
nodes = (
(503,197,o),
(560,292,o),
(560,350,qs),
(560,408,o),
(503,503,o),
(408,560,o),
(350,560,qs),
(292,560,o),
(197,503,o),
(140,408,o),
(140,350,qs),
(140,292,o),
(197,197,o),
(292,140,o),
(350,140,qs),
(408,140,o)
);
},
{
closed = 1;
nodes = (
(180,237,l),
(95,152,l),
(152,95,l),
(237,180,l)
);
},
{
closed = 1;
nodes = (
(263,263,o),
(230,317,o),
(230,350,qs),
(230,383,o),
(263,438,o),
(317,470,o),
(350,470,qs),
(383,470,o),
(438,438,o),
(470,383,o),
(470,350,qs),
(470,317,o),
(438,263,o),
(383,230,o),
(350,230,qs),
(317,230,o)
);
},
{
closed = 1;
nodes = (
(152,605,l),
(95,548,l),
(180,463,l),
(237,520,l)
);
},
{
closed = 1;
nodes = (
(520,237,l),
(463,180,l),
(548,95,l),
(605,152,l)
);
},
{
closed = 1;
nodes = (
(548,605,l),
(463,520,l),
(520,463,l),
(605,548,l)
);
}
);
width = 700;
}
);
note = currency;
unicode = 164;
},
{
glyphname = dollar;
layers = (
{
layerId = m01;
shapes = (
{
closed = 1;
nodes = (
(400,900,l),
(320,900,l),
(320,-100,l),
(400,-100,l)
);
},
{
closed = 1;
nodes = (
(89,136,o),
(158,37,o),
(277,-16,o),
(357,-16,qs),
(436,-16,o),
(554,43,o),
(619,150,o),
(619,223,qs),
(619,318,o),
(513,433,o),
(408,450,qs),
(320,463,ls),
(266,472,o),
(207,530,o),
(207,576,qs),
(207,638,o),
(290,709,o),
(363,709,qs),
(429,709,o),
(513,640,o),
(529,576,q),
(637,576,l),
(632,651,o),
(563,758,o),
(443,816,o),
(363,816,qs),
(283,816,o),
(162,756,o),
(95,649,o),
(95,576,qs),
(95,480,o),
(201,366,o),
(305,348,qs),
(393,335,ls),
(448,327,o),
(507,268,o),
(507,223,qs),
(507,161,o),
(427,91,o),
(357,91,qs),
(293,91,o),
(211,149,o),
(194,204,q),
(85,204,l)
);
}
);
width = 700;
}
);
note = dollar;
unicode = 36;
},
{
glyphname = Euro;
layers = (
{
layerId = m01;
shapes = (
{
closed = 1;
nodes = (
(567,44,o),
(627,160,o),
(632,241,q),
(528,241,l),
(517,167,o),
(449,91,o),
(394,91,qs),
(313,91,o),
(236,241,o),
(236,400,qs),
(236,559,o),
(315,709,o),
(397,709,qs),
(460,709,o),
(535,622,o),
(546,539,q),
(650,539,l),
(645,628,o),
(582,751,o),
(472,816,o),
(397,816,qs),
(264,816,o),
(126,607,o),
(126,400,qs),
(126,193,o),
(263,-16,o),
(394,-16,qs),
(464,-16,o)
);
},
{
closed = 1;
nodes = (
(453,367,l),
(40,367,l),
(40,275,l),
(453,275,l)
);
},
{
closed = 1;
nodes = (
(453,539,l),
(40,539,l),
(40,447,l),
(453,447,l)
);
}
);
width = 700;
}
);
note = Euro;
unicode = 8364;
},
{
glyphname = uni20B4;
layers = (
{
layerId = m01;
shapes = (
{
closed = 1;
nodes = (
(595,91,o),
(607,194,q),
(499,194,l),
(484,142,o),
(416,91,o),
(360,91,qs),
(299,91,o),
(227,146,o),
(227,192,qs),
(227,237,o),
(272,303,o),
(324,331,qs),
(425,385,ls),
(488,420,o),
(564,489,o),
(600,568,o),
(600,616,qs),
(600,674,o),
(538,764,o),
(431,816,o),
(362,816,qs),
(254,816,o),
(122,707,o),
(110,606,q),
(218,606,l),
(232,656,o),
(305,709,o),
(362,709,qs),
(397,709,o),
(452,683,o),
(484,637,o),
(484,608,qs),
(484,562,o),
(438,496,o),
(385,467,qs),
(284,413,ls),
(222,379,o),
(145,310,o),
(111,232,o),
(110,184,qs),
(111,123,o),
(172,33,o),
(284,-16,o),
(360,-16,qs),
(468,-16,o)
);
},
{
closed = 1;
nodes = (
(641,361,l),
(59,361,l),
(59,279,l),
(641,279,l)
);
},
{
closed = 1;
nodes = (
(641,521,l),
(59,521,l),
(59,439,l),
(641,439,l)
);
}
);
width = 700;
}
);
note = uni20B4;
unicode = 8372;
},
{
glyphname = uni20BD;
layers = (
{
layerId = m01;
shapes = (
{
closed = 1;
nodes = (
(49,412,l),
(49,320,l),
(153,320,l),
(153,240,l),
(49,240,l),
(49,148,l),
(153,148,l),
(153,0,l),
(263,0,l),
(263,148,l),
(443,148,l),
(443,240,l),
(263,240,l),
(263,320,l),
(397,320,ls),
(477,320,o),
(592,378,o),
(654,486,o),
(654,560,qs),
(654,635,o),
(592,742,o),
(477,800,o),
(397,800,qs),
(153,800,l),
(153,412,l)
);
},
{
closed = 1;
nodes = (
(401,690,ls),
(465,690,o),
(538,618,o),
(538,556,qs),
(538,494,o),
(465,422,o),
(401,422,qs),
(263,422,l),
(263,690,l)
);
}
);
width = 700;
}
);
note = uni20BD;
unicode = 8381;
},
{
glyphname = sterling;
layers = (
{
layerId = m01;
shapes = (
{
closed = 1;
nodes = (
(615,107,l),
(203,107,l),
(203,119,l),
(270,132,o),
(337,221,o),
(337,296,qs),
(337,339,o),
(317,407,o),
(290,471,o),
(270,538,o),
(270,579,qs),
(270,637,o),
(342,709,o),
(402,709,qs),
(465,709,o),
(536,634,o),
(547,556,q),
(655,556,l),
(649,682,o),
(518,816,o),
(402,816,qs),
(329,816,o),
(220,757,o),
(158,648,o),
(158,573,qs),
(158,523,o),
(178,447,o),
(205,383,o),
(225,321,o),
(225,286,qs),
(225,233,o),
(165,174,o),
(103,166,q),
(103,0,l),
(615,0,l)
);
},
{
closed = 1;
nodes = (
(512,416,l),
(103,416,l),
(103,320,l),
(512,320,l)
);
}
);
width = 700;
}
);
note = sterling;
unicode = 163;
},
{
glyphname = yen;
layers = (
{
layerId = m01;
shapes = (
{
closed = 1;
nodes = (
(583,389,l),
(117,389,l),
(117,297,l),
(583,297,l)
);
},
{
closed = 1;
nodes = (
(583,217,l),
(117,217,l),
(117,125,l),
(583,125,l)
);
},
{
closed = 1;
nodes = (
(293,343,l),
(293,0,l),
(407,0,l),
(407,343,l),
(659,800,l),
(544,800,l),
(368,480,l),
(358,444,l),
(348,444,l),
(337,480,l),
(164,800,l),
(41,800,l)
);
}
);
width = 700;
}
);
note = yen;
unicode = 165;
},
{
glyphname = plus;
layers = (
{
layerId = m01;
shapes = (
{
closed = 1;
nodes = (
(400,300,l),
(633,300,l),
(633,400,l),
(400,400,l),
(400,633,l),
(300,633,l),
(300,400,l),
(67,400,l),
(67,300,l),
(300,300,l),
(300,67,l),
(400,67,l)
);
}
);
width = 700;
}
);
note = plus;
unicode = 43;
},
{
glyphname = minus;
layers = (
{
layerId = m01;
shapes = (
{
closed = 1;
nodes = (
(633,400,l),
(67,400,l),
(67,300,l),
(633,300,l)
);
}
);
width = 700;
}
);
note = minus;
unicode = 8722;
},
{
glyphname = multiply;
layers = (
{
layerId = m01;
shapes = (
{
closed = 1;
nodes = (
(522,112,l),
(588,178,l),
(416,350,l),
(588,522,l),
(522,588,l),
(350,416,l),
(178,588,l),
(112,522,l),
(284,350,l),
(112,178,l),
(178,112,l),
(350,284,l)
);
}
);
width = 700;
}
);
note = multiply;
unicode = 215;
},
{
glyphname = equal;
layers = (
{
layerId = m01;
shapes = (
{
closed = 1;
nodes = (
(610,537,l),
(90,537,l),
(90,437,l),
(610,437,l)
);
},
{
closed = 1;
nodes = (
(610,263,l),
(90,263,l),
(90,163,l),
(610,163,l)
);
}
);
width = 700;
}
);
note = equal;
unicode = 61;
},
{
glyphname = notequal;
layers = (
{
layerId = m01;
shapes = (
{
closed = 1;
nodes = (
(242,10,l),
(560,690,l),
(458,690,l),
(140,10,l)
);
},
{
closed = 1;
nodes = (
(610,537,l),
(90,537,l),
(90,437,l),
(610,437,l)
);
},
{
closed = 1;
nodes = (
(610,263,l),
(90,263,l),
(90,163,l),
(610,163,l)
);
}
);
width = 700;
}
);
note = notequal;
unicode = 8800;
},
{
glyphname = greater;
layers = (
{
layerId = m01;
shapes = (
{
closed = 1;
nodes = (
(587,431,l),
(113,658,l),
(113,545,l),
(520,355,l),
(520,345,l),
(113,155,l),
(113,42,l),
(587,269,l)
);
}
);
width = 700;
}
);
note = greater;
unicode = 62;
},
{
glyphname = less;
layers = (
{
layerId = m01;
shapes = (
{
closed = 1;
nodes = (
(180,345,l),
(180,355,l),
(587,545,l),
(587,658,l),
(113,431,l),
(113,269,l),
(587,42,l),
(587,155,l)
);
}
);
width = 700;
}
);
note = less;
unicode = 60;
},
{
glyphname = plusminus;
layers = (
{
layerId = m01;
shapes = (
{
closed = 1;
nodes = (
(400,375,l),
(633,375,l),
(633,475,l),
(400,475,l),
(400,673,l),
(300,673,l),
(300,475,l),
(67,475,l),
(67,375,l),
(300,375,l),
(300,177,l),
(400,177,l)
);
},
{
closed = 1;
nodes = (
(633,127,l),
(67,127,l),
(67,27,l),
(633,27,l)
);
}
);
width = 700;
}
);
note = plusminus;
unicode = 177;
},
{
glyphname = asciitilde;
layers = (
{
layerId = m01;
shapes = (
{
closed = 1;
nodes = (
(612,329,o),
(620,411,q),
(527,411,l),
(524,375,o),
(493,334,o),
(470,334,qs),
(447,334,o),
(409,360,o),
(371,398,o),
(327,436,o),
(270,462,o),
(231,462,qs),
(169,462,o),
(89,371,o),
(80,289,q),
(173,289,l),
(177,326,o),
(207,366,o),
(230,366,qs),
(253,366,o),
(291,340,o),
(329,302,o),
(373,264,o),
(430,238,o),
(469,238,qs),
(532,238,o)
);
}
);
width = 700;
}
);
note = asciitilde;
unicode = 126;
},
{
glyphname = logicalnot;
layers = (
{
layerId = m01;
shapes = (
{
closed = 1;
nodes = (
(633,410,l),
(67,410,l),
(67,310,l),
(523,310,l),
(523,107,l),
(633,107,l)
);
}
);
width = 700;
}
);
note = logicalnot;
unicode = 172;
},
{
glyphname = asciicircum;
layers = (
{
layerId = m01;
shapes = (
{
closed = 1;
nodes = (
(376,798,l),
(324,798,l),
(477,513,l),
(585,513,l),
(417,816,l),
(283,816,l),
(115,513,l),
(223,513,l)
);
}
);
width = 700;
}
);
note = asciicircum;
unicode = 94;
},
{
glyphname = uni00B5;
layers = (
{
layerId = m01;
shapes = (
{
closed = 1;
nodes = (
(445,17,o),
(468,47,q),
(482,47,l),
(482,0,l),
(592,0,l),
(592,600,l),
(482,600,l),
(482,244,ls),
(482,169,o),
(414,88,o),
(350,88,qs),
(286,88,o),
(218,169,o),
(218,244,q),
(128,217,l),
(128,147,o),
(176,42,o),
(261,-16,o),
(318,-16,qs),
(368,-16,o)
);
},
{
closed = 1;
nodes = (
(208,100,l),
(218,100,l),
(218,244,l),
(218,600,l),
(108,600,l),
(108,-200,l),
(218,-200,l)
);
}
);
width = 700;
}
);
note = uni00B5;
unicode = 181;
},
{
glyphname = percent;
layers = (
{
layerId = m01;
shapes = (
{
closed = 1;
nodes = (
(655,660,l),
(45,238,l),
(45,140,l),
(655,562,l)
);
},
{
closed = 1;
nodes = (
(642,76,o),
(642,162,qs),
(642,248,o),
(564,340,o),
(491,340,qs),
(418,340,o),
(340,248,o),
(340,162,qs),
(340,76,o),
(418,-16,o),
(491,-16,qs),
(564,-16,o)
);
},
{
closed = 1;
nodes = (
(438,122,o),
(438,162,qs),
(438,202,o),
(465,244,o),
(491,244,qs),
(516,244,o),
(544,202,o),
(544,162,qs),
(544,122,o),
(516,80,o),
(491,80,qs),
(465,80,o)
);
},
{
closed = 1;
nodes = (
(58,724,o),
(58,638,qs),
(58,552,o),
(137,460,o),
(209,460,qs),
(282,460,o),
(360,552,o),
(360,638,qs),
(360,724,o),
(282,816,o),
(209,816,qs),
(137,816,o)
);
},
{
closed = 1;
nodes = (
(262,678,o),
(262,638,qs),
(262,598,o),
(235,556,o),
(209,556,qs),
(184,556,o),
(156,598,o),
(156,638,qs),
(156,678,o),
(184,720,o),
(209,720,qs),
(235,720,o)
);
}
);
width = 700;
}
);
note = percent;
unicode = 37;
},
{
glyphname = perthousand;
layers = (
{
layerId = m01;
shapes = (
{
closed = 1;
nodes = (
(655,657,l),
(45,345,l),
(45,254,l),
(655,566,l)
);
},
{
closed = 1;
nodes = (
(457,71,o),
(457,152,qs),
(457,233,o),
(388,320,o),
(323,320,qs),
(258,320,o),
(188,233,o),
(188,152,qs),
(188,71,o),
(258,-16,o),
(323,-16,qs),
(388,-16,o)
);
},
{
closed = 1;
nodes = (
(286,116,o),
(286,152,qs),
(286,188,o),
(310,224,o),
(333,224,qs),
(356,224,o),
(379,188,o),
(379,152,qs),
(379,116,o),
(356,80,o),
(333,80,qs),
(310,80,o)
);
},
{
closed = 1;
nodes = (
(488,116,o),
(488,152,qs),
(488,188,o),
(511,224,o),
(534,224,qs),
(557,224,o),
(580,188,o),
(580,152,qs),
(580,116,o),
(557,80,o),
(534,80,qs),
(511,80,o)
);
},
{
closed = 1;
nodes = (
(678,71,o),
(678,152,qs),
(678,233,o),
(609,320,o),
(544,320,qs),
(479,320,o),
(410,233,o),
(410,152,qs),
(410,71,o),
(479,-16,o),
(544,-16,qs),
(609,-16,o)
);
},
{
closed = 1;
nodes = (
(310,567,o),
(310,648,qs),
(310,729,o),
(236,816,o),
(166,816,qs),
(96,816,o),
(22,729,o),
(22,648,qs),
(22,567,o),
(96,480,o),
(166,480,qs),
(236,480,o)
);
},
{
closed = 1;
nodes = (
(120,612,o),
(120,648,qs),
(120,684,o),
(143,720,o),
(166,720,qs),
(189,720,o),
(212,684,o),
(212,648,qs),
(212,612,o),
(189,576,o),
(166,576,qs),
(143,576,o)
);
}
);
width = 700;
}
);
note = perthousand;
unicode = 8240;
},
{
glyphname = less.case;
layers = (
{
layerId = m01;
shapes = (
{
closed = 1;
nodes = (
(180,395,l),
(180,405,l),
(587,595,l),
(587,708,l),
(113,481,l),
(113,319,l),
(587,92,l),
(587,205,l)
);
}
);
width = 700;
}
);
note = less.case;
},
{
glyphname = percent.cv01;
layers = (
{
layerId = m01;
shapes = (
{
closed = 1;
nodes = (
(642,88,o),
(642,194,qs),
(642,298,o),
(567,400,o),
(491,400,qs),
(415,400,o),
(340,298,o),
(340,194,qs),
(340,88,o),
(415,-16,o),
(491,-16,qs),
(567,-16,o)
);
},
{
closed = 1;
nodes = (
(311,340,l),
(227,340,l),
(88,0,l),
(179,0,l)
);
},
{
closed = 1;
nodes = (
(438,137,o),
(438,194,qs),
(438,250,o),
(464,304,o),
(491,304,qs),
(518,304,o),
(544,250,o),
(544,194,qs),
(544,137,o),
(518,80,o),
(491,80,qs),
(464,80,o)
);
},
{
closed = 1;
nodes = (
(58,712,o),
(58,606,qs),
(58,502,o),
(134,400,o),
(209,400,qs),
(286,400,o),
(360,502,o),
(360,606,qs),
(360,712,o),
(286,816,o),
(209,816,qs),
(134,816,o)
);
},
{
closed = 1;
nodes = (
(389,460,l),
(473,460,l),
(612,800,l),
(521,800,l)
);
},
{
closed = 1;
nodes = (
(262,664,o),
(262,606,qs),
(262,551,o),
(236,496,o),
(209,496,qs),
(183,496,o),
(156,551,o),
(156,606,qs),
(156,664,o),
(183,720,o),
(209,720,qs),
(236,720,o)
);
}
);
width = 700;
}
);
note = percent.cv01;
},
{
glyphname = percent.cv02;
layers = (
{
layerId = m01;
shapes = (
{
closed = 1;
nodes = (
(95,-19,l),
(605,691,l),
(605,819,l),
(95,109,l)
);
},
{
closed = 1;
nodes = (
(642,76,o),
(642,162,qs),
(642,248,o),
(564,340,o),
(491,340,qs),
(418,340,o),
(340,248,o),
(340,162,qs),
(340,76,o),
(418,-16,o),
(491,-16,qs),
(564,-16,o)
);
},
{
closed = 1;
nodes = (
(438,122,o),
(438,162,qs),
(438,202,o),
(465,244,o),
(491,244,qs),
(516,244,o),
(544,202,o),
(544,162,qs),
(544,122,o),
(516,80,o),
(491,80,qs),
(465,80,o)
);
},
{
closed = 1;
nodes = (
(58,724,o),
(58,638,qs),
(58,552,o),
(137,460,o),
(209,460,qs),
(282,460,o),
(360,552,o),
(360,638,qs),
(360,724,o),
(282,816,o),
(209,816,qs),
(137,816,o)
);
},
{
closed = 1;
nodes = (
(262,678,o),
(262,638,qs),
(262,598,o),
(235,556,o),
(209,556,qs),
(184,556,o),
(156,598,o),
(156,638,qs),
(156,678,o),
(184,720,o),
(209,720,qs),
(235,720,o)
);
}
);
width = 700;
}
);
note = percent.cv02;
},
{
glyphname = arrowup;
layers = (
{
layerId = m01;
shapes = (
{
closed = 1;
nodes = (
(385,750,l),
(315,750,l),
(515,546,l),
(650,546,l),
(380,816,l),
(320,816,l),
(50,546,l),
(185,546,l)
);
},
{
closed = 1;
nodes = (
(400,770,l),
(300,770,l),
(300,0,l),
(400,0,l)
);
}
);
width = 700;
}
);
note = arrowup;
unicode = 8593;
},
{
glyphname = arrowright;
layers = (
{
layerId = m01;
shapes = (
{
closed = 1;
nodes = (
(683,390,l),
(413,660,l),
(413,525,l),
(617,325,l),
(617,395,l),
(413,195,l),
(413,60,l),
(683,330,l)
);
},
{
closed = 1;
nodes = (
(637,410,l),
(17,410,l),
(17,310,l),
(637,310,l)
);
}
);
width = 700;
}
);
note = arrowright;
unicode = 8594;
},
{
glyphname = arrowdown;
layers = (
{
layerId = m01;
shapes = (
{
closed = 1;
nodes = (
(380,-16,l),
(650,254,l),
(515,254,l),
(315,50,l),
(385,50,l),
(185,254,l),
(50,254,l),
(320,-16,l)
);
},
{
closed = 1;
nodes = (
(400,30,l),
(400,800,l),
(300,800,l),
(300,30,l)
);
}
);
width = 700;
}
);
note = arrowdown;
unicode = 8595;
},
{
glyphname = arrowleft;
layers = (
{
layerId = m01;
shapes = (
{
closed = 1;
nodes = (
(83,395,l),
(83,325,l),
(287,525,l),
(287,660,l),
(17,390,l),
(17,330,l),
(287,60,l),
(287,195,l)
);
},
{
closed = 1;
nodes = (
(63,410,l),
(63,310,l),
(683,310,l),
(683,410,l)
);
}
);
width = 700;
}
);
note = arrowleft;
unicode = 8592;
},
{
glyphname = arrowleft.case;
layers = (
{
layerId = m01;
shapes = (
{
closed = 1;
nodes = (
(83,435,l),
(83,365,l),
(287,565,l),
(287,700,l),
(17,430,l),
(17,370,l),
(287,100,l),
(287,235,l)
);
},
{
closed = 1;
nodes = (
(63,450,l),
(63,350,l),
(683,350,l),
(683,450,l)
);
}
);
width = 700;
}
);
note = arrowleft.case;
},
{
glyphname = brevecombcy;
layers = (
{
layerId = m01;
shapes = (
{
closed = 1;
nodes = (
(185,756,o),
(271,680,o),
(350,680,qs),
(429,680,o),
(515,756,o),
(521,830,q),
(424,830,l),
(421,793,o),
(384,756,o),
(350,756,qs),
(317,756,o),
(279,793,o),
(276,830,q),
(179,830,l)
);
}
);
width = 0;
}
);
note = brevecombcy;
},
{
glyphname = uni0308;
layers = (
{
layerId = m01;
shapes = (
{
closed = 1;
nodes = (
(304,737,o),
(304,770,qs),
(304,803,o),
(264,842,o),
(229,842,qs),
(194,842,o),
(154,803,o),
(154,770,qs),
(154,737,o),
(194,698,o),
(229,698,qs),
(264,698,o)
);
},
{
closed = 1;
nodes = (
(546,737,o),
(546,770,qs),
(546,803,o),
(506,842,o),
(471,842,qs),
(436,842,o),
(396,803,o),
(396,770,qs),
(396,737,o),
(436,698,o),
(471,698,qs),
(506,698,o)
);
}
);
width = 0;
}
);
note = uni0308;
unicode = 776;
},
{
glyphname = uni0307;
layers = (
{
layerId = m01;
shapes = (
{
closed = 1;
nodes = (
(433,732,o),
(433,770,qs),
(433,808,o),
(389,851,o),
(350,851,qs),
(311,851,o),
(267,808,o),
(267,770,qs),
(267,732,o),
(311,689,o),
(350,689,qs),
(389,689,o)
);
}
);
width = 0;
}
);
note = uni0307;
unicode = 775;
},
{
glyphname = gravecomb;
layers = (
{
layerId = m01;
shapes = (
{
closed = 1;
nodes = (
(201,840,l),
(331,690,l),
(429,690,l),
(329,840,l)
);
}
);
width = 0;
}
);
note = gravecomb;
unicode = 768;
},
{
glyphname = acutecomb;
layers = (
{
layerId = m01;
shapes = (
{
closed = 1;
nodes = (
(499,840,l),
(371,840,l),
(271,690,l),
(369,690,l)
);
}
);
width = 0;
}
);
note = acutecomb;
unicode = 769;
},
{
glyphname = uni030B;
layers = (
{
layerId = m01;
shapes = (
{
closed = 1;
nodes = (
(391,840,l),
(267,840,l),
(181,690,l),
(275,690,l)
);
},
{
closed = 1;
nodes = (
(618,840,l),
(486,840,l),
(370,690,l),
(472,690,l)
);
}
);
width = 0;
}
);
note = uni030B;
unicode = 779;
},
{
glyphname = uni030C.alt;
layers = (
{
layerId = m01;
shapes = (
{
closed = 1;
nodes = (
(251,848,l),
(141,848,l),
(100,648,l),
(190,648,l)
);
}
);
width = 0;
}
);
note = uni030C.alt;
},
{
glyphname = uni0302;
layers = (
{
layerId = m01;
shapes = (
{
closed = 1;
nodes = (
(381,806,l),
(319,806,l),
(414,690,l),
(510,690,l),
(414,840,l),
(286,840,l),
(190,690,l),
(286,690,l)
);
}
);
width = 0;
}
);
note = uni0302;
unicode = 770;
},
{
glyphname = uni030C;
layers = (
{
layerId = m01;
shapes = (
{
closed = 1;
nodes = (
(319,724,l),
(381,724,l),
(286,840,l),
(190,840,l),
(286,690,l),
(414,690,l),
(510,840,l),
(414,840,l)
);
}
);
width = 0;
}
);
note = uni030C;
unicode = 780;
},
{
glyphname = uni030A;
layers = (
{
layerId = m01;
shapes = (
{
closed = 1;
nodes = (
(467,727,o),
(467,775,qs),
(467,823,o),
(402,882,o),
(350,882,qs),
(298,882,o),
(233,823,o),
(233,775,qs),
(233,727,o),
(298,668,o),
(350,668,qs),
(402,668,o)
);
},
{
closed = 1;
nodes = (
(299,753,o),
(299,775,qs),
(299,798,o),
(327,826,o),
(350,826,qs),
(373,826,o),
(401,798,o),
(401,775,qs),
(401,753,o),
(373,724,o),
(350,724,qs),
(327,724,o)
);
}
);
width = 0;
}
);
note = uni030A;
unicode = 778;
},
{
glyphname = tildecomb;
layers = (
{
layerId = m01;
shapes = (
{
closed = 1;
nodes = (
(260,719,o),
(274,743,o),
(286,743,qs),
(304,743,o),
(334,719,o),
(377,695,o),
(414,695,qs),
(467,695,o),
(518,763,o),
(524,839,q),
(444,839,l),
(440,812,o),
(427,787,o),
(414,787,qs),
(397,787,o),
(366,811,o),
(323,835,o),
(286,835,qs),
(233,835,o),
(182,768,o),
(176,691,q),
(256,691,l)
);
}
);
width = 0;
}
);
note = tildecomb;
unicode = 771;
},
{
glyphname = uni0304;
layers = (
{
layerId = m01;
shapes = (
{
closed = 1;
nodes = (
(511,810,l),
(189,810,l),
(189,720,l),
(511,720,l)
);
}
);
width = 0;
}
);
note = uni0304;
unicode = 772;
},
{
glyphname = uni0312;
layers = (
{
layerId = m01;
shapes = (
{
closed = 1;
nodes = (
(287,740,o),
(287,715,qs),
(287,690,o),
(323,660,o),
(352,660,qs),
(381,660,o),
(417,690,o),
(417,715,qs),
(417,740,o),
(381,770,o),
(352,770,qs),
(323,770,o)
);
},
{
closed = 1;
nodes = (
(305,822,o),
(283,759,o),
(283,730,qs),
(283,696,o),
(319,660,o),
(352,660,q),
(352,762,ls),
(352,779,o),
(388,827,o),
(422,850,q),
(324,850,l)
);
}
);
width = 0;
}
);
note = uni0312;
unicode = 786;
},
{
glyphname = uni0326;
layers = (
{
layerId = m01;
shapes = (
{
closed = 1;
nodes = (
(413,-140,o),
(413,-115,qs),
(413,-90,o),
(377,-60,o),
(348,-60,qs),
(319,-60,o),
(283,-90,o),
(283,-115,qs),
(283,-140,o),
(319,-170,o),
(348,-170,qs),
(377,-170,o)
);
},
{
closed = 1;
nodes = (
(395,-222,o),
(417,-159,o),
(417,-130,qs),
(417,-96,o),
(381,-60,o),
(348,-60,q),
(348,-162,ls),
(348,-179,o),
(312,-227,o),
(278,-250,q),
(376,-250,l)
);
}
);
width = 0;
}
);
note = uni0326;
unicode = 806;
},
{
glyphname = uni0327;
layers = (
{
layerId = m01;
shapes = (
{
closed = 1;
nodes = (
(343,-88,ls),
(361,-89,o),
(379,-107,o),
(379,-121,qs),
(379,-135,o),
(360,-152,o),
(343,-152,qs),
(325,-152,o),
(302,-138,o),
(298,-126,q),
(215,-126,l),
(218,-169,o),
(285,-216,o),
(343,-216,qs),
(405,-216,o),
(474,-167,o),
(474,-123,qs),
(474,-91,o),
(434,-48,o),
(396,-41,q),
(411,20,l),
(325,20,l),
(302,-83,l)
);
}
);
width = 0;
}
);
note = uni0327;
unicode = 807;
},
{
glyphname = uni0328;
layers = (
{
layerId = m01;
shapes = (
{
closed = 1;
nodes = (
(426,-213,o),
(436,-210,q),
(436,-132,l),
(430,-134,o),
(417,-136,o),
(408,-136,qs),
(389,-136,o),
(366,-112,o),
(366,-92,qs),
(366,-67,o),
(404,-18,o),
(436,0,q),
(382,2,l),
(334,0,l),
(303,-22,o),
(266,-85,o),
(266,-118,qs),
(266,-164,o),
(330,-216,o),
(384,-216,qs),
(401,-216,o)
);
}
);
width = 0;
}
);
note = uni0328;
unicode = 808;
},
{
glyphname = uni0328.e;
layers = (
{
layerId = m01;
shapes = (
{
closed = 1;
nodes = (
(546,-213,o),
(557,-210,q),
(557,-132,l),
(552,-134,o),
(539,-136,o),
(532,-136,qs),
(511,-136,o),
(487,-108,o),
(487,-84,qs),
(487,-55,o),
(518,6,o),
(545,39,qs),
(575,75,o),
(615,152,o),
(621,184,q),
(471,27,l),
(432,-7,o),
(387,-85,o),
(387,-119,qs),
(387,-164,o),
(451,-216,o),
(505,-216,qs),
(522,-216,o)
);
}
);
width = 0;
}
);
note = uni0328.e;
},
{
glyphname = ringacutecomb.case;
layers = (
{
layerId = m01;
shapes = (
{
closed = 1;
nodes = (
(458,665,o),
(458,700,qs),
(458,735,o),
(402,774,o),
(350,774,qs),
(299,774,o),
(242,735,o),
(242,700,qs),
(242,665,o),
(299,626,o),
(350,626,qs),
(402,626,o)
);
},
{
closed = 1;
nodes = (
(310,700,qs),
(310,724,o),
(350,724,qs),
(390,724,o),
(390,700,qs),
(390,676,o),
(350,676,qs),
(310,676,o)
);
},
{
closed = 1;
nodes = (
(475,882,l),
(360,882,l),
(304,800,l),
(391,800,l)
);
}
);
width = 0;
}
);
note = ringacutecomb.case;
},
{
glyphname = grave;
layers = (
{
layerId = m01;
shapes = (
{
closed = 1;
nodes = (
(512,572,l),
(332,848,l),
(188,848,l),
(408,572,l)
);
}
);
width = 700;
}
);
note = grave;
unicode = 96;
},
{
glyphname = caron;
layers = (
{
layerId = m01;
shapes = (
{
closed = 1;
nodes = (
(319,724,l),
(381,724,l),
(286,840,l),
(190,840,l),
(286,690,l),
(414,690,l),
(510,840,l),
(414,840,l)
);
}
);
width = 700;
}
);
note = caron;
unicode = 711;
},
{
glyphname = tilde;
layers = (
{
layerId = m01;
shapes = (
{
closed = 1;
nodes = (
(242,716,o),
(262,743,o),
(277,743,qs),
(296,743,o),
(332,719,o),
(383,694,o),
(423,694,qs),
(475,694,o),
(539,770,o),
(544,840,q),
(463,840,l),
(458,814,o),
(438,787,o),
(423,787,qs),
(404,787,o),
(368,811,o),
(317,836,o),
(277,836,qs),
(225,836,o),
(162,760,o),
(156,690,q),
(237,690,l)
);
}
);
width = 700;
}
);
note = tilde;
unicode = 732;
},
